<?xml version="1.0" encoding="utf-8"?>
<!-- Generator: Adobe Illustrator 24.2.3, SVG Export Plug-In . SVG Version: 6.00 Build 0)  -->
<svg xmlns:xlink="http://www.w3.org/1999/xlink" version="1.1" xmlns="http://www.w3.org/2000/svg" x="0px" y="0px"
     viewBox="0 0 200 200" style="enable-background:new 0 0 200 200;" xml:space="preserve">
<style type="text/css">
	.st0{display:none;}
	.st1{display:inline;}
	.st2{fill:#FFFFFF;}
	.st3{fill:none;stroke:#000000;stroke-width:0.8;stroke-miterlimit:10;}
	.st4{stroke:#000000;stroke-width:0.3;stroke-miterlimit:10;}
</style>
    <g id="Ebene_1" class="st0">
	
		<image style="display:inline;overflow:visible;opacity:0.32;" width="1280" height="719"
               xlink:href="modelsheet.jpg" transform="matrix(1 0 0 1 -539 -507)">
	</image>
</g>
    <g id="Ebene_2" class="st0">
	<g class="st1">
		<g>
			<path class="st2" d="M285.9,226.4c-102.3,0-204.6,0-306.9,0c0-74.1,0-148.3,0-222.4C81.3,4,183.6,4,285.9,4
				C285.9,78.1,285.9,152.3,285.9,226.4z M100,151.7c1.5,1.2,2.9,2.3,4.3,3.5c0.4,0.3,0.8,0.7,1.3,0.9c2.2,1.1,4.4,2.3,6.6,3.3
				c1.5,0.7,3.1,1.3,4.7,1.7c2.1,0.5,4.3,0.8,6.4,1.2c0.6,0.1,1.3,0.3,1.9,0.4c1.1,0.2,2.1,0.3,3.2,0.4c0.5,0.1,0.9,0.1,1.5,0.1
				c-0.3,0.9-0.6,1.6-0.9,2.4c-0.4,1.2,0.1,2.1,0.9,2.9c0.8,0.7,1.7,0.8,2.7,0.5c0.9-0.3,1.7-0.8,2.4-1.5c1.2-1.1,2.2-2.3,3-3.7
				c0.3-0.5,0.7-0.7,1.3-0.8c1.1-0.1,2.2-0.3,3.3-0.5c1.8-0.3,3.5-1,5.1-1.9c0.5-0.3,0.9-0.5,1.4-0.8c0.8-0.6,1.5-1.3,2.3-1.8
				c2.2-1.4,4-3.2,5.7-5c2-2.1,3.7-4.5,5.1-7c1.6-2.9,3.1-5.8,4.2-8.8c1.4-3.9,3.1-7.7,4.1-11.7c0.4-1.7,0.9-3.4,1.2-5.2
				c0.9-5.2,1.2-10.5,1.4-15.8c0-1.9-0.2-3.8-0.3-5.7c-0.1-1-0.1-2-0.3-3c-0.4-1.8-1.1-3.5-1.6-5.3c-0.2-0.6-0.3-1.1-0.6-1.7
				c-0.4-0.9-0.7-1.9-1.1-2.8c-0.2-0.5-0.4-1-0.6-1.5c1.2-1.2,1.8-2.5,1.7-4.1c-0.1-1.9-1.5-3.3-3.4-3.5c-0.4,0-0.8-0.2-1.1-0.2
				c-1.1-0.2-2.2-0.4-3.1,0.2c-0.9,0.6-1.4,0.4-2.2-0.2c-1.9-1.6-4-2.8-6.3-3.7c-2.7-1.1-5.4-2.1-8.4-2.4c-1.3-0.2-2.5-0.4-3.7-0.5
				c-1.1-0.1-2.3-0.2-3.4-0.2c-1.6,0-3.2-0.2-4.8,0.2c-0.8,0.2-1.6,0.3-2.4,0.5c-0.6,0.1-1.1,0-1.5-0.4c-0.9-0.9-1.8-1.7-3-2.1
				c-1.1-0.3-2.2-0.7-3.4,0c-0.4,0.2-0.7,0.4-0.8,0.9c-0.3,1.1-0.1,2.1,0.7,3c0.2,0.2,0.4,0.5,0.7,0.8c-0.4,0.2-0.8,0.4-1.2,0.5
				c-0.9,0.4-1.8,0.6-2.7,1.1c-3.2,1.6-6.3,3.4-9.1,5.6c-1.9,1.6-3.1,3.6-4.1,5.8c-0.1,0-0.2,0-0.3,0c-2.3,0.4-4.2,1.3-5.4,3.5
				c-0.1,0.2-0.3,0.3-0.5,0.4c-1.4,0.6-2.3,1.6-2.7,3.1c-0.2,0.8-0.3,1.8-0.2,2.6c0.1,0.8,0.7,1.4,1.1,2.1c0.2,0.3,0.3,0.6,0.4,1
				c0.1,0.3,0.2,0.6,0.2,0.8c0.4,1.2,1.1,2.3,1.8,3.3c0.3,0.4,0.4,0.8,0.4,1.3c0,0.6,0,1.2,0,1.8c0.1,1.2,0.1,2.5,0.4,3.7
				c0.4,1.7,1,3.4,1.6,5.1c0.1,0.2,0,0.3,0.1,0.6c-1.5-0.6-3-1.2-4.6-1.1c-2.1,0.1-3.1,1-3.2,2.8c0,0.6,0.2,1.4,0.5,1.9
				c0.9,1.8,2.3,3.2,3.8,4.5c0.3,0.3,0.6,0.6,1,0.8c0.4,0.2,0.8,0.4,1.2,0.6c-1.1,1-2.2,1.6-3.1,2.7c-2,2.3-3.2,4.9-4,7.8
				c-0.5,1.8-0.4,3.7-0.2,5.6c0.1,1,0.2,2,0.4,3.1c-0.2,0-0.4-0.1-0.5-0.1c-1.1-0.2-2.1-0.5-3.2-0.6c-1.7-0.2-3.2,0.3-4.4,1.6
				c-0.3,0.4-0.5,0.8-0.6,1.3c-0.4,1.6,0.2,2.9,1.3,4c1.5,1.6,3.5,2.3,5.6,2.7C95.9,152.9,98,152.5,100,151.7z M15.2,128.3
				c0,0.2,0.1,0.5,0.1,0.7c0.1,0.6,0.3,1.3,0.2,1.9c-0.1,1.6-0.3,3.2,0,4.8c0.3,1.3,0.4,2.7,0.7,4c0.2,0.9,0.5,1.7,0.7,2.6
				c0.8,3.9,1.7,7.8,2.7,11.6c0.2,0.7,0.5,1,1.1,1.3c0.8,0.4,1.5,0.9,2.3,1.3c0.9,0.4,1.8,0.8,2.8,0.3c0.4-0.2,0.8-0.2,1.2-0.3
				c1.8-0.5,3.7-1.1,5.5-1.6c0.6-0.2,1.3-0.3,1.9-0.4c2.3-0.6,4.7-1.3,7-1.9c1.7-0.5,3.4-0.9,5.2-1.4c1.9-0.5,3.9-1.1,5.8-1.6
				c1.5-0.4,3-0.9,4.5-1.4c0.8-0.2,1.6-0.6,2.4-0.7c2.1-0.4,4.1-1,6.2-1.7c-0.2-0.8-0.4-1.5-0.6-2.3c-0.3-1.3-0.5-2.5-0.9-3.8
				c-0.6-2.2-1.2-4.4-1.8-6.7c-0.5-1.9-0.8-3.8-1.2-5.7c-0.2-1.1-0.5-2.3-0.7-3.4c-0.2-1.1-0.4-2.2-0.7-3.2c-0.3-1.4-0.7-2.7-1.1-4
				c-0.1-0.5-0.3-0.5-0.8-0.4c-0.2,0.1-0.4,0.2-0.6,0.2c-3,0.7-5.9,1.4-8.9,2.1c-0.5,0.1-0.9,0.2-1.5,0.2c-0.3-0.8-0.5-1.5-0.7-2.2
				c-0.3-0.8-0.5-1.7-0.8-2.5c-0.3-0.7-0.5-0.8-1.3-0.7c-0.6,0.1-1.3,0.3-1.9,0.4c-2.8,0.5-5.7,1-8.5,1.5c-3.3,0.6-6.5,1.5-9.6,2.8
				c-1.1,0.4-1.3,0.8-1.1,1.9c0.3,1.7,0.5,3.3,0.8,5.1C20.7,125.6,18,126.7,15.2,128.3z M108.9,51.2c0.7,0.6,1.3,0.7,2,0.2
				c0.7-0.5,1.4-1,2.2-1.5c0-0.1,0-0.2,0-0.4c-0.1-0.9-0.2-1.9-0.2-2.8c-0.1-1.5-0.2-2.9-0.3-4.4c-0.1-1.1-0.3-1.3-1.3-1.1
				c-1,0.2-2.1,0.5-3.1,0.8c-0.9,0.3-1.9,0.5-2.9,0.5c-0.9,0-1-0.1-1,0.9c-0.2,2.3-0.5,4.6-0.7,6.9c0,0.2,0,0.3-0.1,0.5
				c-0.3,0.2-0.7,0.3-1,0.5c-0.4,0.3-0.9,0.5-1.3,0.8c-0.5,0.4-0.7,1-0.4,1.4c0.2,0.3,0.8,0.4,1.4,0.3c0.1,0,0.3-0.1,0.3-0.2
				c0.7-0.6,1.3-1.1,2-1.7c0.1-0.1,0.3-0.4,0.2-0.6c-0.3-0.8-0.1-1.7-0.1-2.5c0.1-1.7,0.3-3.3,0.4-5.1c2.3,0.1,4.3-1.1,6.7-1.2
				c0.1,2.3,0.2,4.5,0.3,6.8c-0.6,0.2-1.2,0.4-1.8,0.7C109.6,50.1,109.1,50.4,108.9,51.2z M60.8,85.2c0.3,1.5,1.1,2.8,1.1,4
				c-0.7,0.7-1.3,1.2-1.8,1.7c-0.3,0.4-0.2,0.8,0.3,1c0.3,0.1,0.6,0.1,0.9,0c0.8-0.3,1-1.2,1.6-1.7c0.1-0.1,0-0.3,0-0.4
				c-0.2-0.8-0.4-1.5-0.6-2.2c-0.2-0.6-0.4-1.2-0.6-1.8c0.9-0.2,1.7-0.5,2.6-0.7c0.7-0.2,0.8-0.1,1.1,0.6c0.2,0.7,0.5,1.3,0.8,2
				c0.1,0.2,0.1,0.5,0.2,0.6c-0.7,0.6-1.3,1.2-1.9,1.8c-0.2,0.2-0.3,0.5-0.2,0.7c0.1,0.2,0.5,0.3,0.7,0.3c0.2,0,0.5-0.1,0.7-0.2
				c0.7-0.2,1.1-0.8,1.5-1.3c0.3-0.4,0.4-0.8,0.2-1.3c-0.6-1.3-1.2-2.6-1.5-4c-0.1-0.6-0.5-0.7-1-0.6c-1.1,0.3-2.2,0.5-3.3,0.9
				C61.4,84.9,61.1,85.1,60.8,85.2z M42.7,56.4c1,0.3,1.9,0.2,2.8-0.1c0.4-0.1,0.6-0.3,0.4-0.8c-0.5,0-1,0-1.6,0
				c-0.5,0-1.1,0-1.6-0.2c-0.7-0.2-1.1,0-1,0.8c0.2,1.3,0.4,2.7,0.7,4c0,0.3,0.1,0.6,0.1,0.8c-0.5,0.1-0.8,0.2-1.2,0.3
				c-1,0.4-1.9,1-2.5,1.9c-0.5,0.8-0.3,1.5,0.6,1.8c0.4,0.1,0.7,0,1.1-0.2c1.1-0.5,1.8-1.4,2.7-2.1c0.5-0.4,0.6-1,0.5-1.6
				c-0.2-0.6-0.3-1.1-0.5-1.7C42.9,58.5,42.7,57.5,42.7,56.4z M79.8,67.8c1,0.5,2.1,0.6,3.1,0.4c0.9-0.1,1.3-0.4,1.2-0.7
				c-0.3-0.6-0.8-0.3-1.3-0.3c-0.6,0-1.2,0.1-1.7,0c-0.5-0.1-0.9-0.4-1.3-0.6c-0.2-0.1-0.5-0.2-0.7-0.1c-0.1,0.1-0.1,0.4-0.2,0.7
				c0,0.5,0,1.1-0.1,1.6c-0.1,0.7-0.3,1.3-0.4,2c-0.1,0.7-0.4,1-0.9,1.2c-0.5,0.3-1.2,0.5-1.6,0.8c-0.5,0.3-1,0.8-1.3,1.3
				c-0.4,0.6-0.1,1.3,0.7,1.5c0.4,0.1,0.8,0,1.1-0.2c0.6-0.4,1.2-0.9,1.7-1.4c0.4-0.4,0.8-0.9,0.9-1.4C79.3,71,79.5,69.5,79.8,67.8z
				 M140.4,34.3c1,0.5,1.8,1,2.8,0.1c-0.3-0.2-0.5-0.4-0.7-0.4c-0.8,0-1.4-0.5-2-0.9c-0.6-0.4-0.9-0.3-0.9,0.4c0,0.2,0,0.3,0,0.5
				c0,1.2,0,2.5,0,3.7c0,0.7-0.2,1.1-0.9,1.4c-0.6,0.2-1.2,0.6-1.7,1.1c-0.5,0.4-0.5,0.9-0.2,1.2c0.2,0.3,0.8,0.4,1.2,0.1
				c1-0.8,2.3-1.5,2.4-3.1c0-0.4,0-0.8,0-1.2C140.4,36.3,140.4,35.3,140.4,34.3z M33.7,101.1c0.6,0.3,1,0.2,1.5,0.1
				c0.8-0.2,1.3-0.8,1.9-1.3c0.5-0.4,0.7-0.8,0.6-1.4c-0.1-1.1-0.2-2.2-0.3-3.3c0-0.4,0-0.9-0.1-1.5c0.5,0.2,0.9,0.5,1.3,0.6
				c0.3,0.1,0.6,0.1,0.7-0.3c0.1-0.3-0.1-0.5-0.4-0.6c-0.6-0.3-1.2-0.5-1.8-0.8c-0.4,0.3-0.5,0.7-0.4,1.2c0.1,0.7,0.1,1.4,0.2,2
				c0.1,0.8,0.1,1.5,0.1,2.3c-0.8,0.3-1.5,0.6-2.2,0.9C34,99.4,33.8,100.2,33.7,101.1z"/>
            <path d="M100,151.7c-2,0.8-4.1,1.2-6.2,0.8c-2.1-0.5-4-1.2-5.6-2.7c-1.1-1.1-1.7-2.4-1.3-4c0.1-0.5,0.3-0.9,0.6-1.3
				c1.1-1.4,2.7-1.8,4.4-1.6c1.1,0.1,2.2,0.4,3.2,0.6c0.2,0,0.3,0.1,0.5,0.1c-0.1-1.1-0.3-2.1-0.4-3.1c-0.1-1.9-0.3-3.8,0.2-5.6
				c0.8-2.8,2-5.5,4-7.8c0.9-1,2-1.7,3.1-2.7c-0.5-0.2-0.9-0.4-1.2-0.6c-0.4-0.2-0.7-0.5-1-0.8c-1.5-1.3-2.9-2.7-3.8-4.5
				c-0.3-0.6-0.6-1.3-0.5-1.9c0.1-1.8,1.1-2.7,3.2-2.8c1.6-0.1,3.1,0.5,4.6,1.1c0-0.3,0-0.4-0.1-0.6c-0.5-1.7-1.2-3.4-1.6-5.1
				c-0.3-1.2-0.3-2.4-0.4-3.7c0-0.6,0-1.2,0-1.8c0-0.5-0.1-0.9-0.4-1.3c-0.7-1-1.4-2.1-1.8-3.3c-0.1-0.3-0.1-0.6-0.2-0.8
				c-0.1-0.3-0.3-0.6-0.4-1c-0.4-0.7-1-1.4-1.1-2.1c-0.2-0.8,0-1.7,0.2-2.6c0.3-1.5,1.3-2.5,2.7-3.1c0.2-0.1,0.4-0.2,0.5-0.4
				c1.1-2.2,3.1-3.1,5.4-3.5c0.1,0,0.3,0,0.3,0c1-2.2,2.2-4.2,4.1-5.8c2.8-2.3,5.9-4,9.1-5.6c0.9-0.4,1.8-0.7,2.7-1.1
				c0.4-0.2,0.8-0.3,1.2-0.5c-0.3-0.3-0.5-0.5-0.7-0.8c-0.7-0.9-0.9-1.9-0.7-3c0.1-0.5,0.4-0.7,0.8-0.9c1.1-0.7,2.3-0.4,3.4,0
				c1.2,0.4,2.2,1.2,3,2.1c0.5,0.5,0.9,0.6,1.5,0.4c0.8-0.2,1.6-0.3,2.4-0.5c1.6-0.3,3.2-0.2,4.8-0.2c1.1,0,2.3,0,3.4,0.2
				c1.3,0.1,2.5,0.3,3.7,0.5c2.9,0.4,5.6,1.3,8.4,2.4c2.3,0.9,4.4,2.2,6.3,3.7c0.8,0.7,1.2,0.9,2.2,0.2c0.9-0.6,2.1-0.3,3.1-0.2
				c0.4,0.1,0.8,0.2,1.1,0.2c1.9,0.2,3.3,1.6,3.4,3.5c0.1,1.6-0.5,3-1.7,4.1c0.2,0.5,0.4,1,0.6,1.5c0.4,0.9,0.8,1.9,1.1,2.8
				c0.2,0.5,0.4,1.1,0.6,1.7c0.5,1.8,1.1,3.5,1.6,5.3c0.2,1,0.2,2,0.3,3c0.1,1.9,0.4,3.8,0.3,5.7c-0.1,5.3-0.5,10.6-1.4,15.8
				c-0.3,1.8-0.8,3.5-1.2,5.2c-0.9,4.1-2.6,7.9-4.1,11.7c-1.1,3.1-2.6,6-4.2,8.8c-1.4,2.5-3.1,4.9-5.1,7c-1.8,1.9-3.6,3.6-5.7,5
				c-0.8,0.5-1.5,1.2-2.3,1.8c-0.4,0.3-0.9,0.5-1.4,0.8c-1.6,0.9-3.2,1.6-5.1,1.9c-1.1,0.2-2.2,0.4-3.3,0.5c-0.6,0.1-1,0.3-1.3,0.8
				c-0.8,1.4-1.8,2.6-3,3.7c-0.7,0.6-1.5,1.2-2.4,1.5c-1,0.3-1.9,0.3-2.7-0.5c-0.8-0.8-1.4-1.7-0.9-2.9c0.3-0.8,0.6-1.5,0.9-2.4
				c-0.5,0-1-0.1-1.5-0.1c-1.1-0.1-2.1-0.2-3.2-0.4c-0.6-0.1-1.3-0.3-1.9-0.4c-2.1-0.4-4.3-0.7-6.4-1.2c-1.6-0.4-3.2-1-4.7-1.7
				c-2.2-1-4.4-2.2-6.6-3.3c-0.5-0.2-0.9-0.6-1.3-0.9C102.9,154,101.5,152.9,100,151.7z M107.9,85.4c0.6,0.1,1,0.1,1.4,0.2
				c0.7,0.1,1.4,0.2,2.1,0.4c1.4,0.4,2.4,1.5,3.4,2.5c0.2,0.2,0.3,0.4,0.4,0.6c0.5,1.6,1.1,3.1,1.3,4.8c0.3,3.3-0.4,6.4-2.7,9
				c-1.6,1.9-3.5,2.9-6,2.8c-1.7-0.1-3.3-0.2-4.7-1.3c-0.1-0.1-0.2-0.1-0.4-0.2c0,0.2-0.1,0.3-0.1,0.4c0,1.7,0.1,3.3,0.5,4.9
				c0.4,1.4,0.9,2.7,1.3,4.1c0.5,1.6,1.5,3,2.6,4.3c1.6,1.8,3.6,3.2,5.5,4.6c2,1.4,4.2,2.4,6.3,3.4c1.9,1,3.9,1.4,6,1.3
				c0,0,0.1,0.1,0.1,0.2c-0.1,0.1-0.2,0.2-0.4,0.3c-0.6,0-1.3,0.1-1.9,0c-1.4-0.2-2.8-0.4-4-1c-2.8-1.4-5.6-2.7-8-4.7
				c-0.2-0.2-0.5-0.3-0.7-0.4c-1.4,0.6-2.8,1.2-4.1,1.8c-1.8,0.8-3.6,1.8-5.1,3.2c-2.3,2.2-3.7,4.9-4.6,7.9
				c-0.7,2.2-0.5,4.5-0.3,6.8c0.2,1.5,0.5,2.9,1.1,4.2c0.4,0.9,1,1.7,1.4,2.6c0.5,1.2,1.4,2.3,2.4,3.2c2,1.8,4,3.5,6.4,4.7
				c0.9,0.5,1.8,0.9,2.7,1.4c2.2,1.2,4.6,2,6.9,2.8c1.7,0.5,3.5,0.7,5.3,1.1c0.4,0.1,0.8,0.2,1.2,0.2c2.1,0.3,4.2,0.6,6.4,0.8
				c0.3,0,0.7-0.1,0.9-0.2c0.4-0.4,0.8-0.9,1.2-1.4c0.4-0.5,0.8-1.1,1.5-1.3c0.3,0.4,0.3,0.6,0,1c-0.9,1.1-1.8,2.2-2.6,3.3
				c-0.4,0.6-0.7,1.4-1,2.1c-0.4,1.1,0.7,2.8,2.3,2.2c0.7-0.3,1.4-0.6,2-1c1.5-1.2,2.7-2.7,3.7-4.3c0.4-0.7,0.7-1.4,1.1-2.1
				c0.1-0.3,0.3-0.6,0.6-0.4c0.2,0.1,0.3,0.5,0.2,0.7c0,0.3-0.2,0.6-0.4,1c0.8,0,1.5,0,2.1-0.1c2.6-0.5,5.1-1.3,7.2-2.9
				c2.5-1.8,5.1-3.4,7.1-5.8c0.1-0.1,0.2-0.2,0.3-0.3c0.8-0.8,1.7-1.6,2.3-2.5c1.6-2.3,3.1-4.6,4.5-7c0.9-1.5,1.4-3.2,2.2-4.8
				c1.1-2.4,2-4.8,2.8-7.2c0.7-2,1.5-4.1,2-6.2c0.3-1.4,0.8-2.9,1-4.3c0.4-2.6,0.8-5.2,1-7.8c0.2-1.5,0.5-3,0.2-4.5
				c0-0.1,0-0.2,0-0.3c0.5-2.1,0.3-4.2,0.2-6.4c-0.1-1.6-0.4-3.2-0.5-4.8c-0.1-1.6-0.6-3.1-1.1-4.6c-0.8-2.5-1.8-5-2.7-7.3
				c-1.3,0.2-2.5,0.5-3.7,0.6c-1.1,0.1-2.2,0-3.3,0c-0.5,0-0.9-0.3-0.8-1c0.3,0,0.5,0.1,0.8,0.1c1.9,0.2,3.7,0.2,5.5-0.3
				c1.3-0.4,2.3-1.2,2.7-2.5c0.7-2.1-0.1-3.8-2.4-4.1c-0.6-0.1-1.2-0.2-1.8-0.3c-0.8-0.2-1.6-0.1-2.3,0.4c-0.7,0.5-1.5,0.9-2,1.6
				c-0.1,0.1-0.2,0.2-0.4,0.3c-0.8-0.8,0.3-1.2,0.4-1.8c-1.3-1.4-2.9-2.3-4.5-3.2c-1.3-0.7-2.8-1.3-4.2-1.8
				c-1.4-0.5-2.9-1.1-4.3-1.4c-2.2-0.4-4.5-0.7-6.7-0.9c-4.7-0.4-9.3,0-13.8,1.7c-3.4,1.3-6.9,2.5-10,4.4c-2.3,1.4-4.6,2.9-6.5,4.7
				c-0.6,0.6-1.1,1.4-1.6,2.1c-0.2,0.3-0.3,0.6-0.4,0.9C108.3,84.8,108.2,85,107.9,85.4z M100,98.1c0.1,0.3,0.1,0.5,0.2,0.6
				c0.6,1.5,1.5,2.9,2.5,4.1c0.8,1,1.9,1.7,3.1,1.8c1.2,0.1,2.3,0,3.5,0c0.2,0,0.5-0.1,0.7-0.2c2.3-0.9,3.8-2.7,4.7-4.9
				c1.4-3,1.2-6,0.1-9.1c-0.7-1.8-2.1-2.9-3.7-3.5c-2.5-1-5.1-0.8-7.5,0.5c-0.8,0.4-1.4,1-1.7,2c1,0.5,1.2,1.5,1.6,2.3
				c0.6,1.5,0.7,3.1,0.3,4.7c-0.2,0.8-0.7,1.3-1.3,1.8C101.8,98.8,101,98.6,100,98.1z M109.4,121.1c-0.4-0.3-0.6-0.5-0.7-0.7
				c-1.1-1-2.3-2-3.1-3.2c-0.7-1.1-1.6-1.5-2.7-1.8c-0.4-0.1-0.7-0.3-1.1-0.4c-1-0.3-2.1-0.5-3.1-0.3c-1.2,0.3-1.8,1.2-1.5,2.4
				c0.2,0.6,0.5,1.3,0.8,1.8c0.8,1.4,2,2.4,3.2,3.4c0.6,0.5,1.3,0.8,2,1.1c0.4,0.2,0.8,0.1,1.2-0.1c0.6-0.3,1.2-0.5,1.8-0.8
				C107.1,122.2,108.1,121.7,109.4,121.1z M99.2,150.7c-0.4-0.6-0.7-1-0.9-1.5c-0.7-1.3-1.4-2.7-2.1-4.1c-0.2-0.4-0.4-0.7-0.8-0.7
				c-1.2-0.2-2.3-0.5-3.5-0.7c-0.6-0.1-1.2,0-1.7,0.1c-0.9,0.2-1.8,0.6-2.2,1.5c-0.5,1-0.4,2.1,0.2,3c0.9,1.1,1.9,2.1,3.2,2.5
				c0.7,0.2,1.5,0.5,2.2,0.6C95.5,151.8,97.4,151.6,99.2,150.7z M129,70.6c-0.6-0.8-1.4-1.3-2.2-1.7c-0.7-0.3-1.6-0.6-2.5-0.4
				c-0.9,0.2-1.3,0.7-1,1.6c0.2,0.5,0.5,1,0.8,1.5c0.3,0.5,0.7,0.5,1.2,0.3c0.7-0.3,1.4-0.5,2.1-0.8C127.9,71.1,128.5,70.9,129,70.6
				z"/>
            <path d="M15.2,128.3c2.7-1.6,5.5-2.8,8.5-3.1c-0.3-1.8-0.6-3.4-0.8-5.1c-0.2-1.1,0-1.5,1.1-1.9c3.1-1.3,6.3-2.2,9.6-2.8
				c2.8-0.5,5.7-1,8.5-1.5c0.6-0.1,1.3-0.2,1.9-0.4c0.8-0.1,1-0.1,1.3,0.7c0.3,0.8,0.5,1.7,0.8,2.5c0.2,0.7,0.5,1.5,0.7,2.2
				c0.6-0.1,1.1-0.1,1.5-0.2c3-0.7,5.9-1.4,8.9-2.1c0.2-0.1,0.4-0.1,0.6-0.2c0.4-0.2,0.6-0.1,0.8,0.4c0.4,1.3,0.7,2.7,1.1,4
				c0.3,1.1,0.4,2.2,0.7,3.2c0.2,1.1,0.5,2.3,0.7,3.4c0.4,1.9,0.7,3.8,1.2,5.7c0.5,2.2,1.2,4.4,1.8,6.7c0.3,1.3,0.6,2.5,0.9,3.8
				c0.2,0.8,0.4,1.5,0.6,2.3c-2.1,0.7-4.1,1.3-6.2,1.7c-0.8,0.2-1.6,0.5-2.4,0.7c-1.5,0.5-3,0.9-4.5,1.4c-1.9,0.6-3.9,1.1-5.8,1.6
				c-1.7,0.5-3.4,0.9-5.2,1.4c-2.3,0.6-4.7,1.3-7,1.9c-0.6,0.2-1.3,0.2-1.9,0.4c-1.8,0.5-3.7,1.1-5.5,1.6c-0.4,0.1-0.8,0.2-1.2,0.3
				c-1,0.5-1.9,0.1-2.8-0.3c-0.8-0.4-1.5-0.9-2.3-1.3c-0.6-0.3-0.9-0.7-1.1-1.3c-1-3.9-2-7.7-2.7-11.6c-0.2-0.9-0.5-1.7-0.7-2.6
				c-0.3-1.3-0.4-2.7-0.7-4c-0.4-1.6-0.1-3.2,0-4.8c0-0.6-0.1-1.3-0.2-1.9C15.3,128.8,15.2,128.5,15.2,128.3z M25.2,156.1
				c0.3-0.1,0.4-0.1,0.6-0.2c1.3-0.4,2.7-0.8,4-1.2c2.3-0.6,4.6-1.3,6.9-1.9c1.8-0.5,3.5-0.9,5.3-1.3c3-0.8,6.1-1.6,9.1-2.4
				c0.8-0.2,1.6-0.4,2.3-0.7c2-0.6,4-1.3,6-1.9c1.6-0.5,3.2-0.9,4.8-1.5c-0.4-2.3-3.8-16-4.2-16.8c-0.3,0.1-0.6,0.1-0.9,0.2
				c-2.9,0.8-5.8,1.7-8.7,2.5c-1.5,0.4-3.1,0.7-4.6,1.1c-2.3,0.6-4.7,1.3-7,2c-1.3,0.4-2.7,0.7-4.1,1c-0.3,0.1-0.7,0.2-1,0.3
				c-1.5,0.4-3,0.8-4.5,1.2c-2.3,0.7-4.7,1.3-7,2c-0.2,0.1-0.5,0.2-0.8,0.3C22.8,144.5,23.4,150.4,25.2,156.1z M21.4,137.7
				c0.6-0.1,1.2-0.2,1.7-0.4c2.2-0.6,4.3-1.3,6.5-1.9c1.9-0.5,3.8-1,5.7-1.6c2.8-0.7,5.6-1.4,8.4-2.2c1.6-0.4,3.2-0.8,4.8-1.3
				c1.4-0.4,2.9-0.7,4.3-1.1c1.8-0.5,3.5-1,5.3-1.6c0.6-0.2,1.1-0.4,1.7-0.6c-0.3-3.3-1-6.3-2.1-9.4c-0.6,0.1-1.2,0-1.8,0.2
				c-1.6,0.4-3.2,0.8-4.8,1.2c-3.4,0.8-6.8,1.5-10.2,2.3c-3.3,0.8-6.5,1.6-9.8,2.5c-1.5,0.4-3,0.9-4.5,1.4c-1.1,0.3-2.2,0.7-3.2,1
				c-1,0.3-2.1,0.5-3.1,0.7C20.7,130.6,21,134.1,21.4,137.7z M16.2,128.9c0,1.6,0,3.1,0,4.6c0,0.7,0,1.4,0.1,2.1
				c0.3,1.7,0.7,3.4,1.1,5.1c0.4,2,0.8,4.1,1.3,6.1c0.6,2.4,1.3,4.7,1.9,7c0.1,0.3,0.2,0.6,0.6,0.7c0.8,0.3,1.5,0.7,2.3,1.1
				c0.2,0.1,0.5,0.2,0.8,0.3c-0.2-0.9-0.3-1.6-0.5-2.3c-0.3-1.6-0.7-3.3-1-4.9c-0.2-0.9-0.3-1.8-0.5-2.8c-0.3-1.4-0.7-2.8-1-4.1
				c-0.2-1-0.3-2.1-0.6-3c-0.2-0.6-0.3-1.2-0.4-1.8c-0.1-2.2-0.2-4.5-0.4-6.7c-0.1-1-0.3-1.9-0.5-3C18.3,128,17.2,128.4,16.2,128.9z
				 M25.5,120.1c0.4,1.4,0.5,2.8,1,4.2c5.8-1.9,11.7-3.1,17.5-4.6c-0.3-1.1-0.6-2.1-0.8-3.2C37.3,117.6,31.5,118.9,25.5,120.1z
				 M43,115c-0.2-0.1-0.3-0.2-0.4-0.2c-1.5,0.2-3.1,0.4-4.6,0.6c-2.4,0.5-4.8,0.9-7.2,1.5c-1.7,0.4-3.4,1-5.1,1.6
				c-0.1,0-0.2,0.2-0.5,0.5c0.4,0,0.6,0,0.7,0c2.2-0.5,4.4-0.9,6.6-1.4c2-0.4,4-0.9,6.1-1.3c0.4-0.1,0.9-0.2,1.3-0.3
				c0.8-0.2,1.6-0.4,2.5-0.6C42.7,115.4,42.8,115.2,43,115z M25.5,124.4c-0.2-1.4-0.4-2.9-0.6-4.3c-0.1-1-0.4-1.1-1.3-0.6
				c0.3,2.7,0.8,5.1,1.3,5.2c0.1,0,0.2-0.1,0.3-0.1C25.3,124.6,25.4,124.5,25.5,124.4z M43.9,114.7c-0.1,0.8,0.5,3.5,1.2,4.8
				c0.2-0.1,0.5-0.2,0.8-0.3c-0.4-1.4-0.8-2.7-1.1-4C44.6,114.7,44.4,114.5,43.9,114.7z"/>
            <path d="M108.9,51.2c0.2-0.8,0.7-1.1,1.4-1.4c0.6-0.3,1.2-0.5,1.8-0.7c-0.1-2.3-0.2-4.5-0.3-6.8c-2.4,0.1-4.4,1.3-6.7,1.2
				c-0.1,1.8-0.3,3.4-0.4,5.1c0,0.8-0.2,1.7,0.1,2.5c0.1,0.1-0.1,0.5-0.2,0.6c-0.6,0.6-1.3,1.2-2,1.7c-0.1,0.1-0.2,0.1-0.3,0.2
				c-0.5,0.2-1.2,0-1.4-0.3c-0.2-0.3-0.1-1,0.4-1.4c0.4-0.3,0.9-0.6,1.3-0.8c0.3-0.2,0.6-0.3,1-0.5c0-0.2,0.1-0.4,0.1-0.5
				c0.2-2.3,0.5-4.6,0.7-6.9c0.1-0.9,0.1-0.9,1-0.9c1,0,1.9-0.1,2.9-0.5c1-0.3,2-0.6,3.1-0.8c1.1-0.2,1.2-0.1,1.3,1.1
				c0.1,1.5,0.2,2.9,0.3,4.4c0.1,0.9,0.2,1.9,0.2,2.8c0,0.2,0,0.4,0,0.4c-0.8,0.6-1.5,1-2.2,1.5C110.2,51.9,109.6,51.8,108.9,51.2z"
            />
            <path d="M60.8,85.2c0.3-0.1,0.6-0.4,0.9-0.4c1.1-0.3,2.2-0.6,3.3-0.9c0.6-0.1,0.9,0,1,0.6c0.3,1.4,0.9,2.7,1.5,4
				c0.2,0.5,0.1,0.9-0.2,1.3c-0.4,0.5-0.8,1.1-1.5,1.3c-0.2,0.1-0.5,0.2-0.7,0.2c-0.3,0-0.6-0.2-0.7-0.3c-0.1-0.1,0-0.5,0.2-0.7
				c0.6-0.6,1.2-1.1,1.9-1.8c0-0.2-0.1-0.4-0.2-0.6c-0.3-0.7-0.5-1.3-0.8-2c-0.3-0.7-0.4-0.8-1.1-0.6c-0.8,0.2-1.7,0.5-2.6,0.7
				c0.2,0.6,0.4,1.2,0.6,1.8c0.2,0.7,0.4,1.5,0.6,2.2c0,0.1,0.1,0.3,0,0.4c-0.6,0.5-0.8,1.4-1.6,1.7c-0.3,0.1-0.6,0.1-0.9,0
				c-0.5-0.2-0.7-0.6-0.3-1c0.5-0.6,1.1-1.1,1.8-1.7C61.9,88,61.2,86.7,60.8,85.2z"/>
            <path d="M42.7,56.4c0,1.1,0.2,2.1,0.5,3.1c0.1,0.6,0.3,1.1,0.5,1.7c0.2,0.6,0,1.2-0.5,1.6c-0.9,0.7-1.6,1.6-2.7,2.1
				c-0.4,0.2-0.7,0.3-1.1,0.2c-0.9-0.3-1.2-1-0.6-1.8c0.6-0.9,1.5-1.5,2.5-1.9c0.4-0.1,0.7-0.2,1.2-0.3c0-0.3,0-0.6-0.1-0.8
				c-0.2-1.3-0.5-2.7-0.7-4c-0.1-0.8,0.2-0.9,1-0.8c0.5,0.1,1.1,0.1,1.6,0.2c0.5,0,1.1,0,1.6,0c0.2,0.5,0,0.7-0.4,0.8
				C44.6,56.6,43.8,56.7,42.7,56.4z"/>
            <path d="M79.8,67.8c-0.3,1.6-0.5,3.1-0.8,4.6c-0.1,0.5-0.5,1-0.9,1.4c-0.5,0.5-1.1,1-1.7,1.4c-0.3,0.2-0.7,0.2-1.1,0.2
				c-0.8-0.1-1.1-0.8-0.7-1.5c0.3-0.5,0.8-0.9,1.3-1.3c0.5-0.3,1.1-0.5,1.6-0.8c0.5-0.3,0.9-0.6,0.9-1.2c0.1-0.7,0.3-1.3,0.4-2
				c0.1-0.5,0-1.1,0.1-1.6c0-0.2,0-0.6,0.2-0.7c0.2-0.1,0.5,0,0.7,0.1c0.4,0.2,0.8,0.5,1.3,0.6c0.6,0.1,1.1,0.1,1.7,0
				c0.5,0,1-0.3,1.3,0.3c0.2,0.3-0.3,0.6-1.2,0.7C81.8,68.4,80.8,68.4,79.8,67.8z"/>
            <path d="M140.4,34.3c0,1.1,0,2,0,2.9c0,0.4,0,0.8,0,1.2c0,1.6-1.3,2.3-2.4,3.1c-0.4,0.3-1,0.2-1.2-0.1c-0.3-0.3-0.2-0.8,0.2-1.2
				c0.5-0.4,1.1-0.9,1.7-1.1c0.7-0.3,0.9-0.7,0.9-1.4c0-1.2,0-2.5,0-3.7c0-0.2,0-0.3,0-0.5c0.1-0.7,0.3-0.8,0.9-0.4
				c0.6,0.4,1.2,0.8,2,0.9c0.2,0,0.4,0.2,0.7,0.4C142.2,35.3,141.4,34.7,140.4,34.3z"/>
            <path d="M33.7,101.1c0.1-0.9,0.3-1.7,1.2-2.1c0.7-0.3,1.4-0.6,2.2-0.9c0-0.7-0.1-1.5-0.1-2.3c0-0.7-0.1-1.4-0.2-2
				c-0.1-0.5,0.1-0.9,0.4-1.2c0.6,0.3,1.2,0.5,1.8,0.8c0.3,0.1,0.5,0.3,0.4,0.6c-0.1,0.4-0.5,0.3-0.7,0.3c-0.4-0.1-0.8-0.4-1.3-0.6
				c0,0.6,0,1.1,0.1,1.5c0.1,1.1,0.2,2.2,0.3,3.3c0.1,0.6-0.1,1.1-0.6,1.4c-0.6,0.5-1.1,1.1-1.9,1.3
				C34.8,101.3,34.3,101.4,33.7,101.1z"/>
            <path class="st2" d="M107.9,85.4c0.2-0.4,0.3-0.7,0.4-0.9c0.1-0.3,0.2-0.7,0.4-0.9c0.5-0.7,1-1.5,1.6-2.1
				c1.9-1.9,4.2-3.3,6.5-4.7c3.2-1.9,6.6-3.1,10-4.4c4.5-1.7,9.1-2,13.8-1.7c2.3,0.2,4.5,0.4,6.7,0.9c1.5,0.3,2.9,0.8,4.3,1.4
				c1.4,0.5,2.8,1.1,4.2,1.8c1.6,0.9,3.2,1.9,4.5,3.2c-0.1,0.6-1.2,0.9-0.4,1.8c0.1-0.1,0.3-0.2,0.4-0.3c0.5-0.8,1.3-1.2,2-1.6
				c0.7-0.4,1.5-0.6,2.3-0.4c0.6,0.1,1.2,0.3,1.8,0.3c2.3,0.3,3.1,2,2.4,4.1c-0.4,1.3-1.4,2.1-2.7,2.5c-1.8,0.5-3.7,0.5-5.5,0.3
				c-0.2,0-0.5,0-0.8-0.1c-0.1,0.7,0.3,0.9,0.8,1c1.1,0,2.2,0.1,3.3,0c1.2-0.1,2.4-0.4,3.7-0.6c0.9,2.4,1.9,4.8,2.7,7.3
				c0.5,1.5,1,3,1.1,4.6c0.1,1.6,0.4,3.2,0.5,4.8c0.1,2.1,0.3,4.3-0.2,6.4c0,0.1,0,0.2,0,0.3c0.3,1.5,0,3-0.2,4.5
				c-0.3,2.6-0.6,5.2-1,7.8c-0.2,1.5-0.7,2.9-1,4.3c-0.5,2.1-1.3,4.1-2,6.2c-0.9,2.4-1.8,4.9-2.8,7.2c-0.7,1.6-1.3,3.3-2.2,4.8
				c-1.4,2.4-2.9,4.7-4.5,7c-0.6,0.9-1.5,1.7-2.3,2.5c-0.1,0.1-0.2,0.2-0.3,0.3c-2,2.4-4.6,4-7.1,5.8c-2.2,1.6-4.6,2.4-7.2,2.9
				c-0.7,0.1-1.3,0.1-2.1,0.1c0.2-0.4,0.3-0.7,0.4-1c0-0.2-0.1-0.6-0.2-0.7c-0.3-0.2-0.5,0.1-0.6,0.4c-0.3,0.7-0.7,1.4-1.1,2.1
				c-1,1.6-2.2,3.1-3.7,4.3c-0.6,0.4-1.3,0.8-2,1c-1.5,0.6-2.6-1.1-2.3-2.2c0.2-0.7,0.5-1.5,1-2.1c0.8-1.2,1.7-2.2,2.6-3.3
				c0.3-0.3,0.3-0.6,0-1c-0.7,0.2-1.1,0.8-1.5,1.3c-0.4,0.5-0.7,1-1.2,1.4c-0.2,0.2-0.6,0.3-0.9,0.2c-2.1-0.2-4.2-0.5-6.4-0.8
				c-0.4-0.1-0.8-0.1-1.2-0.2c-1.8-0.3-3.6-0.5-5.3-1.1c-2.4-0.7-4.7-1.6-6.9-2.8c-0.9-0.5-1.8-1-2.7-1.4c-2.4-1.2-4.4-2.9-6.4-4.7
				c-1-0.9-1.8-1.9-2.4-3.2c-0.4-0.9-1-1.7-1.4-2.6c-0.6-1.3-0.9-2.8-1.1-4.2c-0.3-2.3-0.4-4.5,0.3-6.8c0.9-3,2.3-5.7,4.6-7.9
				c1.5-1.4,3.2-2.4,5.1-3.2c1.3-0.6,2.7-1.2,4.1-1.8c0.2,0.1,0.5,0.2,0.7,0.4c2.4,2,5.3,3.3,8,4.7c1.2,0.6,2.7,0.7,4,1
				c0.6,0.1,1.3,0,1.9,0c0.1,0,0.2-0.2,0.4-0.3c-0.1-0.1-0.1-0.2-0.1-0.2c-2.1,0.2-4.1-0.3-6-1.3c-2.1-1.1-4.3-2-6.3-3.4
				c-2-1.4-3.9-2.8-5.5-4.6c-1.2-1.2-2.1-2.6-2.6-4.3c-0.4-1.4-1-2.7-1.3-4.1c-0.4-1.6-0.5-3.3-0.5-4.9c0-0.1,0.1-0.2,0.1-0.4
				c0.2,0.1,0.3,0.1,0.4,0.2c1.4,1.1,3,1.2,4.7,1.3c2.5,0.1,4.4-0.9,6-2.8c2.3-2.6,3-5.7,2.7-9c-0.2-1.6-0.8-3.2-1.3-4.8
				c-0.1-0.2-0.2-0.4-0.4-0.6c-1-1-2-2.1-3.4-2.5c-0.7-0.2-1.4-0.3-2.1-0.4C109,85.5,108.5,85.5,107.9,85.4z M135.8,100.3
				c0,0.9,0,1.6,0.1,2.3c0.4,2.3,1.7,4.2,3.3,5.7c2.2,2,4.9,2.7,7.8,2.6c1-0.1,2.1-0.2,3.1-0.7c1-0.5,1.9-1.1,2.6-1.9
				c1.7-1.8,2.7-3.9,3.1-6.4c0.4-2.3,0-4.5-0.9-6.6c-0.4-1-0.8-2-1.4-2.9c-0.8-1.3-1.9-2.3-3.6-2.3c-0.3,0-0.6-0.1-0.9-0.1
				c-1.8-0.4-3.5-0.4-5.3-0.2c-1.6,0.2-3,0.8-4.2,1.9C137.2,94.2,136.1,97.2,135.8,100.3z M126.9,111.4c0.4-0.1,0.9-0.2,1.2-0.3
				c1.2-0.4,2.3-1.2,2-2.7c-0.2-0.8-0.4-1.7-0.8-2.5c-0.4-0.8-0.9-1.6-1.7-2.1c-0.6-0.3-1.1-0.8-1.4-1.4c-0.6-1.2-2.3-1.8-3.4-0.3
				c-0.2,0.3-0.5,0.7-0.8,0.8c-1.8,0.8-2.4,2.3-2.7,4c-0.2,1.3,0.4,2.2,1.4,2.8c0.5,0.3,1,0.6,1.6,1c0,0.2-0.1,0.4-0.1,0.6
				c-0.2,0.7-0.4,1.4-0.5,2.1c-0.3,1.7,0.3,2.2,2,1.9c0.2,0,0.4-0.1,0.7-0.2c0.2,0,0.4-0.1,0.5-0.1c0.5,0,1.1,0,1.6-0.1
				c0.9-0.2,1.3-0.8,0.9-1.7C127.4,112.7,127.2,112.1,126.9,111.4z M150.9,127.5c-0.3,0.1-0.5,0.2-0.7,0.3c-1.3,0.9-2,2.3-2.8,3.6
				c-0.6,1.1-1.1,2.2-1.1,3.5c-0.1,1.6,1,3.1,2.6,3.6c0.3,0.1,0.7,0.1,1,0c0.8-0.3,1.6-0.7,2.3-1.2c0.8-0.5,1.4-1.2,2.1-1.7
				c1-0.8,1.9-1.8,2.5-2.9c0.2-0.4,0.5-0.8,0.7-1.3c0.2-0.4,0.1-0.9-0.2-1c-0.5-0.2-0.5,0.2-0.7,0.5c-0.6,1.2-1.2,2.4-2.2,3.2
				c-1.2,0.9-2.3,1.8-3.5,2.7c-0.4,0.3-0.8,0.5-1.2,0.6c-0.3,0.1-0.7,0.1-0.9,0c-0.9-0.3-1.8-1.5-1.7-2.5c0.1-0.8,0.3-1.6,0.6-2.3
				c0.5-1,1.1-2,1.7-2.9c0.3-0.5,0.8-0.9,1.2-1.2C151,128.3,151.1,128.1,150.9,127.5z M165,79.1c-1.3,0-2.4,0.5-3.5,1.1
				c-0.3,0.1-0.5,0.4-0.3,0.7c0.1,0.3,0.4,0.3,0.7,0.2c0.3-0.1,0.6-0.3,0.9-0.4c1.3-0.6,2.5-0.7,3.8-0.1c0.3,0.1,0.7,0.2,0.8-0.2
				c0.2-0.4-0.1-0.7-0.5-0.8C166.3,79.4,165.6,79.2,165,79.1z"/>
            <path class="st2" d="M100,98.1c1,0.5,1.8,0.7,2.5,0.1c0.6-0.5,1.1-1,1.3-1.8c0.4-1.6,0.3-3.2-0.3-4.7c-0.4-0.9-0.6-1.9-1.6-2.3
				c0.3-0.9,0.9-1.5,1.7-2c2.4-1.3,5-1.5,7.5-0.5c1.6,0.6,3,1.7,3.7,3.5c1.1,3.1,1.3,6.1-0.1,9.1c-1,2.2-2.4,4-4.7,4.9
				c-0.2,0.1-0.5,0.2-0.7,0.2c-1.2,0-2.3,0.1-3.5,0c-1.3-0.1-2.3-0.8-3.1-1.8c-1-1.2-1.9-2.6-2.5-4.1
				C100.1,98.6,100.1,98.4,100,98.1z"/>
            <path class="st2" d="M109.4,121.1c-1.2,0.6-2.3,1-3.3,1.5c-0.6,0.3-1.2,0.4-1.8,0.8c-0.4,0.2-0.8,0.3-1.2,0.1
				c-0.7-0.3-1.5-0.6-2-1.1c-1.2-1-2.4-2-3.2-3.4c-0.3-0.6-0.6-1.2-0.8-1.8c-0.4-1.2,0.3-2.1,1.5-2.4c1.1-0.2,2.1,0,3.1,0.3
				c0.4,0.1,0.7,0.3,1.1,0.4c1.1,0.3,2,0.7,2.7,1.8c0.8,1.2,2.1,2.1,3.1,3.2C108.8,120.6,109,120.8,109.4,121.1z"/>
            <path class="st2" d="M99.2,150.7c-1.8,0.8-3.6,1.1-5.5,0.7c-0.8-0.2-1.5-0.4-2.2-0.6c-1.4-0.4-2.4-1.4-3.2-2.5
				c-0.7-0.9-0.7-2-0.2-3c0.4-0.9,1.3-1.2,2.2-1.5c0.6-0.1,1.2-0.2,1.7-0.1c1.2,0.2,2.3,0.5,3.5,0.7c0.4,0.1,0.6,0.4,0.8,0.7
				c0.7,1.4,1.4,2.7,2.1,4.1C98.5,149.7,98.8,150.2,99.2,150.7z"/>
            <path class="st2" d="M129,70.6c-0.6,0.2-1.1,0.5-1.6,0.7c-0.7,0.3-1.4,0.5-2.1,0.8c-0.5,0.2-0.9,0.1-1.2-0.3
				c-0.3-0.5-0.6-1-0.8-1.5c-0.3-0.9,0.1-1.4,1-1.6c0.9-0.2,1.7,0.1,2.5,0.4C127.7,69.3,128.4,69.8,129,70.6z"/>
            <path class="st2" d="M25.2,156.1c-1.8-5.7-2.4-11.6-3.8-17.4c0.3-0.1,0.5-0.2,0.8-0.3c2.3-0.7,4.7-1.3,7-2c1.5-0.4,3-0.8,4.5-1.2
				c0.3-0.1,0.7-0.2,1-0.3c1.4-0.3,2.7-0.6,4.1-1c2.3-0.6,4.7-1.3,7-2c1.5-0.4,3.1-0.7,4.6-1.1c2.9-0.8,5.8-1.7,8.7-2.5
				c0.3-0.1,0.6-0.2,0.9-0.2c0.4,0.8,3.8,14.5,4.2,16.8c-1.5,0.7-3.2,1.1-4.8,1.5c-2,0.6-4,1.3-6,1.9c-0.8,0.2-1.6,0.5-2.3,0.7
				c-3,0.8-6.1,1.6-9.1,2.4c-1.8,0.5-3.5,0.9-5.3,1.3c-2.3,0.6-4.6,1.2-6.9,1.9c-1.3,0.4-2.7,0.8-4,1.2
				C25.7,156,25.5,156.1,25.2,156.1z M38.9,140.7C38.9,140.7,38.9,140.7,38.9,140.7c0.1,1.1,0.3,2.2,0.5,3.3
				c0.2,0.8,0.3,1.6,0.6,2.5c0.2,0.6,0.4,0.8,1,0.6c0.9-0.3,1.7-0.5,2.6-0.8c0.8-0.3,1.7-0.7,2.5-1c0.4-0.1,0.5-0.4,0.5-0.7
				c0-0.3,0-0.6-0.1-0.9c-0.4-1.6-0.9-3.3-1.3-4.9c-0.2-0.6-0.4-0.6-1-0.5c-1.5,0.4-3.1,0.8-4.6,1.2c-0.4,0.1-0.6,0.3-0.7,0.7
				C38.9,140.2,38.9,140.5,38.9,140.7z M38.2,145.3c0-0.4,0-0.7,0-1.1c-0.2-1.9-0.4-3.8-1.8-5.3c-1.5-1.7-3.9-2.3-5.9-1.1
				c-1.7,1.1-3.3,2.4-4.3,4.3c-1.1,2.1-0.8,5.9,1.2,7.9c0.6,0.6,1.1,1.2,1.9,1.5c2.3,0.8,4.4,0.8,6.5-0.7c0.9-0.6,1.5-1.3,1.9-2.3
				C38.2,147.5,38.2,146.4,38.2,145.3z M54,132.7c-1-0.2-2,0.2-2.9,0.9c-0.2,0.2-0.5,0.4-0.8,0.5c-1.8,1-2.6,2.7-2.8,4.6
				c-0.3,2.2,0.4,4.2,1.7,5.9c0.9,1.2,2.1,2.1,3.7,2.2c2,0,3.8-0.3,5.2-1.9c1.4-1.6,2.2-3.3,2.5-5.3c0.2-1.1-0.2-2.1-0.6-3.1
				c-0.8-2.3-2.5-3.9-5.1-3.8C54.7,132.7,54.5,132.7,54,132.7z"/>
            <path class="st2" d="M21.4,137.7c-0.4-3.6-0.7-7.1-1.1-10.7c1-0.2,2.1-0.4,3.1-0.7c1.1-0.3,2.2-0.7,3.2-1c1.5-0.5,3-1,4.5-1.4
				c3.3-0.9,6.5-1.7,9.8-2.5c3.4-0.8,6.8-1.5,10.2-2.3c1.6-0.4,3.2-0.8,4.8-1.2c0.6-0.1,1.2-0.1,1.8-0.2c1.1,3.1,1.8,6.1,2.1,9.4
				c-0.6,0.2-1.2,0.5-1.7,0.6c-1.8,0.5-3.5,1.1-5.3,1.6c-1.4,0.4-2.9,0.7-4.3,1.1c-1.6,0.4-3.2,0.8-4.8,1.3
				c-2.8,0.7-5.6,1.4-8.4,2.2c-1.9,0.5-3.8,1-5.7,1.6c-2.2,0.6-4.3,1.3-6.5,1.9C22.6,137.5,22,137.6,21.4,137.7z M48.5,127.7
				c-0.4-0.9-0.7-1.8-1-2.7c-0.2-0.5-0.4-0.9-0.4-1.5c0-0.8-0.4-1.1-1.2-0.9c-0.9,0.2-1.8,0.4-2.6,0.7c-1.2,0.3-2.4,0.6-3.6,0.9
				c-1.7,0.4-3.4,0.8-5.1,1.2c-1.5,0.4-3,0.7-4.5,1c-0.6,0.1-0.7,0.5-0.6,1c0.2,1.2,0.4,2.5,0.6,3.7c0.1,0.5,0.3,0.9,0.6,1.3
				c0.7-0.2,1.4-0.4,2-0.6c4-0.9,8-1.8,12-2.8C46,128.9,47.2,128.4,48.5,127.7z M53.3,128c1.1,0,1.9-0.2,2.4-1c0.3-0.5,0.8-1,1-1.6
				c0.2-0.5,0.4-1.1,0.3-1.6c-0.2-1.2-0.6-2.4-1.6-3.2c-1.1-0.9-1.6-1-2.8-0.2c-0.1,0.1-0.2,0.1-0.3,0.1c-0.7,0.2-1.2,0.7-1.7,1.3
				c-1.5,1.8-1.1,3.7,0.2,5.4c0.2,0.2,0.5,0.4,0.8,0.5C52.3,127.8,52.9,127.9,53.3,128z M28.1,132.4c-0.1-1.2-0.3-2.1-0.9-2.9
				c-0.1-0.2-0.3-0.4-0.5-0.4c-0.6-0.2-1.2-0.3-1.8-0.4c-0.6-0.1-1.1,0.1-1.5,0.5c-0.8,0.7-1.3,1.6-1.6,2.7
				c-0.2,0.7-0.1,1.4,0.3,1.9c0.6,1,1.5,1.7,2.7,1.8c1.6,0.1,2.6-0.4,3.1-1.9C28,133.2,28,132.7,28.1,132.4z"/>
            <path class="st2" d="M16.2,128.9c1-0.5,2.1-1,3.2-1.5c0.2,1.1,0.4,2,0.5,3c0.2,2.2,0.3,4.5,0.4,6.7c0,0.6,0.2,1.2,0.4,1.8
				c0.3,1,0.4,2,0.6,3c0.3,1.4,0.7,2.8,1,4.1c0.2,0.9,0.3,1.8,0.5,2.8c0.3,1.6,0.7,3.3,1,4.9c0.1,0.7,0.3,1.4,0.5,2.3
				c-0.4-0.1-0.6-0.2-0.8-0.3c-0.8-0.4-1.5-0.8-2.3-1.1c-0.3-0.2-0.5-0.4-0.6-0.7c-0.6-2.3-1.3-4.7-1.9-7c-0.5-2-0.9-4.1-1.3-6.1
				c-0.4-1.7-0.7-3.4-1.1-5.1c-0.1-0.7-0.1-1.4-0.1-2.1C16.2,132,16.2,130.5,16.2,128.9z"/>
            <path class="st2" d="M25.5,120.1c5.9-1.2,11.8-2.5,17.7-3.7c0.3,1.1,0.6,2.1,0.8,3.2c-5.8,1.6-11.7,2.8-17.5,4.6
				C26,122.9,26,121.5,25.5,120.1z"/>
            <path class="st2" d="M43,115c-0.2,0.2-0.4,0.4-0.5,0.4c-0.8,0.2-1.6,0.4-2.5,0.6c-0.4,0.1-0.9,0.2-1.3,0.3c-2,0.4-4,0.9-6.1,1.3
				c-2.2,0.5-4.4,0.9-6.6,1.4c-0.2,0-0.4,0-0.7,0c0.2-0.2,0.3-0.4,0.5-0.5c1.7-0.5,3.4-1.2,5.1-1.6c2.4-0.6,4.8-1.1,7.2-1.5
				c1.5-0.3,3.1-0.4,4.6-0.6C42.7,114.8,42.8,114.9,43,115z"/>
            <path class="st2" d="M25.5,124.4c-0.1,0.1-0.2,0.1-0.3,0.2c-0.1,0.1-0.2,0.1-0.3,0.1c-0.4-0.1-1-2.5-1.3-5.2
				c1-0.5,1.2-0.4,1.3,0.6C25.1,121.6,25.3,123,25.5,124.4z"/>
            <path class="st2" d="M43.9,114.7c0.5-0.1,0.7,0,0.8,0.5c0.3,1.3,0.7,2.6,1.1,4c-0.3,0.1-0.5,0.2-0.8,0.3
				C44.4,118.2,43.8,115.5,43.9,114.7z"/>
            <path d="M135.8,100.3c0.3-3.1,1.4-6.2,3.9-8.5c1.2-1.1,2.6-1.7,4.2-1.9c1.8-0.2,3.5-0.2,5.3,0.2c0.3,0.1,0.6,0.1,0.9,0.1
				c1.7,0,2.8,1,3.6,2.3c0.6,0.9,1,1.9,1.4,2.9c0.9,2.1,1.2,4.3,0.9,6.6c-0.4,2.4-1.4,4.6-3.1,6.4c-0.8,0.8-1.6,1.4-2.6,1.9
				c-1,0.5-2.1,0.6-3.1,0.7c-2.9,0.2-5.6-0.5-7.8-2.6c-1.6-1.5-2.9-3.4-3.3-5.7C135.9,102,135.9,101.3,135.8,100.3z M146.4,90.7
				c-0.4,0-0.7,0-0.9,0c-2.4-0.1-4.4,0.8-6,2.6c-1.1,1.3-1.8,2.8-2.3,4.4c-1,3-0.8,5.8,1.1,8.4c0.7,0.9,1.4,1.8,2.5,2.4
				c1.6,1,3.4,1.5,5.2,1.6c1.5,0,3-0.2,4.4-1c1-0.6,1.7-1.5,2.4-2.4c1.4-1.8,2.2-3.8,2.3-6c0.1-1.3,0-2.6-0.5-3.8
				c-0.2-0.5-0.4-1-0.5-1.5c-0.3-1-0.7-1.9-1.4-2.7c-0.7-0.8-1.5-1.5-2.6-1.5c-0.3,0-0.6,0-0.9-0.1
				C148.2,90.5,147.2,90.7,146.4,90.7z"/>
            <path d="M126.9,111.4c0.2,0.7,0.4,1.3,0.7,1.9c0.3,0.9,0,1.6-0.9,1.7c-0.5,0.1-1.1,0.1-1.6,0.1c-0.2,0-0.4,0.1-0.5,0.1
				c-0.2,0.1-0.4,0.1-0.7,0.2c-1.7,0.3-2.2-0.2-2-1.9c0.1-0.7,0.3-1.4,0.5-2.1c0.1-0.2,0.1-0.4,0.1-0.6c-0.6-0.3-1.1-0.6-1.6-1
				c-1-0.6-1.6-1.5-1.4-2.8c0.3-1.7,0.9-3.2,2.7-4c0.3-0.1,0.6-0.5,0.8-0.8c1.1-1.6,2.8-0.9,3.4,0.3c0.3,0.6,0.8,1.1,1.4,1.4
				c0.8,0.5,1.3,1.3,1.7,2.1c0.4,0.8,0.6,1.7,0.8,2.5c0.3,1.5-0.8,2.3-2,2.7C127.8,111.2,127.4,111.3,126.9,111.4z M123.7,103.9
				c-0.1,0-0.3,0-0.5,0c-1.1-0.1-1.8,0.4-2.3,1.3c-0.3,0.5-0.4,1.1-0.6,1.6c-0.3,0.8,0,1.4,0.6,2c1.2,0.9,2.5,1.6,3.9,1.7
				c1.2,0.1,2.3,0,3.4-0.5c1.1-0.5,1.4-1.1,1-2.2c-0.1-0.2-0.1-0.5-0.2-0.7c-0.7-1.6-1.7-2.8-3.6-3
				C124.8,104,124.3,103.9,123.7,103.9z M122.4,114.3c1.4,0.3,1.7,0.1,1.7-1.1c0-0.6,0-1.3,0-2c-0.4,0-0.7-0.1-1-0.1
				C122.9,112.2,122.7,113.2,122.4,114.3z M125,111.4c0,1-0.3,1.9,0.3,2.8c0.6,0,1.2,0,1.6-0.6c-0.2-0.6-0.5-1.2-0.7-1.8
				C125.9,111.3,125.6,111.3,125,111.4z M125.5,103c-0.9-1.1-1.3-1.1-2-0.1C124.1,102.9,124.8,103,125.5,103z"/>
            <path d="M150.9,127.5c0.2,0.6,0,0.8-0.2,1c-0.4,0.4-0.9,0.8-1.2,1.2c-0.6,0.9-1.3,1.9-1.7,2.9c-0.3,0.7-0.5,1.5-0.6,2.3
				c-0.1,1,0.7,2.2,1.7,2.5c0.3,0.1,0.6,0.1,0.9,0c0.4-0.1,0.9-0.3,1.2-0.6c1.2-0.9,2.4-1.8,3.5-2.7c1.1-0.9,1.7-2,2.2-3.2
				c0.1-0.3,0.2-0.7,0.7-0.5c0.4,0.1,0.5,0.6,0.2,1c-0.2,0.4-0.5,0.8-0.7,1.3c-0.7,1.1-1.5,2.1-2.5,2.9c-0.7,0.6-1.4,1.2-2.1,1.7
				c-0.7,0.5-1.5,0.9-2.3,1.2c-0.3,0.1-0.7,0.1-1,0c-1.6-0.5-2.7-2-2.6-3.6c0.1-1.3,0.5-2.4,1.1-3.5c0.8-1.3,1.5-2.7,2.8-3.6
				C150.4,127.7,150.6,127.6,150.9,127.5z"/>
            <path d="M165,79.1c0.6,0.2,1.3,0.3,1.9,0.5c0.3,0.1,0.7,0.3,0.5,0.8c-0.2,0.4-0.5,0.3-0.8,0.2c-1.3-0.5-2.6-0.5-3.8,0.1
				c-0.3,0.1-0.6,0.3-0.9,0.4c-0.3,0.1-0.6,0.1-0.7-0.2c-0.1-0.3,0.1-0.6,0.3-0.7C162.6,79.6,163.7,79,165,79.1z"/>
            <path d="M38.9,140.7c0-0.2,0-0.5,0-0.7c0-0.4,0.2-0.6,0.7-0.7c1.5-0.3,3.1-0.8,4.6-1.2c0.6-0.2,0.9-0.1,1,0.5
				c0.5,1.6,0.9,3.2,1.3,4.9c0.1,0.3,0.1,0.6,0.1,0.9c0,0.4-0.1,0.6-0.5,0.7c-0.8,0.3-1.7,0.7-2.5,1c-0.8,0.3-1.7,0.5-2.6,0.8
				c-0.6,0.2-0.9,0.1-1-0.6c-0.2-0.8-0.4-1.6-0.6-2.5C39.2,142.9,39.1,141.8,38.9,140.7C38.9,140.7,38.9,140.7,38.9,140.7z"/>
            <path d="M38.2,145.3c0,1.1,0,2.2-0.4,3.2c-0.4,0.9-1,1.7-1.9,2.3c-2.1,1.5-4.2,1.5-6.5,0.7c-0.8-0.3-1.3-0.9-1.9-1.5
				c-2-2-2.3-5.8-1.2-7.9c1-2,2.6-3.2,4.3-4.3c2-1.2,4.3-0.6,5.9,1.1c1.4,1.5,1.6,3.4,1.8,5.3C38.2,144.6,38.2,145,38.2,145.3z
				 M32.1,151.3c0.6-0.2,1.4-0.2,1.9-0.5c2.1-1.1,3.3-2.4,3.1-4.9c-0.1-0.9-0.1-1.9,0-2.8c0-1.7-0.6-3.1-1.9-4
				c-0.9-0.6-1.9-1-3.1-0.7c-2.4,0.6-4,2.1-5.2,4.2C25.1,145.8,27.1,151.3,32.1,151.3z"/>
            <path d="M54,132.7c0.5,0,0.7,0,1,0c2.6-0.1,4.4,1.6,5.1,3.8c0.3,1,0.8,2,0.6,3.1c-0.4,2-1.1,3.8-2.5,5.3
				c-1.5,1.6-3.3,1.9-5.2,1.9c-1.6,0-2.8-0.9-3.7-2.2c-1.3-1.7-2-3.8-1.7-5.9c0.2-1.9,1-3.6,2.8-4.6c0.3-0.2,0.6-0.3,0.8-0.5
				C52,132.9,53,132.5,54,132.7z M54.7,133.7c-1.4-0.2-2.6,0.1-3.6,0.8c-0.2,0.2-0.4,0.3-0.7,0.4c-1.6,1.2-2.4,2.7-2.3,4.7
				c0.1,1.7,0.8,3.1,1.6,4.5c0.7,1.1,1.7,1.7,2.9,1.8c1.7,0.2,3.2-0.2,4.5-1.5c1.5-1.4,2.1-3.2,2.5-5.1c0.3-1-0.4-1.9-0.6-2.8
				c0-0.1-0.1-0.2-0.1-0.3c-0.6-1.6-1.9-2.5-3.6-2.6C55.2,133.7,54.9,133.7,54.7,133.7z"/>
            <path d="M48.5,127.7c-1.3,0.7-2.5,1.2-3.8,1.5c-4,1-8,1.9-12,2.8c-0.7,0.2-1.4,0.4-2,0.6c-0.4-0.4-0.6-0.8-0.6-1.3
				c-0.1-1.2-0.3-2.5-0.6-3.7c-0.1-0.5,0-0.9,0.6-1c1.5-0.4,3-0.7,4.5-1c1.7-0.4,3.4-0.8,5.1-1.2c1.2-0.3,2.4-0.6,3.6-0.9
				c0.9-0.2,1.8-0.5,2.6-0.7c0.8-0.2,1.2,0.1,1.2,0.9c0,0.6,0.2,1,0.4,1.5C47.8,126,48.1,126.8,48.5,127.7z M43.5,128.6
				c-0.1-0.7-0.2-1.3-0.3-1.9c-0.7,0.2-1.4,0.4-2.1,0.6c0.2,0.6,0.1,1.3,0.7,1.7C42.4,128.9,42.9,128.8,43.5,128.6z M30.5,127.4
				c0.1,0.5,0.1,1,0.2,1.6c0.7-0.2,1.3-0.3,1.8-0.4c0-0.6,0.3-1.2-0.1-1.7C31.8,127.1,31.2,127.2,30.5,127.4z M38.1,130.1
				c-0.1-0.7-0.2-1.2-0.2-1.9c-0.7,0.1-1.2,0.3-1.8,0.4c0.1,0.6,0.2,1.2,0.3,1.8C37,130.2,37.5,130.2,38.1,130.1z M40.6,129.4
				c0-0.7,0-1.3-0.4-1.9c-0.5,0.2-1,0.3-1.5,0.5c0.1,0.7,0.3,1.2,0.4,1.8C39.6,129.6,40,129.5,40.6,129.4z M40.7,124.7
				c0,0.5,0.1,1,0.1,1.6c0.8-0.3,1.4-0.5,2.2-0.7c-0.2-0.5-0.3-0.8-0.5-1.3C41.9,124.5,41.3,124.6,40.7,124.7z M33.8,130.9
				c0.6-0.1,1.1-0.2,1.7-0.4c-0.1-0.6-0.1-1.1-0.2-1.7c-0.7,0.2-1.2,0.4-1.8,0.6C33.6,129.9,33.7,130.3,33.8,130.9z M35.8,126
				c-0.1,0.6-0.2,1,0.2,1.5c0.6-0.1,1.1-0.3,1.7-0.4c-0.1-0.5-0.2-0.9-0.3-1.4C36.8,125.8,36.4,125.9,35.8,126z M33.4,128.3
				c0.6-0.2,1.1-0.4,1.7-0.6c0-0.5,0-0.9-0.1-1.4c-0.6,0.1-1.1,0.3-1.6,0.4C33.4,127.2,33.4,127.7,33.4,128.3z M38.4,126.8
				c0.6-0.1,1.1-0.2,1.5-0.3c0-0.5,0-0.9,0-1.4c-0.6,0.1-1.2,0.3-1.8,0.4C38.2,125.9,38.3,126.2,38.4,126.8z M31.2,131.4
				c0.6-0.1,1.1-0.2,1.7-0.3c-0.1-0.5-0.2-0.9-0.4-1.4c-0.6,0.2-1.1,0.3-1.7,0.5C31,130.6,31.1,131,31.2,131.4z M46.7,125.7
				c-0.4,0.1-0.7,0.2-1,0.3c0.1,0.6,0.3,1.1,0.4,1.8c0.4-0.1,0.8-0.3,1.1-0.4C47,126.8,46.9,126.3,46.7,125.7z M44.8,128.3
				c0.1-0.1,0.2-0.2,0.2-0.2c-0.1-0.5-0.1-1.1-0.2-1.6c-0.1-0.3-0.4-0.2-0.7,0C44.2,127.1,44.3,127.8,44.8,128.3z M43.7,125.3
				c0.9-0.2,0.9-0.3,0.6-1.4c-0.2,0.1-0.5,0.1-0.7,0.2C43.7,124.5,43.7,124.9,43.7,125.3z M45.2,123.7c0.1,0.4,0.2,0.8,0.3,1.1
				c0.5-0.1,0.9-0.2,0.7-0.8C46.1,123.7,45.8,123.4,45.2,123.7z"/>
            <path d="M53.3,128c-0.4-0.1-1.1-0.2-1.6-0.4c-0.3-0.1-0.6-0.3-0.8-0.5c-1.3-1.7-1.7-3.6-0.2-5.4c0.5-0.5,0.9-1.1,1.7-1.3
				c0.1,0,0.2-0.1,0.3-0.1c1.2-0.8,1.8-0.7,2.8,0.2c1,0.9,1.5,2,1.6,3.2c0.1,0.5-0.1,1.1-0.3,1.6c-0.3,0.6-0.7,1.1-1,1.6
				C55.2,127.9,54.4,128,53.3,128z M53.4,127C53.4,127.1,53.4,127.1,53.4,127c0.4,0,0.7-0.1,1-0.2c1.6-1,2.2-3.3,1.2-4.9
				c-0.3-0.5-0.8-1-1.5-0.9c-1.2,0.2-2.3,0.7-3,1.8c-0.7,1-0.6,2-0.2,3c0.4,1,1.3,1.1,2.1,1.2C53.1,127,53.3,127,53.4,127z"/>
            <path d="M28.1,132.4c-0.1,0.3-0.1,0.9-0.3,1.3c-0.5,1.4-1.5,2-3.1,1.9c-1.2-0.1-2.1-0.9-2.7-1.8c-0.4-0.6-0.5-1.2-0.3-1.9
				c0.3-1.1,0.8-2,1.6-2.7c0.4-0.4,0.9-0.6,1.5-0.5c0.6,0.1,1.2,0.2,1.8,0.4c0.2,0.1,0.4,0.3,0.5,0.4
				C27.8,130.3,28,131.2,28.1,132.4z M24.9,134.5c1.5,0.1,2.4-0.7,2.5-2.1c0-1.8-1-2.9-2.7-2.9c-1,0-2.3,1.4-2.3,2.6
				C22.3,133.2,23.6,134.5,24.9,134.5z"/>
            <path class="st2" d="M146.4,90.7c0.8,0,1.9-0.1,2.8,0.3c0.3,0.1,0.6,0.1,0.9,0.1c1.2,0,1.9,0.7,2.6,1.5c0.7,0.8,1.1,1.7,1.4,2.7
				c0.1,0.5,0.3,1,0.5,1.5c0.6,1.2,0.6,2.5,0.5,3.8c-0.2,2.3-0.9,4.3-2.3,6c-0.7,0.9-1.4,1.8-2.4,2.4c-1.4,0.8-2.9,1-4.4,1
				c-1.9,0-3.6-0.6-5.2-1.6c-1-0.6-1.8-1.5-2.5-2.4c-1.9-2.6-2.1-5.4-1.1-8.4c0.5-1.6,1.1-3.1,2.3-4.4c1.6-1.8,3.6-2.7,6-2.6
				C145.7,90.7,145.9,90.7,146.4,90.7z M152.4,100.2c-0.2-0.8-0.2-1.6-0.5-2.3c-0.6-1.4-1.8-2.5-3.4-1.6c-0.2,0.1-0.4,0.2-0.5,0.4
				c-1.4,1.4-2,3-1.8,4.9c0.1,1.5,1.2,2.6,2.7,2.8c1.5,0.2,2.7-0.5,3.2-2C152.3,101.7,152.3,101,152.4,100.2z"/>
            <path class="st2" d="M123.7,103.9c0.6,0,1.2,0.1,1.7,0.1c1.9,0.2,2.9,1.3,3.6,3c0.1,0.2,0.2,0.5,0.2,0.7c0.4,1.1,0.1,1.7-1,2.2
				c-1.1,0.5-2.3,0.6-3.4,0.5c-1.5-0.1-2.8-0.8-3.9-1.7c-0.7-0.5-0.9-1.2-0.6-2c0.2-0.5,0.4-1.1,0.6-1.6c0.5-0.9,1.2-1.4,2.3-1.3
				C123.4,103.9,123.5,103.9,123.7,103.9z"/>
            <path class="st2" d="M122.4,114.3c0.3-1.1,0.5-2.1,0.7-3.1c0.4,0,0.6,0.1,1,0.1c0,0.7,0,1.4,0,2
				C124.1,114.4,123.8,114.6,122.4,114.3z"/>
            <path class="st2" d="M125,111.4c0.6-0.2,0.9-0.1,1.1,0.4c0.2,0.6,0.5,1.2,0.7,1.8c-0.4,0.6-1,0.6-1.6,0.6
				C124.8,113.3,125,112.4,125,111.4z"/>
            <path class="st2" d="M125.5,103c-0.7-0.1-1.3-0.1-2-0.1C124.1,101.9,124.6,101.9,125.5,103z"/>
            <path class="st2" d="M32.1,151.3c-5.1,0-7-5.5-5.2-8.8c1.1-2.1,2.8-3.6,5.2-4.2c1.2-0.3,2.2,0.1,3.1,0.7c1.3,1,2,2.3,1.9,4
				c0,0.9,0,1.9,0,2.8c0.2,2.5-1,3.8-3.1,4.9C33.5,151.1,32.8,151.1,32.1,151.3z M36.3,144.8c0-1.5-0.7-2.8-1.5-3.9
				c-0.3-0.4-0.9-0.8-1.4-0.9c-1.9-0.4-3.8,0.5-4.6,2c-0.5,1-0.8,2-0.8,3.1c0,1.6,0.5,3.1,2,4c1.2,0.7,2.4,1,3.7,0.3
				C35.4,148.4,36.3,146.9,36.3,144.8z"/>
            <path class="st2" d="M54.7,133.7c0.1,0,0.4,0,0.7,0c1.7,0.1,3,1,3.6,2.6c0,0.1,0.1,0.2,0.1,0.3c0.3,0.9,0.9,1.7,0.6,2.8
				c-0.5,1.9-1.1,3.7-2.5,5.1c-1.3,1.3-2.8,1.7-4.5,1.5c-1.2-0.1-2.3-0.7-2.9-1.8c-0.8-1.4-1.6-2.9-1.6-4.5
				c-0.1-1.9,0.7-3.5,2.3-4.7c0.2-0.2,0.4-0.3,0.7-0.4C52.1,133.7,53.3,133.5,54.7,133.7z M58.3,139.4c0.1-1.6-0.5-2.7-1.6-3.5
				c-0.3-0.2-0.7-0.4-1-0.7c-0.5-0.5-1-0.5-1.6-0.5c-0.2,0-0.4,0.1-0.6,0.1c-1.1-0.3-1.9,0.3-2.6,0.9c-1.3,1.1-2,2.4-1.9,4.1
				c0.1,1.9,1.2,3.4,2.9,4.2c0.7,0.3,1.5,0.6,2.2,0.5c1.4-0.2,2.7-0.8,3.4-2.2C58,141.3,58.4,140.4,58.3,139.4z"/>
            <path class="st2" d="M43.5,128.6c-0.6,0.1-1.2,0.3-1.8,0.4c-0.5-0.4-0.4-1.1-0.7-1.7c0.8-0.2,1.4-0.4,2.1-0.6
				C43.3,127.4,43.4,128,43.5,128.6z"/>
            <path class="st2" d="M30.5,127.4c0.8-0.2,1.4-0.3,2-0.5c0.4,0.5,0.2,1,0.1,1.7c-0.6,0.1-1.1,0.3-1.8,0.4
				C30.6,128.5,30.5,128,30.5,127.4z"/>
            <path class="st2" d="M38.1,130.1c-0.6,0.1-1.1,0.2-1.7,0.3c-0.1-0.6-0.2-1.1-0.3-1.8c0.6-0.1,1.1-0.2,1.8-0.4
				C37.9,128.8,38,129.4,38.1,130.1z"/>
            <path class="st2" d="M40.6,129.4c-0.5,0.1-0.9,0.3-1.5,0.4c-0.1-0.6-0.3-1.2-0.4-1.8c0.5-0.2,1-0.3,1.5-0.5
				C40.5,128.1,40.6,128.7,40.6,129.4z"/>
            <path class="st2" d="M40.7,124.7c0.6-0.2,1.2-0.3,1.8-0.4c0.2,0.5,0.3,0.8,0.5,1.3c-0.7,0.2-1.4,0.5-2.2,0.7
				C40.8,125.7,40.7,125.3,40.7,124.7z"/>
            <path class="st2" d="M33.8,130.9c-0.1-0.6-0.2-1-0.4-1.5c0.6-0.2,1.1-0.4,1.8-0.6c0.1,0.6,0.1,1.1,0.2,1.7
				C34.9,130.6,34.4,130.7,33.8,130.9z"/>
            <path class="st2" d="M35.8,126c0.5-0.1,1-0.2,1.6-0.4c0.1,0.5,0.2,0.9,0.3,1.4c-0.6,0.2-1.2,0.3-1.7,0.4
				C35.6,127.1,35.7,126.6,35.8,126z"/>
            <path class="st2"
                  d="M33.4,128.3c0-0.6,0-1.1,0-1.7c0.5-0.1,1-0.2,1.6-0.4c0,0.5,0,1,0.1,1.4C34.5,127.9,34,128.1,33.4,128.3z"/>
            <path class="st2" d="M38.4,126.8c-0.1-0.5-0.2-0.9-0.3-1.4c0.6-0.1,1.2-0.2,1.8-0.4c0,0.5,0,0.9,0,1.4
				C39.5,126.5,39,126.6,38.4,126.8z"/>
            <path class="st2" d="M31.2,131.4c-0.1-0.4-0.2-0.8-0.4-1.3c0.6-0.2,1.1-0.3,1.7-0.5c0.1,0.5,0.2,0.9,0.4,1.4
				C32.4,131.2,31.9,131.3,31.2,131.4z"/>
            <path class="st2" d="M46.7,125.7c0.2,0.6,0.3,1.1,0.5,1.7c-0.4,0.1-0.7,0.2-1.1,0.4c-0.2-0.6-0.3-1.1-0.4-1.8
				C46,125.9,46.3,125.8,46.7,125.7z"/>
            <path class="st2" d="M44.8,128.3c-0.5-0.5-0.6-1.2-0.7-1.8c0.3-0.2,0.6-0.3,0.7,0c0.2,0.5,0.2,1.1,0.2,1.6
				C45,128.1,44.9,128.2,44.8,128.3z"/>
            <path class="st2"
                  d="M43.7,125.3c0-0.4-0.1-0.8-0.1-1.3c0.2-0.1,0.5-0.1,0.7-0.2C44.7,125,44.6,125.1,43.7,125.3z"/>
            <path class="st2"
                  d="M45.2,123.7c0.6-0.3,0.9-0.1,1,0.4c0.2,0.5-0.2,0.7-0.7,0.8C45.4,124.5,45.3,124.1,45.2,123.7z"/>
            <path class="st2" d="M53.4,127c-0.1,0-0.3,0-0.4,0c-0.9-0.2-1.7-0.2-2.1-1.2c-0.4-1.1-0.5-2.1,0.2-3c0.8-1,1.8-1.6,3-1.8
				c0.7-0.1,1.1,0.4,1.5,0.9c1,1.6,0.5,3.9-1.2,4.9C54.1,127,53.7,127,53.4,127C53.4,127.1,53.4,127.1,53.4,127z M54.7,124.1
				c0-1-0.8-1.9-1.8-1.8c-0.5,0-1.3,1.2-1.3,1.9c0,0.7,0.8,1.5,1.5,1.5C53.9,125.7,54.7,124.9,54.7,124.1z"/>
            <path class="st2" d="M24.9,134.5c-1.3,0-2.6-1.3-2.6-2.4c0.1-1.2,1.4-2.6,2.3-2.6c1.7,0,2.7,1.2,2.7,2.9
				C27.3,133.8,26.4,134.6,24.9,134.5z M26.5,132.3c-0.1-0.6-0.2-1.2-0.7-1.6c-0.9-0.8-1.7-0.5-2,0.5c-0.2,0.4-0.1,1-0.1,1.4
				c0.1,0.8,0.8,1.4,1.5,1.3C26,133.8,26.5,133.2,26.5,132.3z"/>
            <path d="M152.4,100.2c-0.1,0.7-0.2,1.5-0.4,2.3c-0.5,1.5-1.7,2.2-3.2,2c-1.5-0.2-2.5-1.3-2.7-2.8c-0.2-1.9,0.5-3.6,1.8-4.9
				c0.2-0.2,0.3-0.3,0.5-0.4c1.6-1,2.8,0.2,3.4,1.6C152.3,98.6,152.3,99.4,152.4,100.2z"/>
            <path d="M36.3,144.8c-0.1,2-0.9,3.6-2.7,4.6c-1.3,0.6-2.5,0.4-3.7-0.3c-1.4-0.9-2-2.4-2-4c0-1.1,0.3-2.1,0.8-3.1
				c0.8-1.5,2.7-2.4,4.6-2c0.5,0.1,1.1,0.5,1.4,0.9C35.7,142.1,36.4,143.3,36.3,144.8z"/>
            <path d="M58.3,139.4c0.1,1-0.3,1.9-0.8,2.9c-0.7,1.4-2,2-3.4,2.2c-0.7,0.1-1.6-0.1-2.2-0.5c-1.7-0.9-2.8-2.3-2.9-4.2
				c-0.1-1.6,0.6-3,1.9-4.1c0.8-0.6,1.5-1.2,2.6-0.9c0.2,0,0.4-0.1,0.6-0.1c0.6,0,1.1,0,1.6,0.5c0.3,0.3,0.6,0.4,1,0.7
				C57.8,136.7,58.4,137.9,58.3,139.4z"/>
            <path d="M54.7,124.1c0,0.8-0.8,1.6-1.5,1.6c-0.7,0-1.5-0.8-1.5-1.5c0-0.7,0.8-1.9,1.3-1.9C53.8,122.2,54.7,123.1,54.7,124.1z"/>
            <path d="M26.5,132.3c0,0.8-0.5,1.5-1.2,1.6c-0.8,0.1-1.4-0.4-1.5-1.3c-0.1-0.5-0.1-1,0.1-1.4c0.4-1,1.1-1.3,2-0.5
				C26.4,131.1,26.5,131.8,26.5,132.3z"/>
		</g>
	</g>
</g>
    <g id="Ebene_3" class="st0">
	<g class="st1">
		<g>
			<path class="st2" d="M-114-29c144.3,0,288.7,0,433,0c0,103,0,206,0,309c-144.3,0-288.7,0-433,0C-114,177-114,74-114-29z
				 M92.9,180.8c-0.1,0.7-0.1,1.3-0.2,1.8c0,0.3-0.1,0.7,0,1c0.3,1.2,0.7,2.4,1.6,3.3c0.9,1,1.9,2.1,3.4,1.9
				c1.1-0.1,2.2-0.5,3.1-1.2c2-1.5,4-3.1,5.8-4.9c0.3-0.3,0.8-0.6,1.1-1c0.6-0.9,1.6-1.1,2.5-1.3c2.3-0.5,4.7-1,7.1-1.5
				c0.4-0.1,0.9-0.2,1.3-0.4c1-0.5,2-1,3-1.5c3.5-1.5,6.9-3,9.9-5.3c0.5-0.4,1-0.8,1.6-1c1.8-0.7,3.6-1.5,5.5-2.1
				c0.8-0.3,1.4-0.7,1.8-1.3c0.8-1.3,1.6-2.7,2-4.3c0.1-0.6,0.6-1.1,1-1.6c0.1-0.2,0.4-0.4,0.5-0.6c1.3-1.7,2.6-3.4,3.7-5.2
				c1-1.5,1.9-3.2,2.7-4.8c0.8-1.6,1.6-3.2,2.4-4.9c0.3-0.6,0.6-1.1,0.9-1.7c1.1-2.4,2.1-4.8,3.2-7.2c1-2.4,1.7-5,1.8-7.6
				c0-0.2,0-0.5,0-0.7c0.6-2.2,0.8-4.4,1-6.7c0.6-5,1.1-10.1,0.6-15.2c-0.6-5.9-1.5-11.9-2.5-17.7c-0.5-2.7-1.4-5.2-2.4-7.7
				c-0.7-1.7-1.3-3.4-2-5.2c-0.6-1.6-1.3-3.1-2-4.9c0.2-0.2,0.6-0.4,1-0.8c1.4-1.3,2.6-2.8,2.9-4.7c0.3-2,0.3-4.1-0.2-6.1
				c-0.7-2.4-2-4.3-4.2-5.6c-2-1.1-4-1.6-6.3-1.5c-0.6,0-1.2,0-1.6,0c-1-3-1.9-5.7-2.8-8.5c-0.1-0.4-0.2-0.7-0.4-1
				c-2-3.5-4.4-6.6-7.7-9c-0.8-0.6-1.6-1.1-2.4-1.7c-1.5-1.1-3-2.3-4.4-3.5c-1.7-1.4-3.5-2.4-5.5-3.2c-0.4-0.2-0.8-0.3-1.3-0.4
				c-0.6-0.2-1.2-0.3-1.9-0.4c-1.6-0.4-3.3-0.9-5-1.1c-2.2-0.2-4.5-0.2-6.8-0.3c-1,0-1.9,0.1-2.9,0.2c-1.2,0.1-2.5,0.3-3.7,0.5
				c-0.9,0.1-1.7,0.2-2.5,0.4c-1.2,0.4-2.5,0.9-3.7,1.5c-1.2,0.5-2.5,0.7-3.5,1.6c-0.8,0.7-1.8,1.1-2.7,1.8c-1.2,1-2.3,2.1-3.4,3.1
				c-2.8,2.5-5,5.4-6.5,8.8c-0.2,0.4-0.5,0.8-0.8,1c-1.5,1-2.7,2.2-3.7,3.8c-1.4,2.2-1.5,4.5-1,6.9c-1.5,1.2-3.4,2-4.9,3.2
				c-1.5,1.2-3,2.4-4.4,3.7c-2.2,2.1-3.6,4.6-4.5,7.5c-0.3,0.9-0.5,1.8-0.8,2.5c-1.3,0.7-2.4,1.4-3.5,2c-0.6,0.3-1.2,0.8-1.7,0.7
				c-1.3-0.2-2.3,0.4-3.4,1c-1.7,1-2.7,2.5-2.9,4.4c-0.1,0.7,0,1.4,0.2,2c0.5,2.2,1.4,4.1,3.4,5.2c0.3,0.8,0.5,1.6,0.7,2.4
				c0.3,0.8,0.6,1.6,1.1,2.3c0.4,0.6,0.8,1.2,1.4,1.6c0.6,0.5,1.3,0.9,2,1.3c-0.1,4.6,1.6,8.7,3.6,13c-0.5-0.2-0.7-0.3-1-0.4
				c-0.6-0.2-1.2-0.6-1.8-0.7c-1.2-0.3-2.5-0.4-3.5,0.4c-1.6,1.1-2.1,2.7-1.5,4.6c0.5,1.6,1.3,3,2.4,4.2c1.1,1.2,2.4,2.3,3.6,3.4
				c1,0.9,2,1.8,2.9,2.6c-0.9,0.9-1.7,1.8-2.5,2.7c-1,1.2-1.9,2.3-2.7,3.6c-1.1,1.8-2,3.8-2.9,5.7c-0.8,1.8-1.4,3.7-1.4,5.8
				c0,0.5-0.1,1-0.1,1.5c-0.2,2,0,3.9,0.5,5.8c0.4,1.2,0.6,2.5,0.9,3.8c-1-0.5-2-0.8-2.9-1.3c-0.7-0.4-1.4-0.5-2.2-0.6
				c-0.9-0.1-1.7,0.2-2.5,0.3c-1.1,0.2-2.1,0.8-2.8,1.5c-2.1,2-1.4,5.3,0.1,6.7c1.3,1.2,2.7,2.4,4.4,3.2c1.2,0.6,2.4,1.3,3.6,1.9
				c1.9,1,3.8,1.6,6,1.3c0.7-0.1,1.4,0,2.1,0c0.9-0.1,1.4,0.4,2,1c1,1.2,2.1,2.4,3.3,3.4c1.4,1.2,3.1,2.1,4.6,3.2
				c1.4,1.1,3,1.9,4.6,2.8c2.2,1.1,4.4,2.2,6.6,3.3c2.8,1.5,5.7,2.9,8.8,3.7c1.5,0.4,3.1,0.7,4.7,1C91,180.5,91.9,180.6,92.9,180.8z
				 M179.4,76.5c0.2,1.8,0.4,3.4,0.5,4.9c0,0.3-0.3,0.7-0.6,1c-0.8,0.9-1.8,1.6-2.6,2.5c-0.6,0.6-0.3,1.3,0.6,1.4
				c0.6,0.1,1.2-0.1,1.7-0.5c0.5-0.5,1.1-1.1,1.6-1.6c0.7-0.6,1.2-1.3,0.6-2.2c-0.1-0.1,0-0.2,0-0.3c-0.1-1.1-0.1-2.2-0.3-3.4
				c-0.1-0.9-0.2-1.9-0.4-2.8c-0.2-0.7-0.5-0.8-1-0.7c-2.1,0.6-4.3,1.2-6.4,1.7c-1.4,0.4-1.7,0.8-1.3,2.2c0.4,1.7,0.9,3.4,0.6,5.2
				c-0.1,0.5-0.2,0.7-0.6,0.9c-0.6,0.3-1.3,0.5-1.8,0.9c-0.5,0.4-1,0.9-1.4,1.4c-0.4,0.5,0,1.5,0.7,1.6c0.7,0.1,1.5,0.2,2.2-0.3
				c0.8-0.6,1.7-1.3,2.5-1.9c0.2-0.2,0.3-0.5,0.3-0.8c-0.2-1.8-0.4-3.5-0.7-5.3c-0.1-0.6-0.3-1.1-0.4-1.7c-0.1-0.5,0.1-0.9,0.7-1
				C175.5,77.4,177.4,77,179.4,76.5z M58.9,26c0.1,0.4,0.3,0.7,0.3,1.1c0.1,0.7,0.1,1.4,0.1,2.1c0.1,1.7,0.1,1.7-1.3,2.6
				c-0.1,0.1-0.2,0.1-0.3,0.2c-0.5,0.5-1.1,1-1.5,1.5c-0.3,0.4-0.5,0.9-0.2,1.4c0.3,0.5,0.8,0.5,1.3,0.3c0.1,0,0.2-0.1,0.3-0.1
				c1.3-0.5,2.2-1.6,3.1-2.6c0.2-0.2,0.2-0.7,0.1-1.1c-0.1-0.7-0.2-1.5-0.3-2.2c-0.1-1.4-0.2-2.8-0.4-4.1c-0.1-0.5-0.3-0.7-0.9-0.6
				c-1.7,0.3-3.3,0.5-5,0.7c-1.8,0.2-2.1,0.6-2.1,2.3c0,0.2,0,0.3,0,0.5c0,1.1,0,2.3,0,3.4c0,0.5-0.2,0.8-0.7,0.9
				c-1.5,0.3-2.4,1.4-3.3,2.5c0.3,1.4,0.7,1.5,2,1.1c1.3-0.4,2.1-1.4,3-2.3c0.2-0.2,0.3-0.6,0.3-0.9c-0.4-1.4-0.2-2.8-0.3-4.3
				c0-0.5,0-1.1,0-1.7C55.1,26.5,56.9,26.3,58.9,26z M24.6,84.3c0.7,0.1,1.3,0.3,1.8,0.4c0.5,0.1,1.1,0.1,1.6,0
				c0.2,0,0.5-0.4,0.5-0.6c0-0.2-0.2-0.5-0.4-0.7c-0.1-0.1-0.4-0.1-0.6-0.1c-1-0.2-1.9-0.3-2.9-0.5c-0.6-0.1-0.9,0.1-0.8,0.7
				c0,0.3,0.2,0.7,0.2,1c-0.1,1.9-0.2,3.8-0.3,5.7c0,0.6-0.3,1-0.9,1.3c-0.9,0.3-1.7,0.8-2.6,1.2c-0.7,0.3-1.2,0.8-1.6,1.4
				c-0.5,0.8-0.2,1.5,0.7,1.8c0.8,0.2,1.5,0,2.1-0.4c0.9-0.7,1.9-1.4,2.8-2.1c0.5-0.4,0.7-0.8,0.5-1.5c-0.1-0.3-0.1-0.7-0.1-1
				C24.6,88.7,24.6,86.6,24.6,84.3z M170.7,11.1c-0.5,1.6-0.9,3-1.1,4.4c-0.2,1.4-0.4,2.9-1,4.2c-1.5,0.1-2.6,0.7-3.8,1.5
				c-0.7,0.4-0.8,0.8-0.5,1.5c0.2,0.7,0.7,0.6,1.3,0.6c1.8-0.1,3-1.3,4.4-2.1c0-0.7-0.1-1.2,0-1.7c0.2-1.1,0.4-2.2,0.6-3.3
				c0.2-0.9,0.4-1.9,0.6-3c0.4,0.4,0.6,0.7,0.8,0.9c0.4,0.3,0.9,0.7,1.4,0.9c0.1,0.1,0.5,0,0.6-0.1c0.1-0.2,0.1-0.5,0.1-0.7
				c0-0.2-0.2-0.3-0.4-0.4c-0.7-0.6-1.4-1.2-2.1-1.9C171.3,11.7,171.1,11.4,170.7,11.1z M-61.2,161.6c0.1-0.4,0.3-0.8,0.5-1.3
				c-0.3,0-0.6,0-0.9,0C-61.7,160.8-61.9,161.3-61.2,161.6z"/>
            <path d="M92.9,180.8c-1-0.1-1.9-0.2-2.8-0.4c-1.6-0.3-3.2-0.6-4.7-1c-3.1-0.9-6-2.3-8.8-3.7c-2.2-1.1-4.4-2.2-6.6-3.3
				c-1.6-0.8-3.2-1.7-4.6-2.8c-1.5-1.1-3.2-2-4.6-3.2c-1.2-1-2.3-2.2-3.3-3.4c-0.6-0.6-1.1-1.1-2-1c-0.7,0.1-1.4,0-2.1,0
				c-2.1,0.2-4.1-0.3-6-1.3c-1.2-0.6-2.3-1.3-3.6-1.9c-1.7-0.8-3-2-4.4-3.2c-1.6-1.4-2.3-4.7-0.1-6.7c0.8-0.7,1.7-1.3,2.8-1.5
				c0.8-0.2,1.6-0.4,2.5-0.3c0.8,0.1,1.5,0.3,2.2,0.6c0.9,0.5,1.9,0.9,2.9,1.3c-0.3-1.3-0.6-2.6-0.9-3.8c-0.5-1.9-0.7-3.8-0.5-5.8
				c0-0.5,0.1-1,0.1-1.5c-0.1-2.1,0.6-3.9,1.4-5.8c0.9-2,1.8-3.9,2.9-5.7c0.8-1.3,1.7-2.4,2.7-3.6c0.8-0.9,1.6-1.8,2.5-2.7
				c-0.9-0.8-1.9-1.7-2.9-2.6c-1.2-1.1-2.4-2.2-3.6-3.4c-1.1-1.2-1.9-2.6-2.4-4.2c-0.6-1.9-0.1-3.4,1.5-4.6c1-0.7,2.3-0.7,3.5-0.4
				c0.6,0.2,1.2,0.5,1.8,0.7c0.2,0.1,0.5,0.2,1,0.4c-2-4.3-3.7-8.4-3.6-13c-0.7-0.4-1.4-0.8-2-1.3c-0.5-0.5-1-1-1.4-1.6
				c-0.4-0.7-0.8-1.5-1.1-2.3c-0.3-0.8-0.5-1.6-0.7-2.4c-2.1-1-2.9-3-3.4-5.2c-0.2-0.6-0.2-1.4-0.2-2c0.2-2,1.2-3.4,2.9-4.4
				c1-0.6,2-1.2,3.4-1c0.5,0.1,1.2-0.4,1.7-0.7c1.1-0.6,2.2-1.3,3.5-2c0.2-0.7,0.5-1.6,0.8-2.5c0.9-2.9,2.4-5.4,4.5-7.5
				c1.4-1.3,2.8-2.6,4.4-3.7c1.6-1.2,3.4-2,4.9-3.2c-0.6-2.4-0.4-4.7,1-6.9c1-1.5,2.2-2.7,3.7-3.8c0.3-0.2,0.7-0.6,0.8-1
				c1.5-3.4,3.7-6.4,6.5-8.8c1.2-1,2.2-2.1,3.4-3.1c0.8-0.7,1.8-1.2,2.7-1.8c1.1-0.8,2.4-1.1,3.5-1.6c1.2-0.5,2.4-1.1,3.7-1.5
				c0.8-0.3,1.7-0.3,2.5-0.4c1.2-0.2,2.5-0.3,3.7-0.5c1-0.1,1.9-0.2,2.9-0.2c2.3,0,4.5,0,6.8,0.3c1.7,0.2,3.3,0.7,5,1.1
				c0.6,0.1,1.2,0.3,1.9,0.4c0.4,0.1,0.9,0.3,1.3,0.4c2,0.8,3.9,1.8,5.5,3.2c1.4,1.2,2.9,2.3,4.4,3.5c0.8,0.6,1.6,1.2,2.4,1.7
				c3.3,2.4,5.7,5.5,7.7,9c0.2,0.3,0.3,0.7,0.4,1c0.9,2.8,1.8,5.6,2.8,8.5c0.4,0,1,0,1.6,0c2.2-0.1,4.3,0.4,6.3,1.5
				c2.2,1.3,3.5,3.2,4.2,5.6c0.5,2,0.5,4,0.2,6.1c-0.3,2-1.5,3.4-2.9,4.7c-0.4,0.3-0.8,0.6-1,0.8c0.8,1.8,1.4,3.4,2,4.9
				c0.7,1.7,1.3,3.4,2,5.2c1,2.5,1.9,5.1,2.4,7.7c1,5.9,1.9,11.8,2.5,17.7c0.6,5.1,0,10.1-0.6,15.2c-0.2,2.2-0.5,4.5-1,6.7
				c-0.1,0.2,0,0.4,0,0.7c0,2.7-0.7,5.2-1.8,7.6c-1,2.4-2.1,4.8-3.2,7.2c-0.3,0.6-0.6,1.1-0.9,1.7c-0.8,1.6-1.6,3.3-2.4,4.9
				c-0.9,1.6-1.7,3.3-2.7,4.8c-1.2,1.8-2.5,3.5-3.7,5.2c-0.2,0.2-0.4,0.4-0.5,0.6c-0.4,0.5-0.8,1-1,1.6c-0.4,1.6-1.2,2.9-2,4.3
				c-0.4,0.6-1,1-1.8,1.3c-1.8,0.6-3.7,1.4-5.5,2.1c-0.6,0.2-1.1,0.7-1.6,1c-3,2.3-6.4,3.8-9.9,5.3c-1,0.4-2,1-3,1.5
				c-0.4,0.2-0.9,0.3-1.3,0.4c-2.4,0.5-4.7,1-7.1,1.5c-0.9,0.2-1.9,0.4-2.5,1.3c-0.3,0.4-0.7,0.7-1.1,1c-1.8,1.8-3.7,3.4-5.8,4.9
				c-0.9,0.7-2,1.1-3.1,1.2c-1.5,0.2-2.5-0.9-3.4-1.9c-0.8-0.9-1.3-2.1-1.6-3.3c-0.1-0.3,0-0.7,0-1C92.8,182,92.8,181.5,92.9,180.8z
				 M150.6,72.1c-0.5,0.3-0.9,0.7-1.3,0.8c-1.1,0.3-1.7,1.1-2.4,2c-0.6,0.9-0.9,1.8-0.8,2.9c0.2,1.5,0.6,2.9,1.4,4.1
				c1.2,1.9,2.4,3.9,3.5,5.9c0.7,1.3,1.4,2.7,1.6,4.1c0.6,3.3,0,6.4-1.5,9.4c-0.5,1-1,2-1.5,3c0.1,0.3,0.2,0.7,0.3,1
				c0.7,1.7,1,3.4,0.7,5.2c-0.1,0.6-0.2,1.3-0.5,1.8c-0.8,1.3-1.6,2.7-2.5,3.9c-1.2,1.6-2.5,3-3.8,4.5c-1.2,1.3-1.9,2.8-1.9,4.7
				c0,1.9,0.5,3.8,0.9,5.7c0.3,1.8,0.8,3.6,1,5.4c0.1,2.2,0.2,4.4-0.4,6.5c-0.6,2.1-1.6,3.7-3.8,4.4c-0.9,0.3-1.8,0.6-2.7,0.7
				c-1.2,0.1-2.5,0-3.7-0.2c-1.6-0.4-3.2-1.1-4.8-1.7c-0.5-0.2-0.9-0.1-1.4,0.2c-1.7,1-2.3,1.4-4-0.4c-0.1-0.1-0.2-0.1-0.2-0.2
				c-0.5-0.7-1.2-0.8-1.9-0.5c-0.8,0.4-1.7,0.4-2.5,0.4c-1.8,0-2.6-1-3.3-2.5c-0.6-1.4-0.6-3-0.6-4.5c0-0.5-0.1-1.1-0.4-1.5
				c-0.7-1.1-1.4-2.2-2.2-3.2c-0.8-1-0.8-1.9-0.3-2.9c0.3-0.6,0.9-1,1.4-1.5c0.5-0.5,1.1-0.8,1.6-1.3c1.2-1.2,2.6-2.1,4.1-2.7
				c0.4-0.1,0.9-0.1,1.3,0c0.6,0.3,1.2,0.7,1.8,1.2c0.5-0.4,1-0.9,1.2-1.6c0.2-0.6,0.5-0.6,1.1-0.3c0.7,0.5,0.8,1,0.3,1.8
				c-0.8,1.4-1.7,2.6-3.1,3.6c-0.9,0.7-1.8,1.4-2.5,2.3c-1,1.4-1.9,2.9-2.7,4.4c-0.3,0.6-0.6,1.4-0.6,2.1c0,1,0.2,2,0.3,3
				c0.2,1.9,1.7,2.4,3.1,2.3c1.5-0.1,2.9-0.8,4.1-1.7c1-0.7,1.9-1.5,2.9-2.2c3-2.1,5-4.8,6.5-8.1c0.3-0.7,0.8-1.2,1.4-1.6
				c0.6,0.3,0.8,0.7,0.6,1.2c-0.3,0.8-0.6,1.6-1.1,2.4c-0.6,1-1.2,2-1.9,3c0.4,0.5,0.7,0.9,1.1,1.4c0.4,0.5,0.6,1.1,0.1,1.7
				c-0.4,0.4-0.6,0.9-0.9,1.4c-0.5,0.7-1,1.3-1.6,2.1c0.7,0.3,1.3,0.6,1.9,0.7c1.3,0.2,2.6,0.3,3.8,0.3c1.6-0.1,3-0.7,3.8-2.2
				c0.9-1.6,0.9-3.5,0.8-5.2c0-1.4-0.5-2.8-0.3-4.3c0.1-0.8,0-1.6-0.2-2.4c-0.3-1.1-0.6-2.2-1-3.3c-0.7-2.1-0.3-4.1,0.5-6
				c0.5-1,1.2-2,2-2.8c1.2-1.4,2.5-2.7,3.8-4c0.9-0.9,1.4-1.9,1.8-3c0.2-0.7,0.5-1.5,0.6-2.3c0.1-0.9,0.5-1.9-0.3-2.9
				c-0.8,0.5-1.6,1-2.4,1.4c-2.6,1.2-3.2,1.3-5.5-0.4c-0.5-0.4-0.7-0.8-0.8-1.3c-0.5-1.4-0.2-2.9,0.9-3.7c1.1-0.8,2.2-1.5,3.6-1.3
				c0.3,0,0.6,0,0.9,0c1.3-0.1,2.5,0.2,3.6,0.8c0.2,0.1,0.4,0.2,0.8,0.4c0.5-1.1,1-2.1,1.4-3.2c0.4-1.2,0.9-2.5,1.1-3.8
				c0.2-1.2,0.2-2.5-0.4-3.6c-1.3-2.5-2.7-4.9-4-7.4c-0.7-1.3-1.5-2.6-1.8-4.1c-0.3-1.7-0.6-3.5-0.2-5.2c0.1-0.4,0.2-0.7,0.3-1.1
				c-4.4-0.6-8-2.2-9.8-6.5c-1.7-4-1.5-8,1.3-11.5c-0.6-0.9-1.3-1.6-2.3-2.1c-3.7-1.9-7.4-3.7-11.4-4.8c-0.2-0.1-0.4-0.1-0.6-0.2
				c-0.9-0.2-1.8-0.5-2.7-0.7c-2.4-0.5-4.7-0.9-7.1-1.3c-0.5-0.1-1-0.2-1.6-0.2c-1.6,0-3.2,0-4.8,0.1c-2.1,0.1-4.1,0.1-6.2,0.3
				c-1.5,0.1-3,0.5-4.6,0.7c-1.3,0.2-2.6,0.4-3.9,0.7c-1.6,0.3-3.2,0.5-4.8,0.8c-1.5,0.3-3,0.5-4.4,1c-2.4,0.8-4.7,1.7-7.1,2.6
				c-3,1.1-5.8,2.7-8.4,4.6c-0.9,0.7-1.8,1.4-2.6,2.1c-3.2,2.6-5.5,5.9-6.4,10.1c0.4,0,0.8,0,1.2,0c1.4-0.1,2.7,0,4,0.4
				c1.4,0.5,2.9,0.8,4.1,1.8c2.4,2,3.5,4.5,3.7,7.5c0.2,3,0.3,5.9-0.6,8.8c-0.4,1.3-0.9,2.4-1.9,3.4c-2,2.1-4.7,3.1-7.5,3.6
				c-0.4,0.1-0.9,0-1.3-0.1c-1.2-0.2-2.5-0.5-3.7-0.7c0.1,2.9,1,5.6,1.8,8.4c0.8,2.6,2.2,4.7,3.9,6.8c1.9,2.3,4,4.2,6.2,6.2
				c0.9,0.8,1.8,1.6,2.8,2.2c2.7,1.5,5.5,3,8.2,4.4c0.5,0.3,1,0.5,1.2,1.1c-0.6,0.6-1.3,0.6-1.9,0.2c-1-0.5-1.9-1.1-2.8-1.7
				c-0.5-0.3-0.9-0.5-1.4-0.8c-1.7-0.9-3.4-1.7-5-2.8c-1.3-0.9-2.4-1-3.7-0.4c-1.7,0.8-3.3,1.7-4.9,2.6c-1.1,0.6-2,1.4-2.8,2.3
				c-2.4,2.6-4.2,5.5-5.7,8.7c-1.2,2.7-1.9,5.5-1.8,8.5c0,2.7,0.5,5.4,1.3,8c1.1,3.7,2.5,7.2,4.7,10.3c0.3,0.5,0.5,1,1.2,1
				c0.1,0,0.3,0.3,0.4,0.5c1.1,1.6,2.4,3.2,4,4.4c1.7,1.4,3.5,2.7,5.3,3.9c1.2,0.9,2.5,1.6,3.8,2.4c0.6,0.4,1.3,0.5,2,0.9
				c2.4,1.4,4.9,2.8,7.5,3.8c0.5,0.2,0.9,0.4,1.3,0.6c2.1,1,4.2,1.9,6.4,2.4c1.6,0.4,3.3,0.6,5,0.9c0.5,0.1,1,0.1,1.4-0.3
				c0.4-0.4,0.9-0.8,1.3-1.3c0.9-1.1,2.2-1.5,3.5-1.8c0.3,0.5,0.2,0.8-0.2,1.1c-0.5,0.4-1,0.7-1.5,1.1c-1.2,0.9-2.1,2.1-2.7,3.4
				c-0.7,1.5-0.2,3.2,1.1,4.3c1.2,0.9,2.4,0.7,3.5,0.1c1.9-0.9,3.7-1.9,5.4-3.2c1.8-1.5,3.6-3,4.6-5.2c0.2-0.4,0.5-0.6,0.9-0.5
				c0.4,0.1,0.8,0.6,0.8,1c0,0.2-0.1,0.5-0.1,0.8c0.4,0,0.8,0,1.2-0.1c1.7-0.4,3.5-0.7,5.1-1.3c1.8-0.6,3.5-1.3,5.2-2.1
				c1.2-0.5,2.3-1.1,3.5-1.6c1.4-0.6,2.7-1.2,3.9-2.2c0.6-0.5,1.2-0.9,1.9-1.3c1.3-0.7,2.5-1.6,3.5-2.6c1.2-1.3,2.5-2.5,3.7-3.7
				c0.1-0.1,0.2-0.2,0.4-0.3c0.7-0.6,1.7-1.2,2.2-1.9c0.6-0.9,1.5-1.2,2.1-2c0.1-0.1,0.2-0.2,0.3-0.4c1-1.3,2.1-2.6,3-4
				c1.1-1.7,2.3-3.3,3-5.3c0.3-0.7,0.6-1.5,1-2.2c0.7-1.3,1.6-2.6,2.2-3.9c1.4-3,2.7-5.9,3.6-9.1c0.3-1.2,0.7-2.3,0.9-3.5
				c0.1-0.7,0-1.4,0.2-2.1c0.7-2.7,0.9-5.5,1.3-8.2c0.3-2.8,0.4-5.7,0.7-8.5c0.2-2.7-0.1-5.4-0.3-8.1c-0.1-1.6-0.4-3.3-0.6-4.9
				c-0.2-1.1-0.3-2.2-0.5-3.3c-0.5-2.5-1.1-4.9-1.5-7.4c-0.5-3.2-1.8-6.2-2.9-9.2C152.3,77.1,151.2,74.8,150.6,72.1z M135.6,52.9
				c-0.4-1.1-0.8-2.1-1.1-3c-1.2-3.6-3.3-6.8-6.1-9.3c-1.9-1.7-3.9-3.4-6.2-4.5c-0.2-0.1-0.3-0.2-0.5-0.3c-1.8-1-3.6-2.2-5.5-3.1
				c-2.8-1.2-5.7-2.2-8.5-3.2c-2.2-0.8-4.4-1.3-6.7-1.2c-0.8,0-1.6,0-2.4,0c-0.3,0-0.6,0-0.9,0.1c-1.4,0.4-2.8,0.8-4.2,1.3
				c-0.8,0.3-1.6,0.6-2.4,1c-3.2,1.8-5.9,4.1-7.9,7.2c-0.6,0.9-1.4,1.7-1.4,2.7c1.1,0.5,2.3,0.9,3.2,1.6c1,0.6,1.9,1.4,2.6,2.3
				c0.7,0.9,1.1,2,1.6,2.9c2.7-0.5,5.3-0.9,7.9-1.4c1.2-0.2,2.4-0.5,3.7-0.5c2.2-0.1,4.4,0,6.5,0c0.8,0,1.6,0.1,2.4,0
				c1.4-0.2,2.8,0,4.1,0.3c2,0.4,3.8,1.3,5.9,1.1c0.3,0,0.7,0.1,1,0.2c0.7,0.2,1.3,0.5,2,0.7c0.9,0.3,1.9,0.6,2.8,0.9
				c0.9,0.3,1.8,0.5,2.7,0.9C130.7,50.5,133.1,51.7,135.6,52.9z M49.3,85.7c0.1,0.4,0.3,0.8,0.4,1.2c0.3,1.5,1.1,2.7,2.3,3.6
				c0.9,0.7,1.7,1.3,2.7,1.8c2.3,1.3,4.8,1.8,7.4,0.8c1.1-0.4,2.1-0.9,3.1-1.6c1.4-0.9,2.5-2.1,2.8-3.8c0.3-1.6,0.7-3.2,0.8-4.7
				c0.1-1.5,0-2.9-0.1-4.4c-0.3-3.3-2.1-5.5-5.1-6.8c-0.7-0.3-1.4-0.4-2-0.6c-1.5-0.4-3.1-0.4-4.7-0.1c-1.9,0.3-3.4,1.4-4.8,2.3
				c0.4,0.9,1,1.7,1.2,2.6c0.6,2.2,0.5,4.4,0,6.6c-0.2,1.1-1,1.8-1.8,2.6c-0.5,0.5-1.3,0.4-1.9,0.4C49.6,85.6,49.5,85.7,49.3,85.7z
				 M54.8,159.8c-1.8-2.7-3.1-5.3-4.2-8c-0.1-0.3-0.4-0.5-0.7-0.7c-0.9-0.5-1.9-1-2.8-1.5c-1.1-0.6-2.2-0.9-3.4-0.5
				c-1,0.3-1.9,0.6-2.8,1.1c-1.3,0.7-1.6,2.2-0.7,3.4c0.8,1.2,2,2,3.3,2.6c1.1,0.5,2.2,0.9,3.3,1.5c2,1,3.9,1.8,6.1,2
				C53.5,159.8,54,159.8,54.8,159.8z M64.8,116.4c-0.1-0.2-0.2-0.3-0.3-0.4c-1.6-1.5-3.1-3-4.4-4.8c-1.3-1.8-2.9-3.1-5-3.9
				c-0.8-0.3-1.7-0.7-2.5-0.9c-1.3-0.3-2.1,0.4-2.2,1.7c0,0.5,0.1,1,0.2,1.4c0.5,1.7,1.5,3.1,2.8,4.3c1.7,1.5,3.3,3,4.9,4.5
				c0.4,0.3,0.8,0.7,1.1,0.9C61.3,118.2,63,117.3,64.8,116.4z M146,104.2c-1.5-1-4-0.9-5.2,0.2c-0.2,0.2-0.4,0.5-0.4,0.7
				c0,0.8,1.1,1.7,1.9,1.3C143.6,106,145,105.4,146,104.2z M140.2,164.3c-1.2,1-2.3,2-3.5,3.1C138.5,167.4,139.9,166.1,140.2,164.3z
				"/>
            <path d="M179.4,76.5c-2.1,0.5-3.9,0.9-5.8,1.4c-0.5,0.1-0.8,0.5-0.7,1c0.1,0.6,0.3,1.1,0.4,1.7c0.2,1.7,0.5,3.5,0.7,5.3
				c0,0.3-0.1,0.6-0.3,0.8c-0.8,0.7-1.6,1.3-2.5,1.9c-0.7,0.5-1.4,0.4-2.2,0.3c-0.7-0.1-1.2-1.1-0.7-1.6c0.4-0.5,0.9-1,1.4-1.4
				c0.5-0.4,1.2-0.6,1.8-0.9c0.4-0.2,0.6-0.5,0.6-0.9c0.3-1.8-0.2-3.5-0.6-5.2c-0.3-1.4-0.1-1.8,1.3-2.2c2.1-0.5,4.3-1.1,6.4-1.7
				c0.6-0.2,0.9,0,1,0.7c0.2,0.9,0.3,1.9,0.4,2.8c0.1,1.1,0.2,2.2,0.3,3.4c0,0.1,0,0.2,0,0.3c0.6,1,0.1,1.6-0.6,2.2
				c-0.5,0.5-1.1,1-1.6,1.6c-0.5,0.4-1,0.6-1.7,0.5c-0.8-0.1-1.1-0.8-0.6-1.4c0.8-0.9,1.7-1.6,2.6-2.5c0.3-0.3,0.6-0.7,0.6-1
				C179.8,79.8,179.6,78.3,179.4,76.5z"/>
            <path d="M58.9,26c-1.9,0.2-3.8,0.4-5.7,0.7c0,0.6,0,1.1,0,1.7c0.1,1.4-0.1,2.9,0.3,4.3c0.1,0.3-0.1,0.7-0.3,0.9
				c-0.9,0.9-1.8,1.8-3,2.3c-1.3,0.4-1.6,0.3-2-1.1c0.9-1.1,1.8-2.2,3.3-2.5c0.5-0.1,0.6-0.5,0.7-0.9c0-1.1,0-2.3,0-3.4
				c0-0.1,0-0.3,0-0.5c-0.1-1.8,0.3-2.1,2.1-2.3c1.7-0.2,3.3-0.4,5-0.7c0.5-0.1,0.8,0.1,0.9,0.6c0.1,1.4,0.2,2.8,0.4,4.1
				c0.1,0.7,0.2,1.5,0.3,2.2c0,0.4,0.1,0.8-0.1,1.1c-0.9,1-1.7,2.1-3.1,2.6c-0.1,0-0.2,0.1-0.3,0.1c-0.5,0.2-1,0.2-1.3-0.3
				c-0.3-0.5-0.2-1,0.2-1.4c0.5-0.5,1-1,1.5-1.5c0.1-0.1,0.2-0.1,0.3-0.2c1.4-1,1.4-1,1.3-2.6c0-0.7,0-1.4-0.1-2.1
				C59.1,26.7,59,26.4,58.9,26z"/>
            <path d="M24.6,84.3c0,2.3,0,4.4,0,6.5c0,0.3,0,0.7,0.1,1c0.2,0.6,0,1.1-0.5,1.5c-0.9,0.7-1.9,1.4-2.8,2.1
				c-0.6,0.5-1.4,0.6-2.1,0.4c-0.9-0.2-1.2-0.9-0.7-1.8c0.4-0.6,0.9-1.1,1.6-1.4c0.8-0.4,1.7-0.8,2.6-1.2c0.6-0.2,0.9-0.6,0.9-1.3
				c0.1-1.9,0.2-3.8,0.3-5.7c0-0.3-0.1-0.7-0.2-1c0-0.6,0.2-0.8,0.8-0.7c1,0.2,1.9,0.3,2.9,0.5c0.2,0,0.5,0,0.6,0.1
				c0.2,0.2,0.4,0.5,0.4,0.7c0,0.2-0.3,0.6-0.5,0.6c-0.5,0.1-1,0.1-1.6,0C25.9,84.6,25.3,84.5,24.6,84.3z"/>
            <path d="M170.7,11.1c0.4,0.4,0.6,0.6,0.9,0.8c0.7,0.6,1.4,1.2,2.1,1.9c0.1,0.1,0.3,0.3,0.4,0.4c0,0.2,0,0.5-0.1,0.7
				c-0.1,0.1-0.4,0.2-0.6,0.1c-0.5-0.3-0.9-0.6-1.4-0.9c-0.3-0.2-0.4-0.5-0.8-0.9c-0.2,1.1-0.4,2.1-0.6,3c-0.2,1.1-0.4,2.2-0.6,3.3
				c-0.1,0.5,0,1,0,1.7c-1.3,0.8-2.5,2-4.4,2.1c-0.6,0-1.1,0.1-1.3-0.6c-0.2-0.7-0.1-1.1,0.5-1.5c1.1-0.7,2.3-1.3,3.8-1.5
				c0.6-1.3,0.7-2.8,1-4.2C169.8,14,170.3,12.7,170.7,11.1z"/>
            <path d="M-61.2,161.6c-0.7-0.3-0.5-0.8-0.5-1.3c0.3,0,0.6,0,0.9,0C-60.9,160.7-61.1,161.2-61.2,161.6z"/>
            <path class="st2" d="M150.6,72.1c0.6,2.7,1.8,4.9,2.6,7.3c1.1,3,2.4,6,2.9,9.2c0.4,2.5,1,4.9,1.5,7.4c0.2,1.1,0.4,2.2,0.5,3.3
				c0.2,1.6,0.5,3.3,0.6,4.9c0.2,2.7,0.5,5.4,0.3,8.1c-0.2,2.8-0.3,5.7-0.7,8.5c-0.3,2.8-0.6,5.5-1.3,8.2c-0.2,0.7-0.1,1.4-0.2,2.1
				c-0.3,1.2-0.6,2.3-0.9,3.5c-0.9,3.2-2.2,6.2-3.6,9.1c-0.6,1.4-1.5,2.6-2.2,3.9c-0.4,0.7-0.7,1.4-1,2.2c-0.7,2-1.8,3.6-3,5.3
				c-0.9,1.4-2,2.6-3,4c-0.1,0.1-0.2,0.2-0.3,0.4c-0.6,0.8-1.5,1.1-2.1,2c-0.5,0.8-1.4,1.3-2.2,1.9c-0.1,0.1-0.3,0.2-0.4,0.3
				c-1.2,1.2-2.5,2.5-3.7,3.7c-1,1.1-2.2,2-3.5,2.6c-0.7,0.4-1.3,0.8-1.9,1.3c-1.2,1-2.5,1.6-3.9,2.2c-1.2,0.5-2.3,1.1-3.5,1.6
				c-1.7,0.7-3.4,1.5-5.2,2.1c-1.7,0.5-3.4,0.9-5.1,1.3c-0.4,0.1-0.7,0-1.2,0.1c0.1-0.3,0.1-0.6,0.1-0.8c0-0.4-0.3-0.9-0.8-1
				c-0.4-0.1-0.7,0.1-0.9,0.5c-1,2.2-2.7,3.7-4.6,5.2c-1.7,1.3-3.5,2.3-5.4,3.2c-1.1,0.6-2.4,0.8-3.5-0.1c-1.3-1-1.8-2.7-1.1-4.3
				c0.6-1.4,1.5-2.5,2.7-3.4c0.5-0.4,1-0.7,1.5-1.1c0.4-0.3,0.5-0.6,0.2-1.1c-1.4,0.2-2.6,0.6-3.5,1.8c-0.4,0.5-0.9,0.8-1.3,1.3
				c-0.4,0.4-0.9,0.4-1.4,0.3c-1.7-0.3-3.3-0.5-5-0.9c-2.2-0.5-4.4-1.4-6.4-2.4c-0.4-0.2-0.9-0.4-1.3-0.6c-2.6-1-5.1-2.4-7.5-3.8
				c-0.6-0.3-1.3-0.5-2-0.9c-1.3-0.7-2.6-1.5-3.8-2.4c-1.8-1.3-3.6-2.6-5.3-3.9c-1.6-1.2-2.8-2.8-4-4.4c-0.1-0.2-0.3-0.5-0.4-0.5
				c-0.7,0-0.9-0.6-1.2-1c-2.2-3.2-3.6-6.7-4.7-10.3c-0.8-2.6-1.3-5.3-1.3-8c0-3,0.6-5.8,1.8-8.5c1.4-3.2,3.3-6.1,5.7-8.7
				c0.8-0.9,1.7-1.7,2.8-2.3c1.6-0.9,3.2-1.8,4.9-2.6c1.2-0.6,2.4-0.6,3.7,0.4c1.5,1.1,3.3,1.9,5,2.8c0.5,0.3,0.9,0.5,1.4,0.8
				c0.9,0.6,1.8,1.2,2.8,1.7c0.6,0.3,1.3,0.3,1.9-0.2c-0.1-0.7-0.7-0.9-1.2-1.1c-2.7-1.5-5.5-2.9-8.2-4.4c-1-0.6-1.9-1.4-2.8-2.2
				c-2.2-2-4.4-3.9-6.2-6.2c-1.7-2-3.1-4.2-3.9-6.8c-0.8-2.7-1.8-5.4-1.8-8.4c1.2,0.2,2.5,0.5,3.7,0.7c0.4,0.1,0.9,0.2,1.3,0.1
				c2.8-0.5,5.4-1.5,7.5-3.6c0.9-1,1.5-2.1,1.9-3.4c0.9-2.9,0.8-5.9,0.6-8.8c-0.2-2.9-1.3-5.5-3.7-7.5c-1.2-1-2.7-1.3-4.1-1.8
				c-1.3-0.4-2.7-0.5-4-0.4c-0.4,0-0.8,0-1.2,0c0.9-4.2,3.2-7.5,6.4-10.1c0.9-0.7,1.7-1.5,2.6-2.1c2.6-1.9,5.4-3.5,8.4-4.6
				c2.4-0.9,4.7-1.8,7.1-2.6c1.4-0.5,2.9-0.7,4.4-1c1.6-0.3,3.2-0.6,4.8-0.8c1.3-0.2,2.6-0.4,3.9-0.7c1.5-0.3,3-0.6,4.6-0.7
				c2.1-0.2,4.1-0.2,6.2-0.3c1.6-0.1,3.2-0.1,4.8-0.1c0.5,0,1,0.1,1.6,0.2c2.4,0.4,4.7,0.8,7.1,1.3c0.9,0.2,1.8,0.5,2.7,0.7
				c0.2,0.1,0.4,0.1,0.6,0.2c4,1.1,7.7,2.8,11.4,4.8c0.9,0.5,1.6,1.2,2.3,2.1c-2.8,3.6-2.9,7.5-1.3,11.5c1.8,4.3,5.4,5.9,9.8,6.5
				c-0.1,0.4-0.2,0.8-0.3,1.1c-0.4,1.8-0.1,3.5,0.2,5.2c0.3,1.5,1.1,2.8,1.8,4.1c1.3,2.5,2.7,4.9,4,7.4c0.6,1.1,0.7,2.4,0.4,3.6
				c-0.3,1.3-0.7,2.5-1.1,3.8c-0.4,1.1-0.9,2.1-1.4,3.2c-0.4-0.2-0.6-0.3-0.8-0.4c-1.1-0.6-2.3-1-3.6-0.8c-0.3,0-0.6,0.1-0.9,0
				c-1.4-0.2-2.6,0.5-3.6,1.3c-1,0.8-1.4,2.3-0.9,3.7c0.2,0.5,0.4,0.9,0.8,1.3c2.3,1.8,3,1.6,5.5,0.4c0.8-0.4,1.6-0.9,2.4-1.4
				c0.8,1,0.5,1.9,0.3,2.9c-0.1,0.8-0.4,1.5-0.6,2.3c-0.4,1.1-0.9,2.1-1.8,3c-1.3,1.3-2.6,2.6-3.8,4c-0.8,0.9-1.5,1.8-2,2.8
				c-0.8,1.9-1.2,3.9-0.5,6c0.4,1.1,0.8,2.2,1,3.3c0.2,0.8,0.3,1.6,0.2,2.4c-0.2,1.5,0.3,2.8,0.3,4.3c0.1,1.8,0.1,3.6-0.8,5.2
				c-0.9,1.5-2.2,2.1-3.8,2.2c-1.3,0.1-2.6-0.1-3.8-0.3c-0.6-0.1-1.2-0.4-1.9-0.7c0.6-0.8,1.2-1.4,1.6-2.1c0.3-0.4,0.6-1,0.9-1.4
				c0.5-0.6,0.3-1.2-0.1-1.7c-0.3-0.5-0.7-1-1.1-1.4c0.7-1,1.3-2,1.9-3c0.4-0.7,0.7-1.6,1.1-2.4c0.2-0.5,0-0.9-0.6-1.2
				c-0.5,0.5-1,0.9-1.4,1.6c-1.5,3.2-3.5,6-6.5,8.1c-1,0.7-1.9,1.5-2.9,2.2c-1.2,0.9-2.6,1.6-4.1,1.7c-1.4,0.1-2.8-0.3-3.1-2.3
				c-0.1-1-0.3-2-0.3-3c0-0.7,0.2-1.5,0.6-2.1c0.8-1.5,1.7-3,2.7-4.4c0.7-0.9,1.6-1.6,2.5-2.3c1.3-1,2.3-2.2,3.1-3.6
				c0.5-0.8,0.4-1.4-0.3-1.8c-0.5-0.4-0.8-0.3-1.1,0.3c-0.3,0.7-0.7,1.2-1.2,1.6c-0.6-0.4-1.2-0.9-1.8-1.2c-0.4-0.2-0.9-0.2-1.3,0
				c-1.6,0.6-3,1.5-4.1,2.7c-0.5,0.5-1.1,0.8-1.6,1.3c-0.5,0.4-1.1,0.9-1.4,1.5c-0.5,1-0.5,2,0.3,2.9c0.8,1,1.6,2.1,2.2,3.2
				c0.3,0.4,0.4,1,0.4,1.5c0,1.5,0.1,3.1,0.6,4.5c0.6,1.5,1.5,2.5,3.3,2.5c0.9,0,1.7,0,2.5-0.4c0.7-0.3,1.4-0.3,1.9,0.5
				c0.1,0.1,0.2,0.2,0.2,0.2c1.7,1.7,2.4,1.4,4,0.4c0.5-0.3,0.9-0.4,1.4-0.2c1.6,0.6,3.1,1.3,4.8,1.7c1.2,0.3,2.5,0.3,3.7,0.2
				c0.9-0.1,1.8-0.4,2.7-0.7c2.1-0.7,3.2-2.3,3.8-4.4c0.6-2.1,0.5-4.3,0.4-6.5c-0.1-1.8-0.6-3.6-1-5.4c-0.3-1.9-0.8-3.7-0.9-5.7
				c0-1.9,0.7-3.3,1.9-4.7c1.3-1.5,2.6-2.9,3.8-4.5c0.9-1.2,1.7-2.6,2.5-3.9c0.3-0.5,0.4-1.2,0.5-1.8c0.3-1.8-0.1-3.5-0.7-5.2
				c-0.1-0.3-0.2-0.6-0.3-1c0.5-1,1-2,1.5-3c1.5-3,2.1-6.1,1.5-9.4c-0.3-1.4-0.9-2.8-1.6-4.1c-1.1-2-2.3-4-3.5-5.9
				c-0.8-1.3-1.2-2.7-1.4-4.1c-0.1-1.1,0.2-2,0.8-2.9c0.6-0.8,1.2-1.7,2.4-2C149.7,72.8,150.1,72.4,150.6,72.1z M90.4,106.6
				c0.9-0.7,1.7-1.2,2.3-1.9c1.1-1.1,1.5-3.8,0.8-5.2c-0.6-1.2-1.4-2.4-2.2-3.5c-0.6-0.8-1.4-1.5-2.5-1.7c-0.7-0.1-1.5-0.1-2-0.4
				c-0.6-0.3-0.9-1.1-1.4-1.6c0-0.1-0.1-0.1-0.2-0.2c-0.9-1-1.9-1.1-3.2-0.6c-1.1,0.5-1.9,1.2-2.6,2.1c-0.6,0.8-1.1,1.5-2.1,1.8
				c-0.3,0.1-0.6,0.4-0.8,0.7c-0.5,0.8-1,1.7-1.6,2.5c-1,1.5-1.1,3.1-0.9,4.8c0.1,0.9,0.5,1.8,1.3,2.1c1.5,0.6,3,1.1,4.5,1.4
				c1.2,0.3,1.4,0.2,1.5,1.5c0,0.3,0,0.7,0.1,1c0.2,0.7,0.3,1.5,0.6,2.2c0.6,1.3,2.1,1.7,3.3,0.9c0.5-0.4,1-0.6,1.7-0.4
				c0.5,0.1,1,0,1.6,0c1.1-0.1,2-1,2-2.1c0-0.6-0.1-1.2-0.1-1.8C90.5,107.6,90.4,107,90.4,106.6z M128.5,86.9c0-2.4-0.6-4.7-1.4-7
				c-0.7-2.1-2.1-3.8-3.3-5.6c-0.9-1.4-2.2-2.2-3.8-2.6c-0.8-0.2-1.7-0.3-2.5-0.6c-1.1-0.4-2.3-0.4-3.4-0.3c-2.1,0.2-4.1,1-6.1,1.9
				c-2.7,1.2-5,2.8-6.4,5.4c-0.4,0.8-0.8,1.7-1.1,2.6c-0.7,1.8-1.1,3.7-0.9,5.7c0.1,0.4,0.1,0.9,0.1,1.3c0,2.5,0.9,4.8,2.1,7.1
				c0.6,1.3,1.6,2.3,2.8,3.1c1.4,1.1,3,1.9,4.7,2.2c1.6,0.3,3.2,0.5,4.8,0.4c1.6-0.1,3.3-0.3,4.8-0.8c1.5-0.5,2.6-1.5,3.9-2.3
				c0.5-0.3,1-0.7,1.4-1.1c1.2-1,1.9-2.4,2.8-3.7c0.8-1.1,1.2-2.3,1.3-3.7C128.4,88.5,128.4,87.8,128.5,86.9z"/>
            <path class="st2" d="M135.6,52.9c-2.6-1.2-4.9-2.4-7.3-3.5c-0.8-0.4-1.8-0.6-2.7-0.9c-0.9-0.3-1.9-0.6-2.8-0.9
				c-0.7-0.2-1.3-0.5-2-0.7c-0.3-0.1-0.7-0.2-1-0.2c-2.1,0.2-4-0.7-5.9-1.1c-1.3-0.3-2.7-0.5-4.1-0.3c-0.8,0.1-1.6,0-2.4,0
				c-2.2,0-4.4-0.1-6.5,0c-1.2,0-2.5,0.3-3.7,0.5c-2.6,0.4-5.2,0.9-7.9,1.4c-0.5-0.9-0.9-2-1.6-2.9c-0.7-0.9-1.7-1.7-2.6-2.3
				c-1-0.6-2.1-1-3.2-1.6c0-1,0.8-1.8,1.4-2.7c2-3.1,4.8-5.4,7.9-7.2c0.7-0.4,1.6-0.7,2.4-1c1.4-0.5,2.8-0.9,4.2-1.3
				c0.3-0.1,0.6-0.1,0.9-0.1c0.8,0,1.6,0,2.4,0c2.3-0.1,4.5,0.4,6.7,1.2c2.8,1.1,5.7,2,8.5,3.2c1.9,0.8,3.7,2,5.5,3.1
				c0.2,0.1,0.3,0.2,0.5,0.3c2.3,1.1,4.3,2.8,6.2,4.5c2.8,2.5,4.9,5.7,6.1,9.3C134.9,50.8,135.2,51.8,135.6,52.9z"/>
            <path class="st2" d="M49.3,85.7c0.2-0.1,0.3-0.1,0.3-0.1c0.7,0,1.4,0.2,1.9-0.4c0.7-0.7,1.5-1.5,1.8-2.6c0.5-2.2,0.6-4.4,0-6.6
				c-0.2-0.9-0.8-1.7-1.2-2.6c1.4-1,2.9-2.1,4.8-2.3c1.5-0.2,3.1-0.3,4.7,0.1c0.7,0.2,1.4,0.3,2,0.6c3,1.3,4.8,3.5,5.1,6.8
				c0.1,1.5,0.2,2.9,0.1,4.4c-0.1,1.6-0.5,3.2-0.8,4.7c-0.3,1.7-1.5,2.9-2.8,3.8c-1,0.6-2,1.2-3.1,1.6c-2.6,1-5,0.5-7.4-0.8
				c-1-0.5-1.8-1.2-2.7-1.8c-1.2-0.9-2-2.1-2.3-3.6C49.6,86.6,49.5,86.2,49.3,85.7z"/>
            <path class="st2" d="M54.8,159.8c-0.8,0-1.3,0-1.9,0c-2.2-0.2-4.2-1-6.1-2c-1-0.5-2.2-0.9-3.3-1.5c-1.3-0.6-2.5-1.4-3.3-2.6
				c-0.8-1.2-0.6-2.7,0.7-3.4c0.9-0.5,1.9-0.8,2.8-1.1c1.2-0.4,2.3-0.1,3.4,0.5c0.9,0.5,1.9,0.9,2.8,1.5c0.3,0.1,0.5,0.4,0.7,0.7
				C51.6,154.5,53,157.1,54.8,159.8z"/>
            <path class="st2" d="M64.8,116.4c-1.8,0.9-3.5,1.8-5.3,2.8c-0.3-0.3-0.8-0.6-1.1-0.9c-1.6-1.5-3.2-3-4.9-4.5
				c-1.4-1.2-2.3-2.6-2.8-4.3c-0.1-0.5-0.2-1-0.2-1.4c0-1.3,0.9-2,2.2-1.7c0.9,0.2,1.7,0.6,2.5,0.9c2.1,0.8,3.7,2.1,5,3.9
				c1.3,1.8,2.8,3.4,4.4,4.8C64.6,116,64.7,116.2,64.8,116.4z"/>
            <path class="st2" d="M146,104.2c-1,1.2-2.4,1.7-3.8,2.3c-0.7,0.3-1.9-0.6-1.9-1.3c0-0.3,0.2-0.6,0.4-0.7
				C142,103.3,144.5,103.2,146,104.2z"/>
            <path class="st2" d="M140.2,164.3c-0.3,1.8-1.7,3.1-3.5,3.1C137.9,166.3,139,165.3,140.2,164.3z"/>
            <path d="M90.4,106.6c0,0.4,0.1,1,0.2,1.6c0.1,0.6,0.1,1.2,0.1,1.8c0,1.1-0.9,2-2,2.1c-0.5,0-1.1,0.1-1.6,0
				c-0.7-0.2-1.1,0-1.7,0.4c-1.1,0.8-2.7,0.4-3.3-0.9c-0.3-0.7-0.4-1.4-0.6-2.2c-0.1-0.3,0-0.7-0.1-1c-0.1-1.2-0.3-1.2-1.5-1.5
				c-1.5-0.3-3-0.8-4.5-1.4c-0.8-0.3-1.2-1.3-1.3-2.1c-0.2-1.7-0.1-3.3,0.9-4.8c0.5-0.8,1-1.7,1.6-2.5c0.2-0.3,0.5-0.6,0.8-0.7
				c1-0.3,1.5-1,2.1-1.8c0.7-0.9,1.5-1.7,2.6-2.1c1.2-0.6,2.2-0.4,3.2,0.6c0.1,0.1,0.1,0.1,0.2,0.2c0.4,0.6,0.8,1.3,1.4,1.6
				c0.6,0.3,1.4,0.3,2,0.4c1.1,0.2,1.9,0.9,2.5,1.7c0.8,1.1,1.5,2.3,2.2,3.5c0.7,1.4,0.3,4.1-0.8,5.2
				C92,105.4,91.3,105.9,90.4,106.6z M84.4,105.8c1.6-0.2,3.3-0.4,4.8-0.7c2.8-0.7,4-3.6,2.3-6.2c-1.2-1.9-3-3-5.4-2.9
				c-1,0.1-2.1,0.2-3.1,0.3c-1.4,0.2-2.8,0.3-3.9,1.3c-0.3,0.2-0.6,0.4-1,0.6c-1.7,0.7-2.2,1.9-2.1,3.7c0.1,1.1,0.6,1.9,1.5,2.4
				c0.6,0.3,1.3,0.5,1.9,0.7c0.5,0.1,1.1,0.2,1.7,0.3C82.3,105.5,83.3,105.7,84.4,105.8z M82.6,107.2c0.2,1.3,0.5,2.6,1,3.8
				c0.2,0.5,0.6,0.5,1,0c0.9-1.2,1-2.5,0.5-3.8C84.3,107.2,83.5,107.2,82.6,107.2z M86.9,107.1c0,1.1,0,2.1,0,3.1
				c0.2,0.1,0.4,0.3,0.7,0.3c0.7,0.1,1.4-0.3,1.5-0.9c0-0.9-0.1-1.9-0.5-2.8C88,107,87.5,107.1,86.9,107.1z M80.5,94.5
				c0,0.1,0.1,0.2,0.1,0.3c1.5-0.2,2.9-0.5,4.4-0.7c-0.4-1-1.2-1.6-2-1.3C82,93,81.2,93.6,80.5,94.5z"/>
            <path d="M128.5,86.9c-0.1,0.8-0.1,1.6-0.2,2.3c-0.2,1.3-0.5,2.6-1.3,3.7c-0.9,1.2-1.6,2.7-2.8,3.7c-0.5,0.4-0.9,0.8-1.4,1.1
				c-1.3,0.8-2.4,1.8-3.9,2.3c-1.6,0.5-3.2,0.8-4.8,0.8c-1.6,0.1-3.2-0.1-4.8-0.4c-1.7-0.4-3.3-1.2-4.7-2.2
				c-1.2-0.9-2.2-1.9-2.8-3.1c-1.1-2.2-2-4.5-2.1-7.1c0-0.4-0.1-0.9-0.1-1.3c-0.2-2,0.2-3.9,0.9-5.7c0.3-0.9,0.7-1.8,1.1-2.6
				c1.4-2.6,3.7-4.3,6.4-5.4c2-0.8,4-1.6,6.1-1.9c1.1-0.1,2.4-0.1,3.4,0.3c0.8,0.3,1.7,0.4,2.5,0.6c1.7,0.4,2.9,1.2,3.8,2.6
				c1.2,1.8,2.6,3.5,3.3,5.6C127.9,82.2,128.5,84.6,128.5,86.9z M113.3,99.3c4.4,0.1,7.9-1.8,10.8-4.9c0.6-0.6,0.9-1.4,1.4-2
				c1-1.3,1.4-2.8,1.6-4.4c0.1-1.6,0-3.2-0.2-4.8c-0.2-1.2-0.4-2.3-1-3.3c-0.8-1.4-1.6-2.7-2.5-4c-0.8-1.1-1.8-2.1-3.1-2.6
				c-1.4-0.5-2.8-0.7-4.2-0.8c-1,0-2-0.2-2.9,0.1c-2.2,0.7-4.5,1.3-6.5,2.5c-1.5,0.9-3,1.7-3.9,3.1c-1.2,1.7-1.9,3.8-2.1,5.9
				c-0.2,3.2,0.1,6.3,1.5,9.2c1.2,2.5,3.1,4,5.5,5C109.5,99.2,111.4,99.5,113.3,99.3z"/>
            <path class="st2" d="M84.4,105.8c-1.1-0.2-2.1-0.4-3.2-0.5c-0.6-0.1-1.1-0.2-1.7-0.3c-0.6-0.2-1.3-0.4-1.9-0.7
				c-1-0.5-1.4-1.3-1.5-2.4c-0.1-1.8,0.4-3,2.1-3.7c0.3-0.1,0.7-0.3,1-0.6c1.1-1,2.5-1.2,3.9-1.3c1-0.1,2.1-0.2,3.1-0.3
				c2.4-0.1,4.2,1,5.4,2.9c1.6,2.6,0.5,5.6-2.3,6.2C87.6,105.5,86,105.6,84.4,105.8z"/>
            <path class="st2" d="M82.6,107.2c0.9,0,1.6,0,2.5,0c0.5,1.4,0.4,2.7-0.5,3.8c-0.3,0.4-0.8,0.4-1,0
				C83.2,109.8,82.8,108.5,82.6,107.2z"/>
            <path class="st2" d="M86.9,107.1c0.6-0.1,1.1-0.2,1.7-0.2c0.4,1,0.5,1.9,0.5,2.8c0,0.6-0.8,1-1.5,0.9c-0.3-0.1-0.5-0.2-0.7-0.3
				C86.9,109.2,86.9,108.3,86.9,107.1z"/>
            <path class="st2" d="M80.5,94.5c0.7-0.8,1.5-1.4,2.5-1.7c0.8-0.2,1.6,0.3,2,1.3c-1.5,0.2-2.9,0.5-4.4,0.7
				C80.6,94.6,80.6,94.5,80.5,94.5z"/>
            <path class="st2" d="M113.3,99.3c-1.9,0.2-3.8-0.1-5.6-0.9c-2.4-1-4.3-2.5-5.5-5c-1.4-3-1.7-6.1-1.5-9.2c0.1-2.1,0.9-4.2,2.1-5.9
				c1-1.4,2.5-2.2,3.9-3.1c2-1.2,4.3-1.7,6.5-2.5c0.9-0.3,1.9-0.2,2.9-0.1c1.4,0,2.8,0.3,4.2,0.8c1.4,0.5,2.3,1.5,3.1,2.6
				c0.9,1.3,1.7,2.6,2.5,4c0.6,1,0.8,2.2,1,3.3c0.2,1.6,0.4,3.2,0.2,4.8c-0.1,1.6-0.6,3.1-1.6,4.4c-0.5,0.7-0.9,1.4-1.4,2
				C121.1,97.5,117.7,99.5,113.3,99.3z M118.6,77.4c-0.9,0.1-1.6,0.2-2.2,0.2c-1,0.1-1.8,0.6-2.2,1.4c-1.7,2.8-2.3,5.7-0.7,8.8
				c1.4,2.6,3.4,3.6,6.3,3.1c0.7-0.1,1.2-0.4,1.8-0.9c1.5-1.5,2.2-3.3,2.4-5.3c0.1-1.5,0-3-0.9-4.3
				C121.9,78.7,120.3,77.7,118.6,77.4z"/>
            <path d="M118.6,77.4c1.8,0.2,3.3,1.3,4.4,2.9c0.9,1.3,1,2.8,0.9,4.3c-0.1,2-0.9,3.9-2.4,5.3c-0.5,0.5-1.1,0.8-1.8,0.9
				c-2.9,0.5-5-0.5-6.3-3.1c-1.6-3.1-1-6,0.7-8.8c0.4-0.7,1.2-1.3,2.2-1.4C117,77.6,117.7,77.5,118.6,77.4z"/>
		</g>
	</g>
        <g class="st1">
		<g>
			<path class="st2" d="M82.6,98c-0.2-0.6-0.6-1-1.2-1.2c-0.4-0.1-0.7-0.1-1.1,0c-0.5,0.1-1,0.3-1.5,0.5c-0.9,0.4-1.9,1-2.3,2
				c-0.5,1-0.6,2.2-0.3,3.2c0.2,0.7,0.6,1.2,1.2,1.6c0.6,0.4,1.3,0.5,2,0.4c0.8-0.2,1.3-1.1,1-1.8c-0.3-0.8-1-1.2-1.8-1
				c0,0,0,0-0.1,0c0.1,0,0.3,0,0.4-0.1c-0.1,0-0.2,0-0.3,0c0.1,0,0.3,0,0.4,0.1c-0.1,0-0.1,0-0.2-0.1c0.1,0.1,0.2,0.1,0.4,0.2
				c-0.1,0-0.2-0.1-0.3-0.2c0.1,0.1,0.2,0.2,0.3,0.2c-0.1-0.1-0.1-0.1-0.2-0.2c0.1,0.1,0.2,0.2,0.2,0.3c-0.1-0.1-0.1-0.2-0.2-0.3
				c0.1,0.1,0.1,0.2,0.2,0.4c-0.1-0.2-0.1-0.4-0.2-0.6c0,0.1,0,0.3,0.1,0.4c0-0.3,0-0.6,0-0.9c0,0.1,0,0.3-0.1,0.4
				c0-0.2,0.1-0.4,0.2-0.6c-0.1,0.1-0.1,0.2-0.2,0.4c0.1-0.2,0.2-0.3,0.3-0.5c-0.1,0.1-0.2,0.2-0.2,0.3c0.1-0.1,0.3-0.3,0.4-0.4
				c-0.1,0.1-0.2,0.2-0.3,0.2c0.4-0.3,0.7-0.5,1.1-0.7c-0.1,0.1-0.2,0.1-0.4,0.2c0.4-0.2,0.8-0.3,1.2-0.4c-0.1,0-0.3,0-0.4,0.1
				c0.1,0,0.1,0,0.2,0c-0.1,0-0.3,0-0.4-0.1c0,0,0.1,0,0.1,0c-0.1-0.1-0.2-0.1-0.4-0.2c0,0,0,0,0,0c-0.1-0.1-0.2-0.2-0.3-0.2
				c0,0,0,0,0,0c-0.1-0.1-0.2-0.2-0.2-0.3c0,0,0,0,0,0c-0.1-0.1-0.1-0.2-0.2-0.4c0,0,0,0,0,0c0.2,0.8,1.1,1.3,1.8,1
				C82.3,99.6,82.8,98.8,82.6,98L82.6,98z"/>
		</g>
	</g>
        <g class="st1">
		<g>
			<path class="st2" d="M81.7,93.5c-0.1,0-0.1,0-0.2,0.1c0,0-0.1,0-0.1,0c0,0-0.1,0-0.1,0.1c-0.1,0-0.1,0.1-0.2,0.1
				c0,0-0.1,0.1-0.1,0.1c0,0,0,0.1,0,0.1c0,0.1,0,0.1,0,0.1c0,0,0,0.1,0.1,0.1c0,0,0.1,0,0.1,0.1c0.1,0,0.1,0.1,0.2,0.1
				c0,0,0.1,0,0.1,0c0.1,0,0.1,0,0.2-0.1c0,0,0,0,0,0c0,0-0.1,0-0.1,0.1c0.1,0,0.1-0.1,0.2-0.1c0,0-0.1,0-0.1,0c0,0,0.1,0,0.1,0
				c0,0,0.1,0,0.1-0.1c0,0,0.1-0.1,0.1-0.1c0,0,0-0.1,0-0.1c0,0,0-0.1,0-0.1c0,0,0-0.1,0-0.1c0-0.1-0.1-0.1-0.1-0.1c0,0-0.1,0-0.1,0
				C81.8,93.5,81.8,93.5,81.7,93.5L81.7,93.5z"/>
		</g>
	</g>
        <g class="st1">
		<g>
			<path class="st2" d="M80.7,94.3c-0.1,0.1-0.2,0.2-0.3,0.3c-0.1,0.1,0,0.3,0.2,0.2c0.3-0.1,0.6-0.2,0.8-0.2c0.1,0,0.1-0.1,0.1-0.2
				c0-0.1-0.1-0.1-0.2-0.1c-0.3,0.1-0.6,0.2-0.8,0.2c0.1,0.1,0.1,0.1,0.2,0.2c0,0,0,0,0,0c0,0,0,0,0,0c0,0,0,0,0,0c0,0,0,0,0,0
				c0,0,0,0,0.1,0c0,0,0,0,0,0c0,0,0,0,0,0c0.1,0,0.1-0.1,0.1-0.2C80.8,94.2,80.7,94.2,80.7,94.3L80.7,94.3z"/>
		</g>
	</g>
        <g class="st1">
		<g>
			<path class="st2" d="M80.6,94.7c0.2-0.2,0.4-0.4,0.7-0.6c0.1-0.1,0.1-0.2,0-0.2c-0.1-0.1-0.1-0.1-0.2,0c-0.2,0.2-0.4,0.4-0.7,0.6
				c-0.1,0.1-0.1,0.2,0,0.2C80.5,94.7,80.6,94.7,80.6,94.7L80.6,94.7z"/>
		</g>
	</g>
        <g class="st1">
		<g>
			<path class="st2" d="M87,107.2c-0.1,0-0.1,0-0.2,0c-0.1,0-0.2,0-0.2,0.1c-0.1,0.8-0.1,1.7,0,2.5c0,0.4,0.2,0.6,0.5,0.7
				c0.3,0.1,0.7,0.1,1,0c0.2-0.1,0-0.3-0.2-0.3c-0.3,0.1-0.6,0.1-0.9,0c-0.3-0.2-0.3-0.5-0.3-0.8c-0.1-0.7-0.1-1.4,0-2
				c-0.1,0-0.1,0.1-0.2,0.1c0.1,0,0.2,0,0.3,0C87.3,107.4,87.2,107.1,87,107.2L87,107.2z"/>
		</g>
	</g>
        <g class="st1">
		<g>
			<path class="st2" d="M87,107.7c-0.2,0-0.2,0.1-0.2,0.3c0,0.2,0,0.3,0,0.5c0,0.2,0,0.6,0.3,0.7c0.1,0,0.2-0.1,0.2-0.1
				c0-0.4,0-0.7-0.2-1c0-0.1-0.3-0.2-0.3,0c-0.1,0.4-0.1,0.7,0,1.1c0,0.1,0.3,0.1,0.3,0c0.1-0.3,0-0.7,0-1c-0.1,0-0.2,0-0.3,0
				c0,0.3,0.1,0.5,0.1,0.8c0,0.2,0.3,0.1,0.3,0c0-0.3,0-0.6-0.1-1c0-0.2-0.1-0.5-0.3-0.6c0,0.1,0,0.2,0,0.3c0.2-0.1,0.4,0,0.6,0.1
				c0.2,0.1,0.4,0.2,0.5,0.4c0.1,0.2,0.1,0.4,0.2,0.6c0,0.2,0.1,0.5,0.1,0.7c0,0.2,0.3,0.1,0.3,0c0-0.2,0-0.4-0.1-0.6
				c0-0.1-0.2-0.1-0.3,0c0,0.1-0.1,0.2-0.1,0.4c0,0.1,0.1,0.2,0.2,0.2c0.1,0,0.1-0.1,0.2-0.2c0-0.1,0-0.2,0.1-0.3
				c-0.1,0-0.2,0-0.3,0c0,0.2,0.1,0.3,0,0.5c0.1,0,0.2,0,0.3,0c0-0.3-0.1-0.5-0.1-0.8c0-0.2-0.1-0.5-0.2-0.7
				c-0.1-0.2-0.4-0.3-0.6-0.4c-0.2-0.1-0.5-0.2-0.7-0.1c-0.1,0-0.2,0.2,0,0.3c0.2,0.1,0.1,0.4,0.2,0.5c0,0.3,0,0.5,0,0.8
				c0.1,0,0.2,0,0.3,0c0-0.3-0.1-0.5-0.1-0.8c0-0.2-0.3-0.1-0.3,0c0,0.3,0.1,0.6,0,1c0.1,0,0.2,0,0.3,0c-0.1-0.3-0.1-0.6,0-0.9
				c-0.1,0-0.2,0-0.3,0c0.1,0.3,0.2,0.6,0.1,1c0.1,0,0.1-0.1,0.2-0.1c0,0,0-0.1,0-0.1c0-0.1,0-0.2,0-0.3c0-0.1,0-0.2,0-0.3
				c0,0,0-0.1,0-0.1c0,0,0,0,0-0.1c0,0,0,0,0,0c0,0-0.1,0-0.1,0c0,0,0,0,0,0C87.2,108,87.2,107.7,87,107.7L87,107.7z"/>
		</g>
	</g>
        <g class="st1">
		<g>
			<path class="st2" d="M82.5,107.4c0.1,0.7,0.3,1.4,0.5,2.1c0.1,0.6,0.3,1.2,0.6,1.7c0.1,0.2,0.4,0.4,0.6,0.3
				c0.2-0.1,0.4-0.3,0.5-0.5c0.2-0.5,0.1-1-0.2-1.4c-0.1-0.1-0.3,0.1-0.2,0.2c0.3,0.3,0.3,0.8,0.1,1.2c-0.1,0.1-0.1,0.2-0.2,0.2
				c-0.1,0-0.2-0.1-0.3-0.2c-0.1-0.2-0.2-0.4-0.3-0.6c-0.3-1-0.5-2-0.7-3C82.7,107.1,82.4,107.2,82.5,107.4L82.5,107.4z"/>
		</g>
	</g>
        <g class="st1">
		<g>
			<path class="st2" d="M83.4,108.8c0,0.5,0.1,1,0.3,1.5c0.1,0.2,0.3,0,0.3-0.1c-0.1-0.4-0.2-0.9-0.3-1.3
				C83.7,108.6,83.4,108.7,83.4,108.8c0.1,0.4,0.1,0.7,0.2,1c0,0.1,0.1,0.3,0.1,0.4c0.1,0.1,0.3,0.2,0.3,0c0-0.1,0-0.2-0.1-0.2
				c-0.1,0-0.2,0-0.2,0.1c0,0,0,0,0,0c0,0,0,0,0-0.1c0,0,0,0,0,0c0,0,0.1,0,0.1,0c0,0,0.1,0,0.1,0c0,0,0,0,0,0c0,0,0-0.1,0-0.1
				c0-0.1,0-0.1,0-0.2c0-0.1-0.1-0.2-0.1-0.3c0-0.2-0.1-0.4-0.1-0.6c-0.1,0-0.2,0-0.3,0c0.1,0.4,0.2,0.9,0.3,1.3
				c0.1,0,0.2-0.1,0.3-0.1c-0.2-0.4-0.3-0.9-0.3-1.3C83.7,108.6,83.4,108.6,83.4,108.8L83.4,108.8z"/>
		</g>
	</g>
        <g class="st1">
		<g>
			<path class="st2" d="M83.8,111.2c0.2,0.3,0.6,0.2,0.9,0c0.3-0.3,0.5-0.8,0.6-1.2c0.3-0.9,0.2-1.9-0.1-2.9
				c-0.1-0.2-0.3-0.1-0.3,0.1c0.2,0.7,0.3,1.5,0.1,2.3c-0.1,0.4-0.2,0.7-0.3,1.1c-0.1,0.2-0.5,0.7-0.7,0.3
				C83.9,110.9,83.6,111.1,83.8,111.2L83.8,111.2z"/>
		</g>
	</g>
        <g class="st1">
		<g>
			<path class="st2" d="M82.6,107.5c0.8-0.1,1.6-0.1,2.4-0.1c0.2,0,0.2-0.3,0-0.3c-0.8,0-1.6,0-2.4,0.1
				C82.4,107.2,82.4,107.5,82.6,107.5L82.6,107.5z"/>
		</g>
	</g>
        <g class="st1">
		<g>
			<path class="st2" d="M86.5,107.3c-0.1,0.7,0,1.3,0.1,2c0.1,0.5,0.3,1.1,0.7,1.5c0.4,0.3,0.9,0.4,1.4,0.2c0.5-0.3,0.6-0.8,0.5-1.4
				c-0.1-0.7-0.1-1.4-0.5-2c-0.1-0.2-0.4,0-0.3,0.2c0.3,0.6,0.4,1.3,0.4,1.9c0,0.3,0,0.7-0.2,0.9c-0.2,0.2-0.5,0.2-0.7,0.2
				c-0.6-0.1-0.9-0.8-1-1.3c-0.1-0.7-0.1-1.4-0.1-2.1C86.8,107.1,86.5,107.1,86.5,107.3L86.5,107.3z"/>
		</g>
	</g>
        <g class="st1">
		<g>
			<path class="st2" d="M87.5,110.5c0.1,0.3,0.5,0.5,0.8,0.4c0.3-0.1,0.5-0.4,0.6-0.8c-0.1,0-0.2,0-0.3,0c0,0,0,0,0,0c0,0,0,0,0,0
				c0,0,0,0,0,0c0,0,0,0,0,0c0,0,0,0,0,0c0,0,0,0,0,0c-0.1,0.1-0.1,0.2,0,0.2c0.1,0.1,0.2,0.1,0.2,0c0.1-0.1,0.1-0.2,0.1-0.4
				c0-0.1-0.2-0.1-0.3,0c-0.1,0.2-0.2,0.4-0.4,0.5c-0.1,0-0.2,0-0.3,0c0,0,0,0,0,0c0,0,0,0,0,0c0,0,0,0,0,0c0,0,0,0,0,0c0,0,0,0,0,0
				c0,0,0,0,0,0c0-0.1-0.1-0.1-0.2-0.1C87.5,110.3,87.5,110.4,87.5,110.5L87.5,110.5z"/>
		</g>
	</g>
        <g class="st1">
		<g>
			<path class="st2" d="M86.6,107.4c0.6-0.1,1.3-0.1,1.9-0.2c0.1,0,0.1-0.1,0.1-0.2c0-0.1-0.1-0.1-0.2-0.1c-0.6,0.1-1.2,0.2-1.8,0.2
				C86.4,107.1,86.4,107.4,86.6,107.4L86.6,107.4z"/>
		</g>
	</g>
        <g class="st1">
		<g>
			<path class="st2" d="M88.4,107.2c0.1,0.1,0.1,0.3,0.1,0.5c0,0.2,0,0.3,0.1,0.5c0,0.3,0.1,0.7,0.1,1c0,0.2,0.3,0.2,0.3,0
				c0-0.4-0.1-0.7-0.1-1.1c0-0.3-0.1-0.7-0.2-1c0-0.1-0.1-0.1-0.2-0.1C88.4,107,88.4,107.1,88.4,107.2L88.4,107.2z"/>
		</g>
	</g>
        <g class="st1">
		<g>
			<path class="st2" d="M84,111.3c0.1,0,0.2,0,0.4,0c0,0,0.1,0,0.1,0c0,0,0-0.1,0-0.1c0,0,0-0.1,0-0.1c0,0-0.1,0-0.1,0
				c-0.1,0-0.1,0-0.2,0c0,0,0,0,0,0c0,0-0.1,0-0.1,0c0,0-0.1,0-0.1,0c0,0-0.1,0.1-0.1,0.1C83.9,111.2,83.9,111.2,84,111.3
				C83.9,111.3,84,111.3,84,111.3L84,111.3z"/>
		</g>
	</g>
        <g class="st1">
		<g>
			<path class="st2" d="M84.1,111.4c0.3,0,0.6,0,0.8-0.1c0.3-0.2,0.3-0.5,0.4-0.8c0.1-0.7,0.2-1.5,0-2.2c0-0.2-0.3-0.1-0.3,0.1
				c0.2,0.6,0.1,1.2,0,1.9c0,0.2-0.1,0.6-0.3,0.8c-0.2,0.1-0.5,0.1-0.7,0.1C83.9,111.1,83.9,111.4,84.1,111.4L84.1,111.4z"/>
		</g>
	</g>
        <g class="st1">
		<g>
			<path class="st2" d="M78.2,94.7c-0.1,0.3-0.4,0.5-0.6,0.6c-0.3,0.2-0.6,0.3-0.9,0.5c-0.6,0.4-1.1,0.9-1.4,1.5
				c-0.1,0.2,0.2,0.3,0.3,0.2c0.4-0.6,0.9-1.2,1.5-1.6c0.5-0.3,1.3-0.5,1.5-1.2C78.5,94.6,78.2,94.5,78.2,94.7L78.2,94.7z"/>
		</g>
	</g>
        <g class="st1">
		<g>
			<path class="st2" d="M77.9,94.8c-0.4,0.6-0.9,1-1.4,1.4c-0.6,0.5-1,1.1-1.4,1.7c-0.1,0.2,0.2,0.3,0.3,0.2
				c0.4-0.6,0.8-1.2,1.4-1.7c0.5-0.4,1-0.8,1.4-1.4C78.2,94.8,78,94.6,77.9,94.8L77.9,94.8z"/>
		</g>
	</g>
        <g class="st1">
		<g>
			<path class="st2" d="M78.4,94.6C78.4,94.6,78.4,94.6,78.4,94.6C78.4,94.6,78.4,94.6,78.4,94.6C78.4,94.6,78.4,94.6,78.4,94.6
				c-0.1,0.1-0.1,0.2-0.2,0.2c-0.1,0.1-0.1,0.1-0.2,0.2C78,95,78,95,78,95c0,0,0,0,0,0c0,0,0,0,0,0c0,0,0,0-0.1,0
				c-0.1,0.1-0.2,0.1-0.2,0.1c-0.1,0-0.1,0.1-0.1,0.2c0,0.1,0.1,0.1,0.2,0.1c0.3-0.2,0.6-0.5,0.9-0.8c0-0.1,0-0.2-0.1-0.2
				C78.5,94.5,78.5,94.5,78.4,94.6L78.4,94.6z"/>
		</g>
	</g>
</g>
    <g id="Ebene_4">
	<g>
		<g>
			<path d="M125.1,103.1c-1.9-0.7-3.9,0.2-4.9,1.9c-0.5,0.8-0.9,1.9-0.8,2.9c0.1,0.9,0.7,1.7,1.5,2.1c0.9,0.5,2,0.7,3,0.9
				c1.1,0.2,2.3,0.2,3.4,0c2-0.4,3.6-2.1,2.8-4.2C129.3,104.8,127.2,102.9,125.1,103.1c-0.6,0-0.7,0.9-0.1,0.9
				c1.6-0.2,3,1.1,3.8,2.4c0.4,0.7,0.7,1.5,0.4,2.3c-0.3,0.7-1.1,1.2-1.8,1.4c-1.6,0.5-3.7,0.1-5.3-0.4c-0.7-0.2-1.4-0.5-1.8-1.2
				c-0.4-0.7-0.1-1.6,0.2-2.4c0.8-1.7,2.4-2.7,4.2-2.1C125.4,104.2,125.6,103.3,125.1,103.1L125.1,103.1z"/>
		</g>
	</g>
        <g>
		<g>
			<path d="M122.3,104.1c0.4-0.3,0.7-0.7,1-1.1c0.2-0.3,0.5-0.7,1-0.8c0.4-0.1,0.7,0.3,1,0.5c0.4,0.4,0.7,0.9,1,1.3
				c0.1,0.2,0.4,0.3,0.6,0.2c0.2-0.1,0.3-0.4,0.2-0.6c-0.4-0.5-0.7-1.1-1.1-1.5c-0.4-0.4-0.9-0.8-1.5-0.8c-0.6,0-1.1,0.4-1.5,0.8
				c-0.3,0.4-0.6,0.9-1.1,1.2C121.4,103.7,121.8,104.5,122.3,104.1L122.3,104.1z"/>
		</g>
	</g>
        <g>
		<g>
			<path d="M122.2,110.5c0.1,0.7,0,1.5-0.1,2.2c-0.2,0.6-0.3,1.4,0.2,1.9c0.4,0.5,1.3,0.7,1.9,0.4c0.7-0.3,0.9-1,0.9-1.7
				c0-0.9,0-1.8,0-2.7c0-0.6-0.9-0.6-0.9,0c0,0.8,0,1.7,0,2.5c0,0.3,0,0.7-0.2,0.9c-0.1,0.2-0.5,0.2-0.7,0.1c-0.3,0-0.5-0.2-0.5-0.4
				c0-0.3,0.1-0.6,0.1-0.9c0.2-0.8,0.3-1.6,0.2-2.5c0-0.2-0.2-0.4-0.5-0.4C122.4,110,122.2,110.2,122.2,110.5L122.2,110.5z"/>
		</g>
	</g>
        <g>
		<g>
			<path d="M124,111.2c0.1,0.7,0.1,1.4,0.2,2.1c0.1,0.6,0.4,1.2,1,1.5c0.6,0.3,1.3,0.2,1.8-0.2c0.5-0.5,0.6-1.2,0.5-1.8
				c-0.2-0.8-0.6-1.5-1-2.2c-0.1-0.2-0.4-0.3-0.6-0.2c-0.2,0.1-0.3,0.4-0.2,0.6c0.3,0.5,0.5,0.9,0.7,1.4c0.2,0.4,0.3,0.9,0.1,1.3
				c-0.2,0.3-0.6,0.4-0.9,0.2c-0.4-0.2-0.5-0.6-0.5-1c-0.1-0.6-0.1-1.2-0.2-1.8c0-0.2-0.2-0.4-0.4-0.4
				C124.2,110.7,123.9,111,124,111.2L124,111.2z"/>
		</g>
	</g>
        <g>
		<g>
			<path d="M150.6,127.6c-2,2.4-4.8,5.6-4,9c0.3,1.5,1.6,2.5,3.2,2.3c1.8-0.3,2.8-1.8,4-3c1.4-1.4,3-2.6,4-4.3
				c0.3-0.5-0.5-1-0.8-0.5c-0.7,1.3-1.8,2.3-2.9,3.3c-0.5,0.5-1.1,1-1.6,1.6c-0.5,0.6-1,1.2-1.7,1.6c-1.2,0.8-2.9,0.7-3.3-0.9
				c-0.4-1.4,0.1-2.9,0.8-4.2c0.8-1.5,1.9-2.8,3-4.1C151.6,127.8,151,127.1,150.6,127.6L150.6,127.6z"/>
		</g>
	</g>
        <g>
		<g>
			<path d="M160.6,79.4c1.6-2.7,5.4-2.9,7.8-1c0.6,0.4,1,1,1.2,1.7c0.2,0.8-0.2,1.5-0.6,2.2c-0.8,1.2-2.1,2-3.4,2.5
				c-1.5,0.5-3.1,0.5-4.6,0.1c-0.6-0.2-0.8,0.7-0.2,0.9c3.2,1,7.1-0.1,9-2.9c1-1.5,1-3.3-0.3-4.6c-1.2-1.3-3.2-2-5-1.9
				c-1.9,0.1-3.7,1.1-4.7,2.7C159.5,79.5,160.3,79.9,160.6,79.4L160.6,79.4z"/>
		</g>
	</g>
        <g>
		<g>
			<path d="M161.7,81c0.4-0.3,0.9-0.4,1.3-0.6c0.5-0.2,1-0.3,1.5-0.4c0.9-0.2,1.9-0.2,2.7,0.3c0.5,0.3,0.9-0.5,0.5-0.8
				c-1-0.6-2.1-0.6-3.2-0.5c-0.6,0.1-1.2,0.3-1.7,0.5c-0.5,0.2-1.1,0.4-1.5,0.7C160.8,80.6,161.2,81.4,161.7,81L161.7,81z"/>
		</g>
	</g>
        <g>
		<g>
			<path d="M107.8,85.6c1.1-3.6,3.9-6.3,7.1-8.2c3.4-2.1,7.3-3.8,11.1-5.1c7.5-2.6,15.5-2.1,23.1,0c2.1,0.6,4.2,1.3,6.2,2.1
				c2.1,0.8,4.3,1.7,5.6,3.6c0.3,0.5,1.1,0,0.8-0.5c-2.1-3-6.2-4.1-9.5-5.2c-4.1-1.3-8.3-2.3-12.6-2.6c-8.7-0.6-17,2.3-24.4,6.6
				c-3.6,2.1-6.8,5-8.1,9.1C106.8,85.9,107.6,86.2,107.8,85.6L107.8,85.6z"/>
		</g>
	</g>
        <g>
		<g>
			<path d="M124.4,72c-0.6-0.4-0.9-1.3-1.1-2c-0.1-0.4-0.2-0.9,0.2-1.2c0.3-0.3,0.8-0.4,1.3-0.4c1.9,0,3.4,1.4,4.7,2.6
				c0.4,0.4,1-0.2,0.6-0.6c-0.8-0.8-1.7-1.6-2.8-2.2c-1-0.5-2.2-0.9-3.4-0.5c-0.5,0.1-1.1,0.4-1.3,0.9c-0.3,0.5-0.3,1.1-0.2,1.6
				c0.2,1,0.6,2,1.5,2.6C124.4,73.1,124.9,72.3,124.4,72L124.4,72z"/>
		</g>
	</g>
        <g>
		<g>
			<path d="M139.6,33.2c-0.1,0.9-0.2,1.8-0.4,2.8c-0.1,0.4-0.2,0.9-0.3,1.3c0,0.2-0.1,0.4-0.1,0.6c0,0.1-0.1,0.5-0.1,0.6
				c0,0-0.4,0-0.5,0c-0.2,0-0.3,0-0.5,0.1c-0.4,0.1-0.7,0.2-1.1,0.3c-0.6,0.3-1.2,0.7-1.6,1.3c-0.4,0.5-0.9,1.2-0.2,1.7
				c0.3,0.2,0.7,0.1,1,0.1c0.4-0.1,0.8-0.2,1.2-0.4c0.7-0.3,1.5-0.6,2.1-1.1c0.4-0.4,0.8-1.2,0.2-1.6c-0.3-0.2-0.8-0.1-1.1,0
				c-0.4,0.1-0.8,0.2-1.2,0.4c-0.8,0.3-1.5,0.8-2.1,1.5c-0.2,0.2-0.2,0.5,0.1,0.7c0.6,0.4,1.1,0.1,1.7-0.2c0.7-0.3,1.4-0.6,2.1-0.9
				c0.5-0.2,0.1-1-0.5-0.8c-0.5,0.2-1,0.4-1.5,0.6c-0.3,0.1-1.1,0.6-1.4,0.4c0,0.2,0.1,0.5,0.1,0.7c0.8-0.9,1.8-1.4,3-1.6
				c0.1,0,0.2,0,0.3,0c0,0,0,0,0.1,0c0,0-0.1-0.1-0.1-0.1c0,0-0.1,0.2-0.2,0.3c-0.2,0.2-0.5,0.4-0.8,0.5c-0.6,0.3-1.2,0.5-1.8,0.7
				c-0.1,0-0.3,0.1-0.4,0.1c-0.1,0-0.2,0-0.2,0c0,0,0,0,0,0.1c0,0.1,0,0.1,0.1,0c0.2-0.2,0.3-0.5,0.5-0.6c0.4-0.4,0.9-0.7,1.4-0.9
				c0.3-0.1,0.5-0.1,0.8-0.2c0.3,0,0.6,0,0.8-0.1c0.6-0.2,0.6-0.9,0.8-1.4c0.4-1.5,0.6-3.1,0.8-4.7
				C140.5,32.7,139.6,32.7,139.6,33.2L139.6,33.2z"/>
		</g>
	</g>
        <g>
		<g>
			<path d="M140,33.7C140.1,33.8,140,33.7,140,33.7C140.1,33.8,140.1,33.8,140,33.7C140.2,33.8,140.1,33.7,140,33.7
				c0.1,0.1,0.1,0.1,0.2,0.1c0.1,0.1,0.2,0.2,0.2,0.3c0.2,0.2,0.4,0.4,0.6,0.6c0.5,0.3,1.1,0.4,1.7,0.2c0.2-0.1,0.4-0.3,0.3-0.6
				c-0.1-0.2-0.3-0.4-0.6-0.3c-0.1,0-0.1,0-0.2,0c0,0,0.1,0,0,0c0,0-0.1,0-0.1,0c-0.1,0-0.1,0-0.2,0c0,0-0.1,0,0,0c0,0-0.1,0-0.1,0
				c-0.1,0-0.1,0-0.2,0c0,0-0.1,0-0.1,0c0,0-0.1,0,0,0c-0.1-0.1-0.2-0.1-0.3-0.2c-0.1,0,0,0,0,0c0,0,0,0-0.1-0.1
				c0,0-0.1-0.1-0.1-0.1c-0.1-0.1-0.1-0.2-0.2-0.3c-0.2-0.2-0.4-0.4-0.7-0.5c-0.2-0.1-0.5,0.1-0.6,0.3
				C139.7,33.4,139.8,33.7,140,33.7L140,33.7z"/>
		</g>
	</g>
        <g>
		<g>
			<path d="M100.4,39c-0.2,1.9-0.4,3.8-0.7,5.7c-0.1,0.4-0.1,0.8-0.2,1.2c-0.2,0.4-0.5,0.6-0.9,0.8c-0.7,0.4-1.3,0.9-1.9,1.5
				c-0.4,0.4-0.9,1.1-0.3,1.6c0.5,0.4,1.2,0.1,1.7-0.2c1.1-0.6,3-1.4,2.4-3c-0.1-0.1-0.2-0.3-0.3-0.3c-0.6-0.1-1.1,0.2-1.5,0.7
				c-0.6,0.6-1.1,1.1-1.7,1.7c-0.4,0.4,0.1,0.9,0.5,0.7c0.9-0.5,1.8-1.1,2.6-1.7c0.5-0.4-0.2-1-0.6-0.6c-0.8,0.6-1.6,1.1-2.4,1.6
				c0.2,0.2,0.4,0.5,0.5,0.7c0.4-0.4,0.8-0.8,1.1-1.2c0.2-0.2,0.8-1,1.2-1c-0.1-0.1-0.2-0.2-0.3-0.3c0.5,1.2-1.8,1.9-2.5,2.3
				c-0.1,0-0.1,0,0,0c0.1,0,0.2,0,0.2-0.2c0.1-0.1,0.2-0.2,0.3-0.3c0.2-0.2,0.5-0.5,0.8-0.7c0.5-0.4,1.1-0.6,1.5-1
				c0.4-0.4,0.6-0.9,0.7-1.4c0.1-0.7,0.2-1.5,0.3-2.2c0.2-1.4,0.4-2.9,0.5-4.3C101.3,38.4,100.4,38.4,100.4,39L100.4,39z"/>
		</g>
	</g>
        <g>
		<g>
			<path d="M101.2,39.5c2.3-0.7,4.5-1.3,6.8-2c-0.1,0-0.2,0-0.3,0c0.1,0.1,0,0.8,0,0.9c0,0.4,0,0.7,0,1.1c0,0.7,0,1.4,0,2
				c0,1.4,0,2.8-0.1,4.2c0.2-0.2,0.3-0.3,0.5-0.5c-1,0.1-2,0.4-2.8,1c-0.6,0.4-1.6,1.1-1.2,2c0.8,1.8,3.9-1.3,4.5-2
				c0.3-0.3,0-0.9-0.4-0.8c-1.3,0.5-2.5,1.2-3.6,2.1c-0.4,0.4,0.2,1,0.6,0.6c0.9-0.8,2-1.4,3.2-1.9c-0.1-0.3-0.3-0.5-0.4-0.8
				c-0.4,0.5-0.8,0.9-1.3,1.3c-0.3,0.2-0.5,0.4-0.8,0.6c-0.1,0.1-0.6,0.5-0.8,0.4c-0.4-0.2,1-1,1.1-1.1c0.6-0.3,1.2-0.5,1.9-0.6
				c0.2,0,0.4-0.2,0.4-0.5c0-1.5,0-2.9,0.1-4.4c0-0.7,0-1.4,0-2.1c0-0.6,0.1-1.3,0-1.9c-0.1-0.5-0.5-0.6-1-0.5
				c-0.7,0.2-1.4,0.4-2.1,0.6c-1.5,0.4-3,0.9-4.4,1.3C100.4,38.8,100.6,39.7,101.2,39.5L101.2,39.5z"/>
		</g>
	</g>
        <g>
		<g>
			<path d="M71,73c0,0.9-0.1,1.7-0.2,2.6c-0.1,0.4-0.1,0.8-0.2,1.3c0,0.2-0.1,0.4-0.1,0.6c-0.1,0.3-0.1,0.3-0.4,0.4
				c-1.4,0.5-2.7,1.2-3.8,2.2c-0.5,0.5-0.6,1.1,0,1.6c0.6,0.4,1.3,0.3,1.9,0c1.3-0.6,2.3-1.8,2.8-3c0.2-0.3-0.1-0.8-0.5-0.7
				c-1.6,0.4-2.4,1.9-3.7,2.7c-0.4,0.3-0.2,1,0.3,0.8c0.2-0.1,0.4-0.1,0.6-0.2c0.5-0.2,0.3-1.1-0.2-0.9c-0.2,0.1-0.4,0.1-0.6,0.2
				c0.1,0.3,0.2,0.5,0.3,0.8c1.2-0.8,2-2.3,3.5-2.6c-0.2-0.2-0.3-0.4-0.5-0.7c-0.5,1.1-1.3,2.2-2.4,2.7c-0.3,0.1-0.6,0.2-0.9,0.1
				c-0.1,0-0.1,0-0.2-0.1c-0.1,0-0.1-0.1,0-0.1c0-0.1,0.3-0.2,0.3-0.3c0.5-0.4,1-0.8,1.6-1.1c0.5-0.3,1.1-0.5,1.7-0.7
				c0.3-0.1,0.5-0.2,0.7-0.4c0.2-0.3,0.2-0.7,0.3-1c0.3-1.4,0.5-2.8,0.5-4.2C71.9,72.4,71,72.4,71,73L71,73z"/>
		</g>
	</g>
        <g>
		<g>
			<path d="M68.3,81.3c0.8-0.4,1.5-0.9,2-1.6c0.1-0.1,0.1-0.2,0.1-0.3c0-0.1,0-0.2-0.1-0.3c-0.2-0.1-0.5-0.2-0.6,0
				c-0.2,0.3-0.5,0.6-0.8,0.9c0,0,0,0,0,0c0,0,0.1-0.1,0,0c0,0-0.1,0.1-0.1,0.1c-0.1,0.1-0.2,0.1-0.2,0.2c-0.2,0.1-0.4,0.2-0.5,0.3
				c-0.2,0.1-0.3,0.4-0.2,0.6C67.8,81.4,68.1,81.4,68.3,81.3L68.3,81.3z"/>
		</g>
	</g>
        <g>
		<g>
			<path d="M71.2,73.2c0.4,0.8,1.3,1,2.1,1c1,0.1,2,0,3-0.2c0.6-0.1,0.3-1-0.2-0.9c-0.8,0.2-1.7,0.3-2.5,0.2c-0.5,0-1.3-0.1-1.6-0.6
				C71.7,72.2,70.9,72.7,71.2,73.2L71.2,73.2z"/>
		</g>
	</g>
        <g>
		<g>
			<path d="M47.6,47.8c0.2,0.9,0.4,1.8,0.6,2.7c0.1,0.4,0.2,0.9,0.3,1.3c0,0.2,0.1,0.4,0.1,0.7c0,0.1,0,0.2,0.1,0.3
				c0.1-0.2,0.1-0.2-0.1-0.1c-0.3,0-0.8,0.2-1.1,0.4c-0.4,0.1-0.7,0.3-1,0.5c-0.6,0.4-1.3,0.8-1.8,1.4c-0.4,0.5-0.5,1.2,0,1.7
				c0.5,0.5,1.3,0.4,1.9,0.1c1.3-0.7,2.4-1.9,3.2-3.1c0.2-0.3-0.1-0.8-0.5-0.7c-1.6,0.6-3,1.5-4.1,2.8c-0.4,0.4,0.1,0.9,0.5,0.7
				c1.1-0.4,2-1.1,2.8-1.9c0.4-0.4-0.2-1-0.6-0.6c-0.8,0.7-1.7,1.3-2.7,1.7c0.2,0.2,0.4,0.5,0.5,0.7c1-1.1,2.3-2,3.7-2.5
				c-0.2-0.2-0.3-0.4-0.5-0.7c-0.7,1.1-1.6,2.1-2.7,2.7c-0.2,0.1-0.7,0.4-0.9,0.1c-0.3-0.2,0.1-0.5,0.3-0.6c0.5-0.5,1.1-0.8,1.7-1.1
				c0.6-0.3,1.2-0.5,1.8-0.6c0.7-0.2,0.6-0.8,0.5-1.4c-0.3-1.5-0.7-3-1-4.5C48.4,47,47.5,47.2,47.6,47.8L47.6,47.8z"/>
		</g>
	</g>
        <g>
		<g>
			<path d="M48,48c1.1,0.5,2.4,0.7,3.6,0.3c0.2-0.1,0.4-0.3,0.3-0.6c-0.1-0.2-0.3-0.4-0.6-0.3c-1,0.3-2,0.2-2.9-0.2
				c-0.2-0.1-0.5-0.1-0.6,0.2C47.7,47.6,47.8,47.9,48,48L48,48z"/>
		</g>
	</g>
        <g>
		<g>
			<path d="M68.6,105.6c0.2,0.7,0.5,1.3,0.8,2c0.3,0.6,0.7,1.2,0.8,1.9c0.1-0.1,0.2-0.3,0.3-0.4c-0.6,0.1-1.2,0.4-1.7,0.8
				c-0.5,0.4-1.1,1.1-0.7,1.7c0.4,0.6,1.3,0.4,1.8,0c0.6-0.4,1-0.9,1.3-1.5c0.2-0.4-0.1-0.8-0.5-0.7c-0.7,0.2-1.3,0.5-1.8,1.1
				c-0.4,0.4,0.3,1.1,0.6,0.6c0.4-0.4,0.9-0.7,1.4-0.9c-0.2-0.2-0.3-0.4-0.5-0.7c-0.2,0.4-0.4,0.7-0.7,1c-0.1,0.1-0.3,0.2-0.5,0.3
				c-0.1,0-0.2,0.1-0.3,0.1c0,0,0,0-0.1,0c-0.1,0-0.1,0,0,0.1c0,0,0.3-0.4,0.3-0.4c0.1-0.1,0.3-0.3,0.5-0.4c0.3-0.2,0.7-0.4,1.1-0.4
				c0.2,0,0.3-0.2,0.3-0.4c-0.2-1.5-1.3-2.6-1.6-4.1C69.3,104.8,68.4,105,68.6,105.6L68.6,105.6z"/>
		</g>
	</g>
        <g>
		<g>
			<path d="M69.2,105.8c1.4-0.4,2.7-0.7,4.1-1.1c-0.2-0.1-0.3-0.1-0.5-0.2c0.5,1.1,1,2.2,1.4,3.4c0.1,0.2,0.1,0.3,0.2,0.5
				c0,0.1,0.1,0.1,0.1,0.2c0.1-0.2,0.1-0.2,0-0.2c-0.2,0-0.5,0.2-0.7,0.3c-0.4,0.3-0.9,0.6-1.2,1c-0.3,0.3-0.6,0.9-0.3,1.3
				c0.3,0.4,0.9,0.3,1.3,0.1c0.9-0.4,1.4-1.3,1.8-2.2c0.2-0.4-0.2-0.8-0.6-0.6c-0.7,0.3-1.3,0.8-1.8,1.4c-0.4,0.4,0.2,1.1,0.6,0.6
				c0.5-0.5,1-0.9,1.6-1.2c-0.2-0.2-0.4-0.4-0.6-0.6c-0.4,0.7-0.7,1.5-1.5,1.8c0,0-0.2,0-0.2,0.1c0,0.2,0.1,0.2,0.1,0.1
				c0,0,0-0.1,0.1-0.1c0.1-0.2,0.3-0.3,0.4-0.4c0.3-0.3,0.7-0.5,1.1-0.7c0.4-0.2,0.8-0.4,0.7-1c-0.1-0.5-0.4-0.9-0.5-1.4
				c-0.4-1-0.8-1.9-1.2-2.9c-0.1-0.2-0.3-0.3-0.5-0.2c-1.4,0.4-2.7,0.7-4.1,1.1C68.4,105.1,68.6,105.9,69.2,105.8L69.2,105.8z"/>
		</g>
	</g>
        <g>
		<g>
			<path d="M36.8,92.6c0.1,1.9,0.3,3.8,0.4,5.7c0.1-0.1,0.2-0.3,0.3-0.4c-1,0.3-1.9,0.7-2.7,1.3c-0.5,0.4-1.8,1.2-1.3,2
				c0.5,0.7,1.7,0.2,2.2-0.1c0.8-0.5,1.4-1.4,1.9-2.2c0.3-0.5-0.3-0.9-0.7-0.5c-0.9,0.7-1.7,1.5-2.6,2.2c-0.4,0.4,0.2,1,0.6,0.6
				c0.9-0.7,1.7-1.5,2.6-2.2c-0.2-0.2-0.5-0.4-0.7-0.5c-0.4,0.6-0.7,1.2-1.2,1.7c-0.2,0.2-0.4,0.3-0.7,0.4c-0.2,0.1-0.3,0.1-0.5,0.1
				c0,0-0.1,0-0.1,0c-0.2,0-0.2,0,0,0.1c0,0,0.3-0.2,0.3-0.3c0.1-0.1,0.3-0.2,0.4-0.3c0.3-0.2,0.5-0.4,0.8-0.5
				c0.6-0.3,1.2-0.6,1.9-0.8c0.2-0.1,0.3-0.2,0.3-0.4c-0.1-1.9-0.3-3.8-0.4-5.7C37.6,92,36.7,92,36.8,92.6L36.8,92.6z"/>
		</g>
	</g>
        <g>
		<g>
			<path d="M37,92.9c0.7,0.4,1.5,0.9,2.2,1.3c0.2,0.1,0.5,0.1,0.6-0.2c0.1-0.2,0.1-0.5-0.2-0.6c-0.7-0.4-1.5-0.9-2.2-1.3
				c-0.2-0.1-0.5-0.1-0.6,0.2C36.7,92.5,36.8,92.7,37,92.9L37,92.9z"/>
		</g>
	</g>
        <g>
		<g>
			<path d="M23.1,135.4c12.8-4.1,25.9-7.4,39.1-9.6c0.6-0.1,0.3-1-0.2-0.9c-13.2,2.3-26.3,5.5-39.1,9.6
				C22.3,134.7,22.6,135.6,23.1,135.4L23.1,135.4z"/>
		</g>
	</g>
        <g>
		<g>
			<path d="M62,125.4c2,9.4,3.6,19,6.3,28.3c0.2,0.6,1,0.3,0.9-0.2c-2.7-9.3-4.4-18.8-6.3-28.3C62.7,124.6,61.9,124.8,62,125.4
				L62,125.4z"/>
		</g>
	</g>
        <g>
		<g>
			<path d="M29.5,128.3c5.9-1.4,11.9-2.9,17.8-4.3c0.6-0.1,0.3-1-0.2-0.9c-5.9,1.4-11.9,2.9-17.8,4.3
				C28.7,127.5,29,128.4,29.5,128.3L29.5,128.3z"/>
		</g>
	</g>
        <g>
		<g>
			<path d="M27.2,126.9c7.3-2,14.6-3.8,21.9-5.4c0.6-0.1,0.3-1-0.2-0.9c-7.3,1.6-14.6,3.4-21.9,5.4C26.4,126.2,26.7,127,27.2,126.9
				L27.2,126.9z"/>
		</g>
	</g>
        <g>
		<g>
			<path d="M46.8,124c0.5,1.2,0.9,2.4,1.4,3.6c0.1,0.2,0.3,0.4,0.6,0.3c0.2-0.1,0.4-0.3,0.3-0.6c-0.5-1.2-0.9-2.4-1.4-3.6
				c-0.1-0.2-0.3-0.4-0.6-0.3C46.9,123.5,46.7,123.7,46.8,124L46.8,124z"/>
		</g>
	</g>
        <g>
		<g>
			<path d="M48.5,121.2c0.8,2,1.5,4.1,2.1,6.2c0.2,0.6,1,0.3,0.9-0.2c-0.6-2.1-1.3-4.2-2.1-6.2C49.1,120.4,48.3,120.6,48.5,121.2
				L48.5,121.2z"/>
		</g>
	</g>
        <g>
		<g>
			<path d="M29.1,128.1c0.5,1.5,1,3,1.4,4.5c0.1,0.6,1,0.3,0.9-0.2c-0.4-1.5-0.9-3-1.4-4.5c-0.1-0.2-0.3-0.4-0.6-0.3
				C29.2,127.6,29,127.8,29.1,128.1L29.1,128.1z"/>
		</g>
	</g>
        <g>
		<g>
			<path d="M26.8,126.7c0.8,2,1.6,4.1,2.2,6.1c0.2,0.6,1,0.3,0.9-0.2c-0.6-2.1-1.3-4.1-2.2-6.1c-0.1-0.2-0.3-0.4-0.6-0.3
				C26.9,126.2,26.7,126.5,26.8,126.7L26.8,126.7z"/>
		</g>
	</g>
        <g>
		<g>
			<path d="M29.3,165.3c13.2-3.7,26.4-7.4,39.5-11.1c0.6-0.2,0.3-1-0.2-0.9c-13.2,3.7-26.4,7.4-39.5,11.1
				C28.5,164.6,28.8,165.5,29.3,165.3L29.3,165.3z"/>
		</g>
	</g>
        <g>
		<g>
			<path d="M22.7,135.2c2.4,9.9,3,20.1,5.7,29.9c0.2,0.6,1,0.3,0.9-0.2c-2.7-9.8-3.3-20-5.7-29.9C23.4,134.4,22.5,134.6,22.7,135.2
				L22.7,135.2z"/>
		</g>
	</g>
        <g>
		<g>
			<path d="M25.5,147c2.9-1.6,6.3-2.3,9.4-3.1c3.4-0.9,6.8-1.8,10.2-2.7c3.3-0.8,6.7-1.7,10-2.5c3.1-0.7,6.2-1.4,9.2-2.7
				c0.5-0.2,0.1-1-0.5-0.8c-3.1,1.4-6.4,2-9.7,2.8c-3.4,0.8-6.8,1.7-10.2,2.5c-3.3,0.9-6.7,1.7-10,2.6c-3,0.8-6.1,1.5-9,3
				C24.6,146.5,25,147.3,25.5,147L25.5,147z"/>
		</g>
	</g>
        <g>
		<g>
			<path d="M33.1,135.5c0.4,1.6,0.7,3.2,1,4.8c0,0.2,0.3,0.4,0.6,0.3c0.3-0.1,0.4-0.3,0.3-0.6c-0.3-1.6-0.6-3.2-1-4.8
				C33.8,134.7,32.9,134.9,33.1,135.5L33.1,135.5z"/>
		</g>
	</g>
        <g>
		<g>
			<path d="M33.6,135.9c5.7-1.7,11.5-3.2,17.2-4.6c0.6-0.1,0.3-1-0.2-0.9c-5.8,1.3-11.5,2.9-17.2,4.6C32.8,135.2,33,136,33.6,135.9
				L33.6,135.9z"/>
		</g>
	</g>
        <g>
		<g>
			<path d="M50.4,131.1c0.5,1.6,0.9,3.2,1.4,4.7c0.2,0.6,1,0.3,0.9-0.2c-0.5-1.6-0.9-3.2-1.4-4.7C51.1,130.4,50.2,130.6,50.4,131.1
				L50.4,131.1z"/>
		</g>
	</g>
        <g>
		<g>
			<path d="M34.7,140.9c5.9-1.4,11.7-3,17.6-4.6c0.6-0.2,0.3-1-0.2-0.9c-5.8,1.7-11.7,3.2-17.6,4.6C33.9,140.2,34.2,141,34.7,140.9
				L34.7,140.9z"/>
		</g>
	</g>
        <g>
		<g>
			<path d="M34.7,138.3c5.4-1.8,10.9-3.4,16.4-4.8c0.6-0.1,0.3-1-0.2-0.9c-5.5,1.3-11,2.9-16.4,4.8
				C33.9,137.6,34.1,138.4,34.7,138.3L34.7,138.3z"/>
		</g>
	</g>
        <g>
		<g>
			<path d="M36,135.1c0.5,1.4,0.9,2.9,1.2,4.4c0,0.2,0.3,0.4,0.6,0.3c0.3-0.1,0.4-0.3,0.3-0.6c-0.3-1.5-0.7-3-1.2-4.4
				c-0.1-0.2-0.3-0.4-0.6-0.3C36.1,134.7,35.9,134.9,36,135.1L36,135.1z"/>
		</g>
	</g>
        <g>
		<g>
			<path d="M38.8,134.4c0.5,1.5,0.9,3,1.1,4.6c0,0.2,0.3,0.4,0.6,0.3c0.3-0.1,0.3-0.3,0.3-0.6c-0.2-1.6-0.6-3.1-1.1-4.6
				c-0.1-0.2-0.3-0.4-0.6-0.3C38.9,133.9,38.8,134.2,38.8,134.4L38.8,134.4z"/>
		</g>
	</g>
        <g>
		<g>
			<path d="M41.4,133.5c0.4,1.6,0.8,3.1,1.2,4.7c0.1,0.6,1,0.3,0.9-0.2c-0.4-1.6-0.8-3.1-1.2-4.7C42.1,132.8,41.3,133,41.4,133.5
				L41.4,133.5z"/>
		</g>
	</g>
        <g>
		<g>
			<path d="M43.7,132.9c0.4,1.5,0.7,3,1.1,4.5c0.1,0.6,1,0.3,0.9-0.2c-0.4-1.5-0.7-3-1.1-4.5C44.5,132.1,43.6,132.4,43.7,132.9
				L43.7,132.9z"/>
		</g>
	</g>
        <g>
		<g>
			<path d="M46.4,132.4c0.5,1.4,1,2.8,1.5,4.1c0.1,0.2,0.3,0.4,0.6,0.3c0.2-0.1,0.4-0.3,0.3-0.6c-0.5-1.4-1-2.8-1.5-4.1
				c-0.1-0.2-0.3-0.4-0.6-0.3C46.5,131.9,46.3,132.2,46.4,132.4L46.4,132.4z"/>
		</g>
	</g>
        <g>
		<g>
			<path d="M48.3,132c0.5,1.4,0.9,2.7,1.3,4.1c0.1,0.6,1,0.3,0.9-0.2c-0.4-1.4-0.8-2.8-1.3-4.1c-0.1-0.2-0.3-0.4-0.6-0.3
				C48.4,131.5,48.2,131.8,48.3,132L48.3,132z"/>
		</g>
	</g>
        <g>
		<g>
			<path d="M22.8,134.6c-0.9,0.7-1.8,1.4-2.5,2.3c-0.4,0.4-0.8,0.7-0.8,1.3c0,0.4,0.2,0.8,0.2,1.2c0.4,2.1,0.8,4.2,1.2,6.3
				c0.9,5.1,1.9,10.1,2.8,15.2c0.1,0.5,0.1,1.2,0.3,1.7c0.2,0.5,0.4,0.4,1,0.7c1.3,0.6,2.5,1.3,3.6,2.1c0.5,0.3,0.9-0.4,0.5-0.8
				c-0.9-0.6-1.9-1.2-2.9-1.7c-0.4-0.2-0.9-0.3-1.3-0.6c-0.3-0.2,0.1,0.3-0.1,0.1c-0.2-0.3-0.2-0.9-0.2-1.2c-0.4-2-0.7-3.9-1.1-5.9
				c-0.9-4.9-1.8-9.8-2.8-14.8c-0.1-0.7-0.4-1.4-0.4-2.1c0-0.1-0.1-0.3-0.1-0.4c0-0.1,0.1,0.1,0.2,0.1c0.2-0.3,0.6-0.7,0.9-1
				c0.6-0.6,1.2-1.2,1.9-1.7C23.7,135.1,23.2,134.3,22.8,134.6L22.8,134.6z"/>
		</g>
	</g>
        <polygon class="st3" points="43,148 49,146 51,153 45,155 	"/>
        <line class="st3" x1="44.5" y1="153.2" x2="50.5" y2="151.3"/>
        <line class="st3" x1="43.5" y1="149.9" x2="49.6" y2="148"/>
        <circle class="st3" cx="29.5" cy="139.5" r="3.5"/>
        <circle class="st4" cx="29.5" cy="139.5" r="1.5"/>
        <circle class="st4" cx="57.5" cy="132.5" r="1.5"/>
        <circle class="st3" cx="57.5" cy="132.5" r="3.5"/>
        <circle class="st3" cx="58.5" cy="147.1" r="6.3"/>
        <circle class="st3" cx="35.7" cy="152.8" r="6.2"/>
        <circle class="st4" cx="58.5" cy="146.9" r="4.2"/>
        <circle class="st4" cx="35.7" cy="152.9" r="4.2"/>
        <g>
		<g>
			<path d="M43.9,148.9C43.9,148.9,43.9,148.9,43.9,148.9c-0.2-0.1-0.3-0.1-0.5-0.2c0.1,0.2,0.2,0.5,0.3,0.7
				c0.2,0.4,0.8,0.2,0.8-0.2c0-0.2,0-0.6,0.2-0.6c-0.1-0.2-0.3-0.4-0.4-0.6c-0.1,0.3-0.3,0.6-0.2,0.9c0.1,0.4,0.5,0.4,0.9,0.3
				c0.7-0.2,1.3-0.4,2-0.6c0.3-0.1,0.6-0.2,1-0.3c0.3-0.1,0.7-0.2,1-0.3c0.7-0.4,0.1-1.3-0.2-1.7c-0.2-0.2-0.5-0.2-0.6,0
				c-0.9,0.9-2.3,1-3.5,1.4c-0.2,0.1-0.4,0.3-0.3,0.6c0.1,0.2,0.3,0.4,0.6,0.3c1.3-0.5,2.8-0.6,3.9-1.7c-0.2,0-0.4,0-0.6,0
				c0.1,0.1,0.3,0.4,0.3,0.6c0-0.1,0-0.2,0.1-0.2c0,0,0,0,0,0c0.1-0.1,0.1-0.1,0.2-0.2c-0.2,0.1-0.7,0.2-0.9,0.3
				c-0.3,0.1-0.7,0.2-1,0.3s-0.7,0.2-1,0.3c-0.3,0.1-0.7,0.3-1,0.3c0.1,0,0.2,0,0.3,0c0,0,0,0,0,0c0.1,0.1,0.1,0.2,0.2,0.3
				c0,0,0,0,0,0c0,0.1,0,0.2,0,0.2c0.1-0.2,0.2-0.5,0.2-0.7c0.1-0.3-0.2-0.6-0.4-0.6c-0.8,0-1.1,0.8-1.1,1.5
				c0.3-0.1,0.6-0.2,0.8-0.2c-0.1-0.2-0.2-0.5-0.3-0.7c-0.1-0.1-0.2-0.2-0.4-0.2c-0.1,0-0.3,0-0.4,0.1c-0.2,0.1-0.3,0.4-0.2,0.6
				C43.4,148.9,43.7,149,43.9,148.9L43.9,148.9z"/>
		</g>
	</g>
        <g>
		<g>
			<path d="M45.3,154.2c0.9-0.3,1.8-0.6,2.7-0.9c0.4-0.1,0.9-0.3,1.3-0.4c0.2-0.1,0.4-0.1,0.6-0.2c0,0,0,0,0,0
				c0.1,0,0.1-0.1-0.1-0.3c0,0,0,0,0,0c0,0-0.1,0-0.1,0c-0.4,0.1-0.8,0.1-1.2,0.3c-0.4,0.2-0.7,0.4-1.1,0.5
				c-0.9,0.3-1.8,0.5-2.7,0.8c-0.6,0.2-0.3,1,0.2,0.9c0.8-0.2,1.7-0.5,2.5-0.7c0.4-0.1,0.8-0.3,1.1-0.5c0.3-0.2,0.6-0.4,1-0.4
				c0.4,0,0.7-0.1,0.9-0.5c0.2-0.4,0-0.8-0.3-1c-0.3-0.1-0.7,0-1,0.1c-0.4,0.1-0.9,0.3-1.3,0.4c-1,0.3-1.9,0.6-2.9,1
				C44.5,153.5,44.8,154.3,45.3,154.2L45.3,154.2z"/>
		</g>
	</g>
        <g>
		<g>
			<path d="M46.5,151.3C46.5,151.2,46.5,151.2,46.5,151.3c0-0.1,0-0.2,0-0.2c0-0.1,0-0.1-0.1-0.1c0,0-0.1-0.1-0.1-0.1
				c-0.1,0-0.1,0-0.2,0c0,0-0.1,0-0.1,0c-0.1,0-0.1,0.1-0.2,0.1c0,0,0,0.1-0.1,0.1c0,0.1-0.1,0.1-0.1,0.2c0,0,0,0,0,0.1
				c0,0.1,0,0.1,0,0.2c0,0.1,0,0.1,0.1,0.1c0,0,0.1,0.1,0.1,0.1c0.1,0,0.1,0,0.2,0c0,0,0.1,0,0.1,0c0.1,0,0.1-0.1,0.2-0.1
				c0,0,0-0.1,0.1-0.1C46.5,151.4,46.5,151.3,46.5,151.3L46.5,151.3z"/>
		</g>
	</g>
        <g>
		<g>
			<path d="M48,151c0.6,0,0.6-0.9,0-0.9C47.5,150.1,47.5,151,48,151L48,151z"/>
		</g>
	</g>
        <ellipse class="st3" cx="146" cy="100.5" rx="10" ry="10.5"/>
        <ellipse class="st3" cx="107.5" cy="95.5" rx="9" ry="10"/>
        <ellipse class="st4" cx="148.5" cy="100" rx="3.5" ry="4"/>
        <ellipse class="st4" cx="101" cy="94.5" rx="4" ry="4.5"/>
        <g>
		<g>
			<path d="M101.9,103.8c-0.1,3.3,0.5,6.5,1.7,9.5c0.6,1.4,1.1,2.9,1.9,4.2c0.8,1.2,1.9,2.3,3,3.2c2.4,1.9,5.1,3.5,7.7,4.9
				c2.7,1.5,5.6,2.7,8.7,2.4c0.6-0.1,0.6-1,0-0.9c-3.1,0.4-6-1-8.7-2.4c-2.5-1.4-5-2.8-7.2-4.6c-1.1-0.9-2.2-1.9-3-3.2
				c-0.8-1.2-1.3-2.7-1.8-4c-1.1-2.9-1.7-5.9-1.6-9.1C102.8,103.2,101.9,103.2,101.9,103.8L101.9,103.8z"/>
		</g>
	</g>
        <g>
		<g>
			<path d="M105.6,116c-1-1.3-2.6-2-4.2-2.3c-1.5-0.3-3.3-0.4-4.5,0.6c-1.3,1-1.2,2.9-0.6,4.3c0.6,1.4,1.5,2.7,2.8,3.7
				c1.4,1.1,3,1.8,4.8,1.9c0.6,0.1,0.6-0.8,0-0.9c-2.6-0.3-5-1.9-6.3-4.2c-0.6-1.1-1.1-2.6-0.4-3.8c0.8-1.1,2.5-1.1,3.7-0.9
				c1.6,0.2,3.1,0.9,4.1,2.1C105.4,117.1,106,116.5,105.6,116L105.6,116z"/>
		</g>
	</g>
        <g>
		<g>
			<path d="M132.8,159.1c-1.3,1.3-2.3,2.9-3.2,4.5c-0.7,1.3-1.3,3.1-0.3,4.5c0.9,1.3,2.6,1.3,4,0.7c1.5-0.7,2.7-2,3.8-3.2
				c1.3-1.5,2.3-3.1,3.1-4.9c0.2-0.5-0.5-1-0.8-0.5c-0.7,1.7-1.7,3.3-2.9,4.7c-0.6,0.7-1.2,1.4-1.9,2c-0.7,0.6-1.4,1.2-2.3,1.3
				c-0.8,0.2-1.7-0.1-2.2-0.8c-0.5-0.8-0.3-1.9,0.1-2.7c0.8-1.8,2-3.5,3.4-5C133.9,159.3,133.3,158.7,132.8,159.1L132.8,159.1z"/>
		</g>
	</g>
        <g>
		<g>
			<path d="M96.3,143.6c-1.8-0.4-3.8-0.7-5.7-0.7c-1.7,0-2.6,1-3.4,2.4c-0.3,0.6-0.6,1.3-0.3,2c0.3,0.7,0.9,1.3,1.5,1.8
				c1.3,1,2.8,1.6,4.4,1.9c2.2,0.4,4.3,0.2,6.5-0.1c0.6-0.1,0.6-1,0-0.9c-3.6,0.4-7.9,0.8-10.8-2c-0.3-0.3-0.7-0.7-0.8-1.1
				c-0.1-0.5,0.2-0.9,0.4-1.3c0.4-0.7,0.9-1.5,1.8-1.7c0.9-0.2,1.9,0,2.9,0.1c1.1,0.1,2.2,0.3,3.2,0.5
				C96.6,144.6,96.9,143.7,96.3,143.6L96.3,143.6z"/>
		</g>
	</g>
        <g>
		<g>
			<path d="M109.4,120.9c-1.5,0.4-3,0.8-4.3,1.6c-1.4,0.7-2.3,1.9-3.4,3c-1.1,1.1-2.2,2-3.1,3.3c-0.9,1.3-1.6,2.9-2.1,4.4
				c-2.1,6-1.5,12.7,2.6,17.7c0.4,0.4,1-0.2,0.6-0.6c-3.9-4.7-4.4-11.2-2.4-16.8c0.5-1.4,1.1-2.8,1.9-4c0.8-1.2,1.9-2.1,2.9-3.1
				c1.1-1.1,2-2.2,3.4-3c1.3-0.7,2.7-1.1,4.1-1.5C110.2,121.6,110,120.7,109.4,120.9L109.4,120.9z"/>
		</g>
	</g>
        <g>
		<g>
			<path d="M98.8,150.6c2.2,1.8,4.3,3.7,6.7,5c2.6,1.4,5.3,2.7,8,3.9c5.3,2.4,10.9,4.1,16.7,3.9c0.6,0,0.6-0.9,0-0.9
				c-5.8,0.2-11.4-1.6-16.7-4c-2.4-1.1-4.8-2.3-7.2-3.6c-2.6-1.3-4.7-3.2-6.9-5.1C99,149.6,98.4,150.2,98.8,150.6L98.8,150.6z"/>
		</g>
	</g>
        <g>
		<g>
			<path d="M167.5,84.4c2.3,6,4,12.6,4.6,19c0.6,6.6-1.2,13.3-2.7,19.7c-2.7,11.4-6.6,23.1-15.3,31.4c-4.4,4.2-9.8,7.2-15.7,8.3
				c-0.6,0.1-0.3,1,0.2,0.9c10.9-1.9,19.5-10.2,24.5-19.7c3-5.6,5-11.8,6.6-17.9c1.6-6.4,3.5-13.1,3.5-19.7c0-3.7-0.7-7.4-1.5-11
				c-0.8-3.8-1.9-7.5-3.3-11.2C168.2,83.6,167.3,83.9,167.5,84.4L167.5,84.4z"/>
		</g>
	</g>
        <g>
		<g>
			<path d="M33.7,101.2c0.8,0.6,2,0.3,2.7-0.3c0.4-0.3,0.7-0.6,1-1c0.3-0.4,0.6-0.9,0.6-1.4c0-0.2-0.2-0.4-0.4-0.4
				c-0.3,0-0.4,0.2-0.5,0.4c0,0.3-0.2,0.6-0.4,0.9c-0.2,0.3-0.5,0.6-0.8,0.8c-0.3,0.2-0.5,0.4-0.9,0.5c-0.3,0.1-0.6,0-0.9-0.2
				c-0.2-0.1-0.5,0-0.6,0.2C33.4,100.8,33.5,101,33.7,101.2L33.7,101.2z"/>
		</g>
	</g>
        <g>
		<g>
			<path d="M48.3,51c0.2,0.8,0.4,1.6,0.8,2.4c0.1,0.2,0.4,0.3,0.6,0.2c0.2-0.1,0.3-0.4,0.2-0.6c0-0.1-0.1-0.2-0.1-0.3
				c0,0.1,0-0.1,0-0.1c0,0,0-0.1,0-0.1c-0.1-0.2-0.1-0.4-0.2-0.5c-0.1-0.4-0.2-0.7-0.3-1.1c0-0.2-0.3-0.4-0.6-0.3
				C48.4,50.5,48.3,50.7,48.3,51L48.3,51z"/>
		</g>
	</g>
        <g>
		<g>
			<path d="M139.3,40.1c0.1-0.2,0.2-0.5,0.3-0.8c0-0.1,0-0.3,0-0.5c0-0.2,0-0.3,0-0.5c0-0.1-0.1-0.2-0.2-0.3c-0.1-0.1-0.2-0.1-0.3,0
				c-0.1,0-0.2,0.1-0.3,0.2c0,0,0,0.1,0,0.1c0,0.1,0,0.2,0,0.2c0,0,0,0,0,0c0,0,0-0.1,0-0.1c0,0.2,0,0.4,0,0.6c0,0,0-0.1,0-0.1
				c0,0.2-0.1,0.4-0.2,0.6c0,0,0-0.1,0-0.1c0,0.1-0.1,0.1-0.1,0.2c-0.1,0.2-0.1,0.5,0.2,0.6C138.9,40.4,139.2,40.4,139.3,40.1
				L139.3,40.1z"/>
		</g>
	</g>
        <g>
		<g>
			<path d="M108.5,45.9c0-0.2,0-0.3,0-0.5c0-0.2,0-0.4-0.1-0.6c0-0.1-0.1-0.2-0.2-0.3c-0.1-0.1-0.2-0.1-0.3,0
				c-0.1,0-0.2,0.1-0.3,0.2c-0.1,0.1-0.1,0.2,0,0.3c0,0.1,0.1,0.2,0.1,0.4c0,0,0-0.1,0-0.1c0,0.2,0,0.4,0,0.5c0,0.1,0.1,0.2,0.1,0.3
				c0.1,0.1,0.2,0.1,0.3,0.1c0.1,0,0.2,0,0.3-0.1c0,0,0-0.1,0.1-0.1C108.5,46,108.5,46,108.5,45.9L108.5,45.9z"/>
		</g>
	</g>
</g>
</svg>
